<svg width="100%" viewBox="0 0 109 40" fill="none" xmlns="http://www.w3.org/2000/svg">
<g>
<path d="M20.8834 6.43567H25.1592C25.4121 6.43567 25.6843 6.43873 25.9761 6.44384C26.2678 6.44997 26.5565 6.46632 26.8431 6.49289C27.1287 6.52047 27.3959 6.56135 27.6436 6.61652C27.8913 6.6717 28.1033 6.75446 28.2793 6.86379C28.6642 7.0947 28.9917 7.4135 29.262 7.81913C29.5322 8.22682 29.6673 8.72646 29.6673 9.3201C29.6673 9.94644 29.5158 10.488 29.2129 10.9437C28.9099 11.3994 28.4779 11.7376 27.9169 11.9573V11.99C28.6437 12.1442 29.1985 12.4733 29.5845 12.979C29.9694 13.4848 30.1618 14.0999 30.1618 14.8243C30.1618 15.2525 30.085 15.6703 29.9304 16.077C29.7759 16.4837 29.5476 16.8434 29.2456 17.157C28.9426 17.4707 28.569 17.723 28.1227 17.9152C27.6763 18.1073 27.1625 18.2033 26.579 18.2033H20.8834V6.43567ZM25.5891 11.4954C26.4807 11.4954 27.1215 11.3391 27.5126 11.0254C27.9036 10.7117 28.0991 10.2427 28.0991 9.61641C28.0991 9.19851 28.0326 8.8695 27.9005 8.62734C27.7685 8.38621 27.5863 8.19923 27.356 8.06742C27.1246 7.93561 26.8574 7.85081 26.5555 7.81198C26.2525 7.77418 25.931 7.75476 25.5891 7.75476H22.4527V11.4954H25.5891ZM26.3814 16.8842C27.0755 16.8842 27.617 16.6972 28.008 16.3243C28.399 15.9513 28.5946 15.4343 28.5946 14.7753C28.5946 14.3911 28.5229 14.0723 28.3796 13.8189C28.2363 13.5666 28.047 13.3653 27.8105 13.2171C27.574 13.0689 27.3007 12.9647 26.9936 12.9044C26.6855 12.8441 26.3661 12.8135 26.0365 12.8135H22.4537V16.8842H26.3814Z" fill="white"/>
<path d="M31.6351 8.15018V6.43567H33.0385V8.15018H31.6351ZM33.0395 9.6818V18.2023H31.6361V9.6818H33.0395Z" fill="white"/>
<path d="M62.1688 18.2023V17.0487H62.1361C61.9047 17.5208 61.5414 17.862 61.0459 18.0705C60.5505 18.2789 60.0059 18.3831 59.4111 18.3831C58.7509 18.3831 58.1756 18.2626 57.6853 18.0204C57.1949 17.7783 56.7885 17.4543 56.463 17.0476C56.1386 16.641 55.8939 16.169 55.7281 15.6305C55.5632 15.092 55.4803 14.5208 55.4803 13.917C55.4803 13.3131 55.5602 12.742 55.7198 12.2025C55.8795 11.664 56.1211 11.195 56.4467 10.7935C56.7711 10.3929 57.1786 10.0742 57.6689 9.83813C58.1582 9.6021 58.7284 9.48358 59.3774 9.48358C59.5974 9.48358 59.8339 9.50606 60.0878 9.55C60.3406 9.59393 60.5935 9.66852 60.8473 9.77274C61.1002 9.87696 61.3397 10.0149 61.5659 10.1845C61.7911 10.3551 61.9815 10.5666 62.1351 10.819H62.1678V6.43567H63.5713V18.2023H62.1688ZM57.1243 15.1789C57.2287 15.5579 57.3884 15.8961 57.6034 16.1924C57.8184 16.4888 58.0927 16.7258 58.4285 16.9005C58.7642 17.0763 59.1573 17.1642 59.6087 17.1642C60.0816 17.1642 60.4839 17.0712 60.8135 16.8842C61.1441 16.6972 61.4134 16.453 61.6222 16.1506C61.831 15.8481 61.9826 15.5048 62.0768 15.1206C62.1699 14.7364 62.217 14.3461 62.217 13.9507C62.217 13.5328 62.1678 13.1292 62.0686 12.7399C61.9692 12.3496 61.8126 12.0063 61.5977 11.71C61.3837 11.4137 61.1053 11.1746 60.7644 10.9927C60.4225 10.8119 60.0099 10.7209 59.5258 10.7209C59.0528 10.7209 58.6506 10.8149 58.3199 11.0009C57.9893 11.1879 57.7252 11.4351 57.5276 11.7427C57.3291 12.0502 57.1867 12.4017 57.0987 12.7972C57.0107 13.1926 56.9667 13.5992 56.9667 14.0171C56.9677 14.4126 57.0199 14.7998 57.1243 15.1789Z" fill="white"/>
<path d="M73.2849 18.1696C73.0423 18.3126 72.7076 18.3842 72.2777 18.3842C71.9143 18.3842 71.6256 18.283 71.4106 18.0797C71.1956 17.8763 71.0892 17.5443 71.0892 17.0824C70.7043 17.5443 70.2549 17.8763 69.7431 18.0797C69.2313 18.283 68.6785 18.3842 68.0838 18.3842C67.6989 18.3842 67.3324 18.3402 66.9864 18.2523C66.6394 18.1644 66.3395 18.0275 66.0867 17.8406C65.8338 17.6536 65.6321 17.4094 65.4837 17.1069C65.3353 16.8045 65.2606 16.4397 65.2606 16.0116C65.2606 15.5283 65.3435 15.1329 65.5083 14.8253C65.6731 14.5178 65.8911 14.2675 66.1604 14.0754C66.4295 13.8833 66.7377 13.7372 67.0847 13.6391C67.4317 13.54 67.7869 13.4582 68.1493 13.3918C68.5342 13.3152 68.9007 13.257 69.2477 13.2192C69.5947 13.1803 69.8997 13.1262 70.1638 13.0546C70.4279 12.9831 70.6368 12.8789 70.7913 12.742C70.9449 12.6051 71.0227 12.4038 71.0227 12.1402C71.0227 11.8326 70.9643 11.5853 70.8496 11.3984C70.734 11.2114 70.5856 11.0683 70.4034 10.9702C70.2222 10.8711 70.0185 10.8057 69.7923 10.772C69.566 10.7393 69.3439 10.723 69.1238 10.723C68.5291 10.723 68.0346 10.8354 67.6385 11.0612C67.2424 11.287 67.0274 11.712 66.9946 12.3384H65.5912C65.6127 11.8112 65.7233 11.3657 65.9218 11.004C66.1204 10.6412 66.3845 10.348 66.7141 10.1222C67.0448 9.8974 67.4215 9.73494 67.8453 9.63582C68.269 9.53672 68.7226 9.48767 69.2077 9.48767C69.5926 9.48767 69.9755 9.51526 70.3553 9.57044C70.735 9.62561 71.079 9.738 71.3871 9.90762C71.6952 10.0772 71.943 10.3163 72.1303 10.6228C72.3176 10.9294 72.4108 11.3299 72.4108 11.8234V16.1976C72.4108 16.5266 72.4302 16.7677 72.4691 16.921C72.508 17.0742 72.637 17.1509 72.857 17.1509C72.9778 17.1509 73.1211 17.1295 73.286 17.0845V18.1696H73.2849ZM71.0063 13.8026C70.8302 13.9343 70.5989 14.0294 70.3133 14.0897C70.0267 14.1499 69.7268 14.199 69.4135 14.2368C69.1003 14.2757 68.7829 14.3186 68.4646 14.3686C68.1452 14.4177 67.8586 14.4973 67.6057 14.6067C67.3529 14.716 67.1461 14.8713 66.9864 15.0736C66.8267 15.2759 66.7469 15.5518 66.7469 15.9023C66.7469 16.1322 66.794 16.3263 66.8871 16.4847C66.9803 16.643 67.1021 16.7718 67.2506 16.8699C67.399 16.968 67.573 17.0395 67.7705 17.0834C67.9691 17.1274 68.178 17.1488 68.398 17.1488C68.8607 17.1488 69.2569 17.0865 69.5865 16.9608C69.9171 16.8352 70.1864 16.6767 70.3952 16.4857C70.604 16.2946 70.7586 16.0862 70.8579 15.8624C70.9572 15.6386 71.0063 15.4282 71.0063 15.231V13.8026Z" fill="white"/>
<path d="M36.3353 9.68225V11.4785H36.3681C36.7089 10.7858 37.1277 10.2749 37.6231 9.94586C38.1185 9.61584 38.746 9.46257 39.5056 9.48403V10.9676C38.9446 10.9676 38.4656 11.0443 38.0694 11.1985C37.6732 11.3528 37.3539 11.5776 37.1123 11.8739C36.8697 12.1702 36.6936 12.5309 36.5841 12.9529C36.4735 13.3759 36.4192 13.8622 36.4192 14.411V18.2017H35.0159V9.68225H36.3353Z" fill="white"/>
<path d="M43.636 6.9425H42.0616V16.6298H43.636V6.9425Z" fill="white"/>
<path d="M45.2104 16.6292H43.6357V18.2019H45.2104V16.6292Z" fill="white"/>
<path d="M45.2097 11.1111H40.5695V9.53857L45.2097 9.5396V11.1111Z" fill="white"/>
<path d="M48.1226 6.35583V10.8547H48.1553C48.2648 10.591 48.4194 10.3683 48.618 10.1874C48.8166 10.0056 49.0387 9.85741 49.2864 9.74195C49.5341 9.62649 49.7932 9.54168 50.0624 9.48651C50.3316 9.43133 50.5936 9.40375 50.8465 9.40375C51.4074 9.40375 51.8753 9.48038 52.2499 9.63467C52.6235 9.78895 52.9265 10.0035 53.1579 10.2774C53.3892 10.5522 53.5509 10.8792 53.6451 11.2582C53.7393 11.6373 53.7853 12.0573 53.7853 12.5191V18.1224H52.382V12.3546C52.382 11.8274 52.2273 11.4095 51.9203 11.1019C51.6122 10.7944 51.1884 10.6401 50.6489 10.6401C50.22 10.6401 49.8484 10.7065 49.5341 10.8383C49.2209 10.9701 48.9589 11.1571 48.7501 11.3992C48.5412 11.6414 48.3836 11.9234 48.2791 12.2483C48.1747 12.5722 48.1226 12.9268 48.1226 13.311V18.1235H46.7191V6.35583H48.1226Z" fill="white"/>
<path d="M75.8169 9.74438H74.2426V15.2639H75.8169V9.74438Z" fill="white"/>
<path d="M82.1172 9.74438H80.5428V15.2639H82.1172V9.74438Z" fill="white"/>
<path d="M77.3926 15.264H75.818V16.8358H77.3926V15.264Z" fill="white"/>
<path d="M80.5421 15.264H78.9675V16.8358H80.5421V15.264Z" fill="white"/>
<path d="M78.9667 16.8367H77.392V18.4085H78.9667V16.8367Z" fill="white"/>
<path d="M78.9667 18.4077H77.392V19.9795H78.9667V18.4077Z" fill="white"/>
<path d="M77.3926 19.9801H75.818V21.5519H77.3926V19.9801Z" fill="white"/>
<path d="M37.9646 32.8696C37.3258 33.3529 36.5223 33.5951 35.5539 33.5951C34.8711 33.5951 34.2794 33.4847 33.7789 33.265C33.2784 33.0453 32.8566 32.7378 32.5157 32.3424C32.1748 31.947 31.9189 31.4749 31.748 30.9252C31.577 30.3755 31.4808 29.7777 31.4593 29.1289C31.4593 28.4811 31.5586 27.8875 31.7562 27.349C31.9548 26.8106 32.2321 26.3436 32.5904 25.9482C32.9477 25.5528 33.3715 25.2452 33.8618 25.0256C34.3511 24.8059 34.8885 24.6956 35.472 24.6956C36.2316 24.6956 36.8611 24.8519 37.3627 25.1655C37.8632 25.4792 38.2645 25.8767 38.5675 26.36C38.8705 26.8433 39.0793 27.3715 39.195 27.9427C39.3107 28.5138 39.3568 29.0574 39.3352 29.5745H32.9456C32.9344 29.9484 32.9784 30.3019 33.0777 30.6371C33.177 30.9722 33.3367 31.2696 33.5567 31.527C33.7769 31.7855 34.0573 31.9909 34.3992 32.1452C34.7401 32.2995 35.1424 32.3761 35.6041 32.3761C36.1988 32.3761 36.6861 32.2392 37.0648 31.9643C37.4446 31.6895 37.6943 31.2716 37.8161 30.7116H39.2032C39.0148 31.667 38.6023 32.3863 37.9646 32.8696ZM37.6258 27.3981C37.4989 27.1018 37.3289 26.8463 37.114 26.6318C36.899 26.4172 36.6462 26.2476 36.3544 26.1209C36.0627 25.9952 35.7402 25.9319 35.3881 25.9319C35.0247 25.9319 34.6971 25.9952 34.4054 26.1209C34.1137 26.2476 33.8628 26.4203 33.654 26.6399C33.4452 26.8596 33.2794 27.115 33.1586 27.4063C33.0367 27.6975 32.9661 28.0081 32.9436 28.3371H37.8469C37.8264 28.0081 37.7517 27.6954 37.6258 27.3981Z" fill="white"/>
<path d="M41.9995 31.5108C42.1315 31.7254 42.3045 31.8961 42.5195 32.0217C42.7345 32.1484 42.976 32.2383 43.2462 32.2936C43.5155 32.3487 43.794 32.3763 44.0805 32.3763C44.3007 32.3763 44.532 32.3599 44.7736 32.3273C45.0152 32.2946 45.2383 32.2343 45.442 32.1464C45.6457 32.0585 45.8136 31.9298 45.9456 31.7592C46.0777 31.5885 46.1442 31.3719 46.1442 31.1083C46.1442 30.7456 46.006 30.4707 45.7317 30.2848C45.4563 30.0978 45.1124 29.9465 44.6998 29.8311C44.2873 29.7157 43.8379 29.6114 43.3538 29.5184C42.8696 29.4254 42.4212 29.2937 42.0087 29.123C41.5961 28.9524 41.2512 28.7143 40.9768 28.4057C40.7015 28.0982 40.5643 27.6701 40.5643 27.1204C40.5643 26.6922 40.6606 26.3244 40.853 26.0159C41.0455 25.7083 41.2931 25.4579 41.5961 25.2658C41.8992 25.0738 42.24 24.9307 42.6198 24.8378C42.9996 24.7448 43.3763 24.6978 43.7509 24.6978C44.2352 24.6978 44.6814 24.7386 45.0889 24.8214C45.4962 24.9041 45.8566 25.0472 46.1698 25.2495C46.4841 25.4529 46.7338 25.7277 46.9212 26.0731C47.1085 26.4194 47.2181 26.8506 47.2518 27.3666H45.8484C45.8258 27.0917 45.7542 26.8639 45.6335 26.683C45.5116 26.5022 45.358 26.3561 45.1707 26.2468C44.9834 26.1374 44.7766 26.0578 44.5514 26.0077C44.3252 25.9586 44.0979 25.933 43.8666 25.933C43.6578 25.933 43.4459 25.9494 43.231 25.9821C43.016 26.0148 42.8204 26.0731 42.6444 26.1548C42.4683 26.2376 42.325 26.3469 42.2154 26.4848C42.1049 26.6217 42.0507 26.8006 42.0507 27.0202C42.0507 27.2624 42.1356 27.4626 42.3066 27.6221C42.4775 27.7814 42.6945 27.9132 42.9587 28.0174C43.2228 28.1217 43.5196 28.2096 43.8503 28.2811C44.1809 28.3526 44.5105 28.4272 44.8411 28.5038C45.1933 28.5804 45.5372 28.6744 45.8729 28.7838C46.2087 28.8942 46.5056 29.0392 46.7645 29.2201C47.0225 29.4009 47.2324 29.6298 47.392 29.9036C47.5517 30.1785 47.6316 30.5187 47.6316 30.9254C47.6316 31.4424 47.5241 31.8705 47.3102 32.2108C47.0952 32.551 46.8148 32.8258 46.4677 33.0343C46.1207 33.2428 45.7307 33.3888 45.2957 33.4706C44.8605 33.5534 44.4286 33.5942 43.9997 33.5942C43.5267 33.5942 43.0753 33.5452 42.6454 33.4461C42.2165 33.347 41.8357 33.1855 41.5061 32.9597C41.1754 32.735 40.9113 32.4376 40.7137 32.0698C40.5152 31.7019 40.4057 31.2534 40.3831 30.7262H41.7866C41.7958 31.0357 41.8674 31.2963 41.9995 31.5108Z" fill="white"/>
<path d="M65.6722 33.3805C65.4296 33.5235 65.0949 33.5951 64.6649 33.5951C64.3016 33.5951 64.0129 33.4939 63.7979 33.2906C63.583 33.0873 63.4765 32.7552 63.4765 32.2934C63.0916 32.7552 62.6422 33.0873 62.1304 33.2906C61.6186 33.4939 61.0658 33.5951 60.471 33.5951C60.0861 33.5951 59.7197 33.5512 59.3737 33.4633C59.0267 33.3754 58.7267 33.2385 58.4739 33.0515C58.221 32.8645 58.0194 32.6203 57.871 32.3179C57.7225 32.0154 57.6478 31.6507 57.6478 31.2225C57.6478 30.7393 57.7307 30.3439 57.8956 30.0363C58.0603 29.7288 58.2784 29.4784 58.5476 29.2863C58.8168 29.0942 59.125 28.9481 59.472 28.85C59.819 28.7509 60.1742 28.6692 60.5365 28.6028C60.9214 28.5262 61.2879 28.4679 61.6349 28.4301C61.9819 28.3913 62.287 28.3371 62.5511 28.2656C62.8152 28.194 63.024 28.0898 63.1786 27.9529C63.3321 27.816 63.4099 27.6147 63.4099 27.3511C63.4099 27.0435 63.3516 26.7963 63.2369 26.6093C63.1213 26.4223 62.9729 26.2793 62.7906 26.1812C62.6094 26.0821 62.4057 26.0167 62.1795 25.983C61.9533 25.9503 61.7312 25.9339 61.5111 25.9339C60.9164 25.9339 60.4219 26.0463 60.0258 26.2721C59.6296 26.4979 59.4147 26.923 59.3819 27.5494H57.9785C58 27.0221 58.1105 26.5766 58.3091 26.2149C58.5077 25.8522 58.7718 25.5589 59.1014 25.3331C59.432 25.1083 59.8088 24.9459 60.2326 24.8468C60.6563 24.7477 61.1098 24.6986 61.595 24.6986C61.9799 24.6986 62.3628 24.7262 62.7425 24.7814C63.1223 24.8366 63.4662 24.949 63.7743 25.1186C64.0825 25.2882 64.3302 25.5273 64.5175 25.8338C64.7049 26.1404 64.798 26.5409 64.798 27.0344V31.4085C64.798 31.7375 64.8175 31.9787 64.8564 32.1319C64.8953 32.2852 65.0243 32.3618 65.2443 32.3618C65.3651 32.3618 65.5084 32.3404 65.6733 32.2954V33.3805H65.6722ZM63.3936 29.0135C63.2175 29.1453 62.9861 29.2403 62.7006 29.3006C62.4139 29.3609 62.114 29.41 61.8008 29.4478C61.4876 29.4866 61.1702 29.5295 60.8519 29.5795C60.5325 29.6286 60.2458 29.7083 59.993 29.8176C59.7401 29.927 59.5334 30.0823 59.3737 30.2846C59.214 30.4869 59.1342 30.7627 59.1342 31.1133C59.1342 31.3431 59.1813 31.5373 59.2744 31.6956C59.3676 31.854 59.4894 31.9827 59.6378 32.0809C59.7862 32.1789 59.9603 32.2504 60.1578 32.2944C60.3564 32.3383 60.5652 32.3598 60.7853 32.3598C61.248 32.3598 61.6441 32.2975 61.9737 32.1718C62.3044 32.0461 62.5736 31.8877 62.7825 31.6966C62.9913 31.5056 63.1458 31.2972 63.2451 31.0734C63.3444 30.8496 63.3936 30.6391 63.3936 30.4419V29.0135Z" fill="white"/>
<path d="M77.6571 26.3756C77.3049 26.0793 76.832 25.9302 76.2373 25.9302C75.7306 25.9302 75.3067 26.0241 74.9659 26.2101C74.6251 26.3971 74.3517 26.6443 74.149 26.9519C73.9453 27.2594 73.8 27.614 73.7119 28.0146C73.6239 28.4161 73.5798 28.8299 73.5798 29.259C73.5798 29.6545 73.6269 30.0397 73.7201 30.4126C73.8133 30.7866 73.9597 31.1186 74.1572 31.4098C74.3558 31.7011 74.6138 31.934 74.9331 32.1098C75.2525 32.2855 75.6323 32.3734 76.0725 32.3734C76.7655 32.3734 77.308 32.1925 77.699 31.8298C78.0901 31.4671 78.3286 30.9562 78.4177 30.2971H79.8538C79.6993 31.3516 79.3062 32.1649 78.6735 32.7361C78.041 33.3073 77.179 33.5934 76.0899 33.5934C75.4399 33.5934 74.8656 33.4891 74.364 33.2807C73.8634 33.0722 73.4448 32.7749 73.109 32.3907C72.7732 32.0065 72.5204 31.5478 72.3494 31.0144C72.1785 30.4811 72.0935 29.8966 72.0935 29.259C72.0935 28.6215 72.1765 28.0258 72.3412 27.471C72.5061 26.9162 72.7569 26.4329 73.0926 26.0211C73.4284 25.6093 73.8491 25.2854 74.3558 25.0484C74.8625 24.8123 75.4511 24.6938 76.1226 24.6938C76.6068 24.6938 77.0613 24.752 77.4851 24.8665C77.9089 24.982 78.2825 25.1608 78.608 25.4019C78.9326 25.644 79.1997 25.9486 79.4086 26.3164C79.6174 26.6852 79.7494 27.1215 79.8047 27.6263H78.3511C78.2405 27.0909 78.0092 26.673 77.6571 26.3756Z" fill="white"/>
<path d="M68.4051 24.8408H66.8307V33.4502H68.4051V24.8408Z" fill="white"/>
<path d="M69.9809 26.4136H68.4061V27.9854H69.9809V26.4136Z" fill="white"/>
<path d="M71.9657 24.8408H69.9816V26.4126H71.9657V24.8408Z" fill="white"/>
<path d="M22.4496 23.2092H20.8834V33.4125H22.4496V23.2092Z" fill="white"/>
<path d="M30.0108 23.2092H28.4446V27.0684H30.0108V23.2092Z" fill="white"/>
<path d="M28.4451 21.646H22.4496V23.2093H28.4451V21.646Z" fill="white"/>
<path d="M28.4451 27.0679H22.4496V28.6322H28.4451V27.0679Z" fill="white"/>
<path d="M30.0108 33.4136H28.4446V28.6328L30.0108 28.6338V33.4136Z" fill="white"/>
<path d="M82.9433 21.5509H81.3689V33.4769H82.9433V21.5509Z" fill="white"/>
<path d="M88.5458 26.6577H86.9714V33.477H88.5458V26.6577Z" fill="white"/>
<path d="M84.5189 26.6577H82.9443V28.2295H84.5189V26.6577Z" fill="white"/>
<path d="M86.9966 25.0859H84.5184V26.6574H86.9966V25.0859Z" fill="white"/>
<path d="M55.1619 32.8696C54.5232 33.3529 53.7196 33.5951 52.7512 33.5951C52.0684 33.5951 51.4768 33.4847 50.9762 33.265C50.4756 33.0453 50.0539 32.7378 49.713 32.3424C49.3721 31.947 49.1162 31.4749 48.9453 30.9252C48.7743 30.3755 48.6781 29.7777 48.6566 29.1289C48.6566 28.4811 48.7559 27.8875 48.9535 27.349C49.152 26.8106 49.4295 26.3436 49.7878 25.9482C50.145 25.5528 50.5688 25.2452 51.0591 25.0256C51.5484 24.8059 52.0859 24.6956 52.6693 24.6956C53.4289 24.6956 54.0584 24.8519 54.56 25.1655C55.0606 25.4792 55.4618 25.8767 55.7648 26.36C56.0678 26.8433 56.2766 27.3715 56.3923 27.9427C56.508 28.5138 56.5541 29.0574 56.5326 29.5745H50.143C50.1317 29.9484 50.1757 30.3019 50.275 30.6371C50.3743 30.9722 50.5339 31.2696 50.7541 31.527C50.9741 31.7855 51.2546 31.9909 51.5965 32.1452C51.9374 32.2995 52.3397 32.3761 52.8014 32.3761C53.3961 32.3761 53.8833 32.2392 54.2621 31.9643C54.6419 31.6895 54.8917 31.2716 55.0135 30.7116H56.4005C56.2132 31.667 55.8007 32.3863 55.1619 32.8696ZM54.8241 27.3981C54.6972 27.1018 54.5272 26.8463 54.3123 26.6318C54.0973 26.4172 53.8444 26.2476 53.5527 26.1209C53.261 25.9952 52.9386 25.9319 52.5874 25.9319C52.224 25.9319 51.8965 25.9952 51.6047 26.1209C51.313 26.2476 51.0622 26.4203 50.8533 26.6399C50.6445 26.8596 50.4787 27.115 50.3579 27.4063C50.2361 27.6975 50.1655 28.0081 50.143 28.3371H55.0462C55.0247 28.0081 54.95 27.6954 54.8241 27.3981Z" fill="white"/>
</g>
</svg>
