<svg width="100%" viewBox="0 0 109 40" fill="none" xmlns="http://www.w3.org/2000/svg">
<g clip-path="url(#clip0_422_6572)">
<g clip-path="url(#clip1_422_6572)">
<path d="M12.9918 27.8901V11.9781C16.3888 12.9912 18.8917 16.1498 18.8917 19.9043C18.8917 23.6588 16.3888 26.8174 12.9918 27.8901ZM10.608 9.29633V18.2357L9.23727 16.865L9.05852 13.468L10.4888 9.29633C9.59486 9.29633 8.70094 9.41552 7.86661 9.6539L7.21103 11.6801L5.30399 10.7266C4.52926 11.2034 3.8141 11.6801 3.15856 12.3357L6.73429 14.1235L6.85349 16.1498L4.82725 16.0306L3.03937 12.4549C2.44341 13.1104 1.90705 13.766 1.43029 14.5407L2.38382 16.4478L0.357573 17.1033C0.119191 17.9377 0 18.8316 0 19.7255L4.23127 18.2952L7.62822 18.474L8.99892 19.8447L7.62822 21.2154L4.23127 21.3942L0 20.0235C0 20.9174 0.119191 21.8114 0.357573 22.6457L2.38382 23.3013L1.43029 25.2083C1.84746 25.983 2.38382 26.6982 3.03937 27.2941L4.82725 23.7184L6.85349 23.5992L6.73429 25.6255L3.15856 27.4133C3.8141 28.0093 4.46966 28.5456 5.24439 29.0224L7.15144 28.0689L7.80701 30.0951C8.64134 30.3335 9.53526 30.4527 10.4292 30.4527L8.99892 26.2214L9.17768 22.8245L10.5484 21.4538V30.4527C16.4483 30.4527 21.216 25.6851 21.216 19.7851C21.216 13.8852 16.5079 9.29633 10.608 9.29633Z" fill="white"/>
<path fill-rule="evenodd" clip-rule="evenodd" d="M53.9936 12.8721C52.9206 12.8721 52.0863 13.17 51.4903 13.766C50.8943 14.3619 50.5963 15.1367 50.5963 16.1498V17.0438H48.8681V18.5336H50.5963V27.175H52.4439V18.5932H55.3641V17.0438H52.3843V16.1498C52.3843 15.5539 52.5036 15.1367 52.8016 14.8387C53.0996 14.5407 53.5165 14.3619 54.0532 14.3619C54.2916 14.3619 54.5895 14.4215 54.8278 14.4811C55.0662 14.5407 55.3045 14.6599 55.4835 14.8387L56.0795 13.468C55.8408 13.2892 55.5428 13.1104 55.1258 12.9913C54.7682 12.9317 54.4105 12.8721 53.9936 12.8721ZM34.4462 18.5932C34.0886 18.1761 33.6714 17.7589 33.1947 17.5205C32.4795 17.1629 31.7048 16.9246 30.8704 16.9246C29.8573 16.9246 29.023 17.1629 28.2483 17.5801C27.4735 17.9973 26.8776 18.5932 26.4008 19.3679C25.924 20.1427 25.7452 21.0366 25.7452 22.1094C25.7452 23.1225 25.9836 24.076 26.4008 24.8507C26.8776 25.6255 27.4735 26.2214 28.2483 26.6982C29.023 27.1154 29.9169 27.3538 30.8704 27.3538C31.7644 27.3538 32.5391 27.175 33.2543 26.7578C33.731 26.4598 34.1482 26.1022 34.5058 25.6255V27.2346H36.2936V12.9913H34.4462V18.5932ZM34.029 24.0164C33.731 24.5528 33.3139 24.9699 32.7775 25.2679C32.2411 25.5659 31.7048 25.6851 31.0492 25.6851C30.3937 25.6851 29.7977 25.5659 29.321 25.2679C28.7846 24.9699 28.4271 24.5528 28.0695 24.0164C27.7715 23.4801 27.5927 22.8245 27.5927 22.1094C27.5927 21.3942 27.7715 20.7387 28.0695 20.2023C28.3675 19.6659 28.7846 19.2488 29.321 18.9508C29.8573 18.6528 30.3937 18.5336 31.0492 18.5336C31.7048 18.5336 32.2411 18.6528 32.7775 18.9508C33.3139 19.2488 33.731 19.6659 34.029 20.2023C34.327 20.7387 34.5058 21.3346 34.5058 22.1094C34.5058 22.8841 34.327 23.4801 34.029 24.0164ZM46.0076 17.6397C45.2329 17.2225 44.3987 16.9842 43.3853 16.9842C42.4321 16.9842 41.5381 17.2225 40.7633 17.6397C39.9886 18.0569 39.3926 18.7124 38.9158 19.4871C38.4987 20.2619 38.2603 21.1558 38.2603 22.169C38.2603 23.1821 38.4987 24.076 38.9158 24.8507C39.3926 25.6255 39.9886 26.2214 40.8229 26.6982C41.6571 27.175 42.6107 27.3538 43.6833 27.3538C44.5176 27.3538 45.2926 27.2346 45.9483 26.9366C46.6035 26.6386 47.1995 26.2214 47.6765 25.6851L46.6632 24.4932C46.3055 24.9103 45.8886 25.2083 45.3523 25.3871C44.8753 25.5659 44.339 25.6851 43.6833 25.6851C42.9684 25.6851 42.3127 25.5659 41.7764 25.2679C41.2401 24.9699 40.7633 24.5528 40.4653 24.0164C40.2269 23.5992 40.1077 23.1821 40.0482 22.7053H48.2721V22.4074V22.1094C48.2721 21.0366 48.0338 20.1427 47.6169 19.3679C47.3785 18.6528 46.7826 18.0569 46.0076 17.6397ZM41.7168 18.9508C42.1934 18.6528 42.7894 18.5336 43.445 18.5336C44.1007 18.5336 44.6967 18.6528 45.1733 18.9508C45.6503 19.2488 46.0672 19.6659 46.3055 20.1427C46.5438 20.5599 46.6632 20.977 46.6632 21.4538H40.1077C40.1673 20.977 40.2865 20.5599 40.5249 20.2023C40.8229 19.6659 41.1805 19.2488 41.7168 18.9508ZM57.1521 17.0438H58.9993V27.175H57.1521V17.0438ZM66.3893 18.5932C65.7336 18.5932 65.1377 18.7124 64.6014 19.0104C64.0651 19.3084 63.6477 19.7255 63.3497 20.2619C63.0522 20.7983 62.8731 21.4538 62.8731 22.169C62.8731 22.8841 63.0522 23.5396 63.3497 24.076C63.6477 24.6123 64.0651 25.0295 64.6014 25.3275C65.1377 25.6255 65.7336 25.7447 66.3893 25.7447C66.9256 25.7447 67.4619 25.6255 67.9389 25.3871C68.4155 25.2083 68.7732 24.7911 69.1309 24.3144L70.5015 25.2083C70.0841 25.9234 69.5478 26.4598 68.8329 26.8174C68.1176 27.175 67.2833 27.3538 66.3893 27.3538C65.376 27.3538 64.4824 27.175 63.6477 26.6982C62.8134 26.2214 62.2175 25.6255 61.7408 24.8507C61.2642 24.076 61.0255 23.1821 61.0255 22.169C61.0255 21.1558 61.2642 20.2619 61.7408 19.4871C62.2175 18.7124 62.8134 18.0569 63.6477 17.6397C64.4228 17.2225 65.376 16.9842 66.3893 16.9842C67.2833 16.9842 68.1176 17.1629 68.8329 17.5205C69.5478 17.8781 70.0841 18.4144 70.5015 19.1296L69.1309 20.0235C68.8329 19.5467 68.4155 19.1892 67.9389 18.9508C67.4619 18.7124 66.9256 18.5932 66.3893 18.5932ZM79.7387 17.4609C79.083 17.1629 78.3681 16.9842 77.5338 16.9842C76.6399 16.9842 75.8056 17.1629 75.0902 17.5205C74.6136 17.7589 74.256 18.1165 73.8983 18.5336V12.9913H72.0507V27.2346H73.8983V21.9902C73.8983 21.275 74.0176 20.6195 74.3156 20.1427C74.5539 19.6659 74.9709 19.2488 75.4479 19.0104C75.9245 18.772 76.5205 18.6528 77.1762 18.6528C78.0701 18.6528 78.7254 18.8912 79.2024 19.4275C79.679 19.9043 79.9173 20.6791 79.9173 21.6326V27.2942H81.7649V21.4538C81.7649 20.4407 81.5863 19.6063 81.2286 19.0104C80.8113 18.2356 80.3347 17.7589 79.7387 17.4609ZM85.6981 17.3417C86.4731 17.1033 87.188 16.9842 88.0223 16.9842C89.4525 16.9842 90.5256 17.2821 91.1215 17.9973C91.8961 18.6528 92.2538 19.7255 92.2538 21.0962V27.2346H90.5256V25.8639C90.2872 26.281 89.9296 26.579 89.5122 26.8174C88.9163 27.175 88.1416 27.3538 87.188 27.3538C86.4731 27.3538 85.8174 27.2346 85.2214 26.9962C84.6255 26.7578 84.2085 26.4002 83.9105 25.9234C83.6126 25.4467 83.4335 24.9699 83.4335 24.374C83.4335 23.8376 83.6126 23.3609 83.8509 22.8841C84.1488 22.4669 84.5658 22.1094 85.1618 21.8114C85.7577 21.5134 86.5328 21.3942 87.5457 21.3942H90.4659V21.0366C90.4659 20.2619 90.2872 19.6659 89.8102 19.2488C89.3933 18.8316 88.6779 18.5932 87.784 18.5932C87.188 18.5932 86.592 18.7124 85.996 18.8912C85.4597 19.07 84.9831 19.3084 84.5658 19.6659L83.7912 18.2952C84.3275 17.8781 84.9831 17.5801 85.6981 17.3417ZM87.665 25.9234C88.3203 25.9234 88.9163 25.7447 89.4526 25.4467C89.9296 25.1487 90.2872 24.6719 90.5852 24.076V22.6457H87.7243C86.8303 22.6457 86.1751 22.8245 85.8771 23.1225C85.5791 23.4205 85.4001 23.8376 85.4001 24.2548C85.4001 24.7315 85.5791 25.1487 85.996 25.4467C86.4134 25.7447 86.9497 25.9234 87.665 25.9234ZM96.7829 17.0438H94.9357V27.175H96.7829V17.0438ZM106.974 17.4609C107.629 17.7589 108.106 18.2356 108.464 18.8912C108.821 19.5467 109 20.3811 109 21.3942V27.2346H107.152V21.573C107.152 20.6195 106.914 19.8447 106.437 19.3679C105.961 18.8316 105.305 18.5932 104.411 18.5932C103.756 18.5932 103.16 18.7124 102.683 18.9508C102.206 19.1892 101.789 19.6063 101.551 20.0831C101.253 20.5599 101.133 21.2154 101.133 21.9306V27.175H99.2862V17.0438H101.074V18.5932C101.372 18.176 101.789 17.8185 102.325 17.5205C103.041 17.1629 103.875 16.9842 104.769 16.9842C105.603 16.9842 106.318 17.1629 106.974 17.4609Z" fill="white"/>
</g>
</g>
<defs>
<clipPath id="clip0_422_6572">
<rect width="108.957" height="39.9509" fill="white"/>
</clipPath>
<clipPath id="clip1_422_6572">
<rect width="109" height="21.5513" fill="white" transform="translate(0 9.09888)"/>
</clipPath>
</defs>
</svg>
