<svg width="100%" viewBox="0 0 109 40" fill="none" xmlns="http://www.w3.org/2000/svg">
<path fill-rule="evenodd" clip-rule="evenodd" d="M42.4878 16.9278C42.4082 19.6763 41.2554 22.2843 39.2763 24.1932C37.2972 26.102 34.6493 27.1599 31.8997 27.1402H27.2968C27.1819 27.1402 27.0717 27.0946 26.9904 27.0134C26.909 26.9322 26.8632 26.8221 26.863 26.7071V23.6767C26.8632 23.5618 26.909 23.4517 26.9904 23.3705C27.0717 23.2893 27.1819 23.2437 27.2968 23.2437H31.9356C33.6455 23.2587 35.2943 22.6088 36.5339 21.4311C37.7736 20.2534 38.5072 18.64 38.5799 16.9317C38.6036 16.0624 38.4527 15.1973 38.1362 14.3874C37.8196 13.5775 37.3439 12.8393 36.7371 12.2165C36.1303 11.5936 35.4048 11.0988 34.6034 10.7613C33.802 10.4238 32.9411 10.2505 32.0715 10.2515H27.2984C27.1834 10.2515 27.0732 10.2059 26.9919 10.1247C26.9106 10.0435 26.8648 9.93338 26.8646 9.81847V6.7896C26.8648 6.67481 26.9105 6.56479 26.9916 6.48363C27.0728 6.40246 27.1828 6.35678 27.2976 6.35657H32.0715C33.453 6.35498 34.8209 6.62847 36.0955 7.1611C37.3701 7.69372 38.5259 8.47482 39.4955 9.45883C40.4651 10.4428 41.229 11.6101 41.7428 12.8924C42.2565 14.1748 42.5098 15.5466 42.4878 16.9278ZM48.5974 11.5521H45.493C45.387 11.5521 45.2853 11.5941 45.2103 11.669C45.1352 11.7439 45.093 11.8455 45.0928 11.9515V26.7415C45.0929 26.794 45.1033 26.8459 45.1235 26.8943C45.1436 26.9427 45.1731 26.9867 45.2103 27.0237C45.2475 27.0607 45.2916 27.0901 45.3401 27.11C45.3885 27.13 45.4405 27.1403 45.493 27.1402H48.599C48.6514 27.1403 48.7034 27.13 48.7519 27.11C48.8004 27.0901 48.8445 27.0607 48.8816 27.0237C48.9188 26.9867 48.9483 26.9427 48.9685 26.8943C48.9886 26.8459 48.9991 26.794 48.9992 26.7415V11.9507C48.9989 11.8447 48.9567 11.7432 48.8817 11.6683C48.8066 11.5934 48.705 11.5513 48.599 11.5513" fill="white"/>
<path fill-rule="evenodd" clip-rule="evenodd" d="M30.3685 11.5521H27.2632C27.1572 11.5521 27.0555 11.5942 26.9805 11.6691C26.9055 11.7439 26.8632 11.8455 26.863 11.9515V21.5445C26.863 21.597 26.8734 21.649 26.8935 21.6975C26.9136 21.746 26.9431 21.7901 26.9803 21.8272C27.0175 21.8643 27.0616 21.8937 27.1101 21.9137C27.1587 21.9338 27.2107 21.944 27.2632 21.9439H30.3685C30.421 21.944 30.4731 21.9338 30.5217 21.9137C30.5703 21.8937 30.6144 21.8643 30.6517 21.8272C30.6889 21.7902 30.7185 21.7461 30.7387 21.6976C30.7589 21.6491 30.7693 21.5971 30.7694 21.5445V11.9515C30.7693 11.899 30.7589 11.847 30.7387 11.7985C30.7185 11.7499 30.6889 11.7059 30.6517 11.6688C30.6144 11.6317 30.5703 11.6023 30.5217 11.5823C30.4731 11.5623 30.421 11.552 30.3685 11.5521Z" fill="white"/>
<path fill-rule="evenodd" clip-rule="evenodd" d="M23.6074 15.1996V18.298C23.6074 18.3505 23.6177 18.4025 23.6378 18.451C23.658 18.4995 23.6874 18.5436 23.7246 18.5807C23.7618 18.6178 23.8059 18.6472 23.8545 18.6672C23.903 18.6872 23.955 18.6975 24.0075 18.6974H33.6242C33.7302 18.6974 33.8318 18.6553 33.9069 18.5804C33.9819 18.5056 34.0242 18.404 34.0244 18.298V15.1996C34.0242 15.0936 33.9819 14.992 33.9069 14.9171C33.8318 14.8422 33.7302 14.8002 33.6242 14.8002H24.0075C23.9015 14.8002 23.7999 14.8422 23.7248 14.9171C23.6498 14.992 23.6076 15.0936 23.6074 15.1996ZM48.9999 8.30482C49.0008 8.6914 48.887 9.06955 48.6729 9.39141C48.4588 9.71328 48.154 9.96439 47.7971 10.1129C47.4403 10.2615 47.0473 10.3009 46.6681 10.226C46.2888 10.1511 45.9403 9.96544 45.6666 9.69241C45.3929 9.41938 45.2064 9.0713 45.1307 8.69222C45.0549 8.31314 45.0933 7.9201 45.2411 7.56287C45.3888 7.20563 45.6392 6.90026 45.9605 6.68539C46.2819 6.47053 46.6598 6.35584 47.0464 6.35584C47.3025 6.35544 47.5562 6.40549 47.793 6.50314C48.0298 6.60079 48.2451 6.74413 48.4265 6.92497C48.6079 7.10581 48.7519 7.32061 48.8503 7.5571C48.9487 7.79359 48.9995 8.04715 48.9999 8.3033M59.4169 23.2415C58.6469 23.2398 57.8947 23.0099 57.2553 22.581C56.6159 22.152 56.118 21.5431 55.8245 20.8312C55.531 20.1194 55.455 19.3365 55.6063 18.5815C55.7575 17.8266 56.1291 17.1333 56.6742 16.5895C57.2192 16.0456 57.9132 15.6755 58.6685 15.5259C59.4239 15.3762 60.2066 15.4539 60.9178 15.7489C61.629 16.044 62.2368 16.5432 62.6644 17.1835C63.092 17.8238 63.3202 18.5765 63.3202 19.3465C63.3182 20.3809 62.9056 21.3721 62.1732 22.1025C61.4407 22.8328 60.4482 23.2425 59.4139 23.2415M63.6433 11.8179L63.3202 12.5953C62.1354 11.9121 60.7916 11.5527 59.4239 11.5533C58.0562 11.5538 56.7127 11.9143 55.5284 12.5984C54.3441 13.2826 53.3607 14.2664 52.677 15.451C51.9933 16.6356 51.6333 17.9792 51.6333 19.3469C51.6333 20.7146 51.9933 22.0583 52.677 23.2428C53.3607 24.4274 54.3441 25.4112 55.5284 26.0954C56.7127 26.7796 58.0562 27.14 59.4239 27.1406C60.7916 27.1411 62.1354 26.7817 63.3202 26.0985L63.6425 26.8737C63.6756 26.9527 63.7313 27.0202 63.8026 27.0677C63.874 27.1151 63.9578 27.1403 64.0435 27.1402H66.7928C66.9078 27.1402 67.0181 27.0946 67.0996 27.0135C67.181 26.9323 67.227 26.8221 67.2274 26.7072V11.9859C67.2274 11.8709 67.1817 11.7605 67.1003 11.6792C67.019 11.5978 66.9086 11.5521 66.7936 11.5521H64.0442C63.9586 11.5521 63.8748 11.5774 63.8035 11.6248C63.7321 11.6722 63.6764 11.7389 63.6433 11.8179ZM81.5393 19.6849C81.4668 20.4207 81.1869 21.1209 80.7323 21.704C80.2777 22.2871 79.6669 22.7293 78.9709 22.9791C78.275 23.2289 77.5224 23.2761 76.8007 23.1152C76.079 22.9542 75.4178 22.5919 74.8939 22.0701C74.37 21.5483 74.0049 20.8886 73.841 20.1675C73.6771 19.4465 73.7212 18.6938 73.9682 17.9968C74.2151 17.2999 74.6547 16.6873 75.236 16.2302C75.8173 15.7732 76.5163 15.4905 77.2518 15.415C77.8276 15.3571 78.4091 15.4276 78.9544 15.6214C79.4997 15.8153 79.9952 16.1277 80.4053 16.536C80.8153 16.9444 81.1297 17.4386 81.3258 17.9831C81.5219 18.5276 81.5948 19.1088 81.5393 19.6849ZM85.031 11.4994H82.2816C82.1961 11.4994 82.1126 11.5246 82.0414 11.5719C81.9702 11.6191 81.9145 11.6864 81.8814 11.7652L81.5622 12.5419C80.3774 11.8575 79.0335 11.497 77.6653 11.4966C76.2971 11.4962 74.9528 11.8558 73.7677 12.5395C72.5825 13.2231 71.5981 14.2065 70.9134 15.3911C70.2286 16.5756 69.8677 17.9195 69.8669 19.2877C69.866 20.6559 70.2253 22.0002 70.9085 23.1856C71.5918 24.371 72.5749 25.3557 73.7593 26.0408C74.9436 26.7259 76.2874 27.0872 77.6556 27.0885C79.0238 27.0898 80.3682 26.731 81.5538 26.0481C81.4957 27.0134 81.0777 27.9218 80.3825 28.5939C79.6873 29.2661 78.7653 29.6532 77.7986 29.6788C77.0487 29.6879 76.2987 29.6917 75.5488 29.6902C75.4671 29.69 75.3874 29.7149 75.3203 29.7614C75.2532 29.808 75.2021 29.8741 75.1738 29.9506L74.0122 33.0605C73.9903 33.1212 73.9835 33.1864 73.9924 33.2504C74.0012 33.3144 74.0254 33.3753 74.063 33.4278C74.1005 33.4804 74.1503 33.5231 74.2079 33.5522C74.2656 33.5813 74.3294 33.596 74.394 33.5951L77.6566 33.5744C79.5055 33.6603 81.32 33.0532 82.745 31.872C84.1701 30.6907 85.1031 29.0203 85.3617 27.1875C85.4321 26.7591 85.4676 26.3257 85.4678 25.8915V11.9309C85.4674 11.8161 85.4216 11.706 85.3403 11.6249C85.259 11.5438 85.1489 11.4981 85.034 11.4979" fill="white"/>
</svg>
