<svg width="100%" viewBox="0 0 109 40" fill="none" xmlns="http://www.w3.org/2000/svg">
<path d="M63.218 20.2529L60.3501 13.495H58.0915L62.1572 22.7258L60.1931 27.4065H62.3528L68.1488 13.495H65.9282L63.218 20.2529ZM80.2862 13.3007C78.8319 13.3007 77.6341 13.9817 76.9675 15.0533C76.3969 13.9616 75.2974 13.3007 73.7262 13.3007C72.4682 13.3007 71.4668 13.8068 70.8389 14.6655V13.4957H68.7566V23.2297H70.8583V17.8194C70.8583 16.0267 71.8783 15.1113 73.2538 15.1113C74.6687 15.1113 75.4744 16.0073 75.4744 17.4295V23.2333H77.5933V17.7413C77.5933 16.0066 78.6154 15.1106 79.9321 15.1106C81.4001 15.1106 82.2094 16.0661 82.2094 17.5262V23.2333H84.3504V17.39C84.3512 14.8977 82.9577 13.3007 80.2862 13.3007ZM55.4831 10.0487L53.3585 11.197V13.4957H51.6884V15.3651H53.3578V19.258C53.3578 22.2972 54.261 23.2312 57.2464 23.2312H57.5618V21.2672C55.7555 21.2672 55.4788 20.9941 55.4788 19.2415V15.3651H57.5611V13.4957H55.4824L55.4831 10.0487ZM95.3338 18.3054C95.3338 15.4045 93.1534 13.3022 90.2661 13.3022C87.3789 13.3022 85.1798 15.5414 85.1798 18.4043C85.1798 21.169 87.1438 23.429 90.2468 23.429C92.7606 23.429 94.4314 22.1044 95.1769 19.9626H92.9183C92.5448 20.9747 91.6216 21.6177 90.2661 21.6177C88.5387 21.6177 87.4219 20.526 87.1832 19.0265H95.3338V18.3054ZM87.3215 17.2732C87.5203 16.6487 87.9158 16.1052 88.4491 15.7242C88.9846 15.3414 89.6287 15.1404 90.2869 15.1508C91.7606 15.1508 92.8416 15.9106 93.1942 17.2725H87.3215V17.2732ZM30.1983 9.52396C30.2054 9.51588 30.2107 9.50647 30.2141 9.49628C30.2174 9.4861 30.2187 9.47534 30.2178 9.46465C30.217 9.45396 30.214 9.44355 30.209 9.43404C30.2041 9.42453 30.1972 9.41611 30.189 9.40927C28.4508 7.9972 26.0925 7.32556 23.707 7.32556C17.8774 7.32484 13.6196 11.6535 13.6196 17.1908C13.6196 22.7294 17.8774 27.0595 23.7622 27.0595C28.3891 27.0595 32.3078 24.5121 33.1773 19.3798C33.2117 19.1806 33.2396 18.977 33.2647 18.7706V18.7491L33.2841 18.572C33.2841 18.5555 33.2841 18.539 33.2884 18.5226L33.3042 18.3591V18.2932L33.3156 18.1376L33.3214 18.0609C33.3214 18.0115 33.3285 17.9613 33.33 17.9111C33.33 17.881 33.33 17.8516 33.3343 17.8201C33.3343 17.7728 33.3386 17.7298 33.3407 17.6796V16.6245C33.3407 16.5614 33.3364 16.4976 33.3335 16.4331V16.3722C33.3335 16.3012 33.3264 16.2303 33.3214 16.1593V16.1163C33.3171 16.0339 33.3106 15.95 33.3042 15.8654V15.8582C33.297 15.7586 33.2877 15.659 33.2783 15.5586C33.2714 15.4875 33.2381 15.4216 33.1851 15.3737C33.1321 15.3259 33.0631 15.2995 32.9916 15.2999H23.9558C23.8991 15.3 23.8438 15.3168 23.7967 15.3482C23.7495 15.3795 23.7126 15.424 23.6905 15.4762C23.6755 15.5106 23.6683 15.5479 23.6683 15.5851V18.7627C23.6683 18.815 23.6898 18.8652 23.7271 18.9017C23.7644 18.939 23.8146 18.9598 23.8676 18.9605H29.1883C28.7547 21.5983 26.8831 23.2899 23.7644 23.2899C20.0227 23.2899 17.5821 20.6005 17.5821 17.1857C17.5821 14.9945 18.5913 13.1595 20.2844 12.0908C20.2844 12.0908 20.3904 12.0191 20.5876 11.9137C21.1693 11.5953 21.796 11.3669 22.4462 11.2364C23.9056 10.9188 26.0825 11.002 28.3182 12.4105C28.3378 12.4221 28.3598 12.4292 28.3826 12.4314C28.4053 12.4336 28.4283 12.4307 28.4498 12.4231C28.4713 12.4154 28.4909 12.4031 28.5072 12.3871C28.5234 12.371 28.536 12.3516 28.5439 12.3302C28.7848 11.8055 29.4679 10.4221 30.199 9.52253L30.1983 9.52396ZM50.5114 18.4588L46.7067 17.9592C46.6883 17.9573 46.6698 17.9624 46.6551 17.9736C46.6403 17.9848 46.6303 18.0011 46.6272 18.0194C46.5985 18.2158 46.5591 18.41 46.5103 18.6028C46.5057 18.6208 46.5084 18.6398 46.5178 18.6558C46.5272 18.6718 46.5426 18.6834 46.5605 18.6881L50.2735 19.6587C50.2825 19.661 50.2918 19.6616 50.301 19.6603C50.3102 19.659 50.3191 19.6559 50.3271 19.6512C50.3351 19.6465 50.3421 19.6402 50.3476 19.6327C50.3532 19.6253 50.3572 19.6168 50.3595 19.6078C50.4505 19.2558 50.5222 18.8982 50.5731 18.539C50.5745 18.5297 50.5739 18.5202 50.5714 18.511C50.569 18.5019 50.5647 18.4934 50.5588 18.486C50.5472 18.471 50.5302 18.4612 50.5114 18.4588ZM46.3139 15.0848C46.3505 15.1816 46.3849 15.2784 46.4157 15.3758C46.4271 15.4111 46.4519 15.4405 46.4848 15.4575C46.5177 15.4746 46.556 15.4779 46.5913 15.4669L50.1416 14.4541C50.1695 14.4462 50.1944 14.4301 50.2129 14.4078C50.2315 14.3856 50.2428 14.3582 50.2455 14.3293C50.2471 14.3099 50.2447 14.2904 50.2383 14.272C50.171 14.0519 50.095 13.8319 50.009 13.6147C50.0023 13.5974 49.9923 13.5815 49.9795 13.5681C49.9667 13.5546 49.9514 13.5438 49.9344 13.5363C49.9174 13.5288 49.8991 13.5246 49.8805 13.5242C49.862 13.5238 49.8435 13.527 49.8262 13.5337L46.3971 14.8985C46.3702 14.9085 46.3469 14.9264 46.3303 14.9497C46.3137 14.9731 46.3045 15.001 46.3039 15.0296C46.3036 15.0485 46.307 15.0673 46.3139 15.0848ZM46.5834 16.0353C46.6099 16.1736 46.6322 16.3077 46.6494 16.451C46.6535 16.4815 46.6692 16.5091 46.6933 16.5282C46.7173 16.5473 46.7478 16.5564 46.7784 16.5535L50.5028 16.1901C50.5262 16.1879 50.5484 16.1789 50.5667 16.1641C50.5849 16.1493 50.5984 16.1294 50.6053 16.107C50.6097 16.0918 50.6109 16.076 50.6089 16.0604C50.5771 15.7761 50.5326 15.4934 50.4756 15.2131C50.4709 15.19 50.4592 15.1688 50.4422 15.1525C50.4252 15.1361 50.4036 15.1252 50.3803 15.1214C50.3649 15.1183 50.3491 15.1183 50.3337 15.1214L46.6752 15.8977C46.6449 15.9041 46.6184 15.9221 46.6012 15.9478C46.5841 15.9735 46.5777 16.0049 46.5834 16.0353ZM46.6888 16.9836C46.6938 17.1592 46.6909 17.3334 46.6795 17.5076C46.678 17.5204 46.6794 17.5333 46.6833 17.5456C46.6873 17.5578 46.6939 17.5691 46.7026 17.5786C46.7113 17.5881 46.7219 17.5956 46.7337 17.6007C46.7456 17.6057 46.7584 17.6082 46.7712 17.6079L50.5516 17.8925C50.5643 17.8933 50.577 17.8915 50.5891 17.8874C50.6011 17.8832 50.6122 17.8767 50.6217 17.8683C50.6313 17.8598 50.639 17.8496 50.6446 17.8381C50.6501 17.8266 50.6534 17.8142 50.6541 17.8015C50.6756 17.4682 50.6806 17.1349 50.6684 16.8008C50.6685 16.7818 50.6626 16.7633 50.6515 16.7478C50.6405 16.7324 50.6248 16.7208 50.6068 16.7148C50.5948 16.7106 50.5821 16.7089 50.5695 16.7098L46.7798 16.8926C46.7556 16.8928 46.7324 16.9026 46.7153 16.9198C46.6984 16.9367 46.6888 16.9597 46.6888 16.9836ZM50.1617 20.1275L46.4551 18.9691C46.4431 18.9657 46.4303 18.967 46.4192 18.9727C46.4082 18.9784 46.3997 18.9882 46.3956 18.9999C46.3248 19.2186 46.241 19.4328 46.1448 19.6415C46.1409 19.6498 46.1396 19.6591 46.141 19.6681C46.1424 19.6772 46.1465 19.6856 46.1526 19.6924C46.1568 19.6972 46.162 19.7011 46.1677 19.7038L49.6843 21.341C49.6958 21.3464 49.7089 21.347 49.7209 21.3427C49.7329 21.3384 49.7426 21.3295 49.7481 21.318C49.9194 20.9503 50.0678 20.5726 50.1925 20.1862C50.1961 20.1744 50.1949 20.1615 50.1891 20.1505C50.1833 20.1395 50.1735 20.1312 50.1617 20.1275ZM45.9727 13.9817C45.9333 14.039 45.9046 14.0426 45.8932 14.0863C45.8814 14.1303 45.8873 14.1771 45.9096 14.2168L45.9527 14.2942L45.9949 14.3731C46.0173 14.4128 46.0542 14.4424 46.0978 14.4557C46.1414 14.4691 46.1885 14.4651 46.2293 14.4447L49.4785 12.8606C49.5103 12.8451 49.5367 12.8204 49.5544 12.7898C49.572 12.7591 49.58 12.7239 49.5775 12.6886C49.5756 12.6651 49.569 12.6421 49.5581 12.6212C49.5194 12.546 49.4793 12.4707 49.4384 12.3954C49.3968 12.3209 49.3538 12.2478 49.3108 12.1732C49.2854 12.1332 49.2454 12.1045 49.1993 12.0933C49.1532 12.082 49.1045 12.0891 49.0635 12.113L45.9727 13.9817Z" fill="white"/>
<path d="M46.0437 19.9031C46.038 19.9005 46.0316 19.9001 46.0256 19.9019C46.0197 19.9038 46.0146 19.9078 46.0114 19.9132C45.4517 20.9772 44.5842 21.8478 43.522 22.4112C42.4568 22.9766 41.2468 23.2106 40.0476 23.0831C38.8484 22.9556 37.7147 22.4725 36.7921 21.6958C35.8746 20.9216 35.213 19.8878 34.894 18.7305C34.593 17.6834 34.5928 16.5728 34.8933 15.5257C35.1949 14.4764 35.7844 13.5326 36.595 12.8012C37.2107 12.2349 37.9382 11.8041 38.7324 11.5339C39.5266 11.2636 40.3682 11.1611 41.2039 11.2328C41.207 11.2331 41.2102 11.2328 41.2132 11.2319C41.2161 11.231 41.2189 11.2294 41.2213 11.2275C41.2237 11.2255 41.2257 11.223 41.2271 11.2202C41.2286 11.2175 41.2295 11.2144 41.2297 11.2113L41.5845 7.32775C41.5849 7.32159 41.5829 7.31551 41.5789 7.31083C41.5749 7.30614 41.5692 7.30321 41.563 7.30266C39.7782 7.14497 37.9827 7.46895 36.3692 8.24166C30.9717 10.8207 29.0593 17.5427 32.3071 22.5338C33.2587 23.9915 34.576 25.1742 36.1276 25.9636C37.6836 26.7562 39.4193 27.1297 41.1636 27.0475C42.9079 26.9653 44.6007 26.4302 46.0752 25.4948C47.5442 24.5628 48.7426 23.2611 49.5502 21.7202C49.5531 21.7146 49.5536 21.7081 49.5517 21.7021C49.5499 21.696 49.5457 21.691 49.5402 21.6879L46.0437 19.9031Z" fill="white"/>
<path d="M44.8617 8.25034L43.2432 11.6995C43.2352 11.716 43.2213 11.7288 43.2042 11.7353C43.1872 11.7418 43.1683 11.7416 43.1514 11.7347C42.9692 11.6539 42.783 11.5821 42.5937 11.5196C42.58 11.5154 42.5678 11.5072 42.5588 11.4959C42.5499 11.4846 42.5445 11.4709 42.5436 11.4565C42.5436 11.4472 42.5443 11.4379 42.5479 11.4286L43.7162 7.80234C43.7204 7.78857 43.7287 7.77639 43.74 7.76743C43.7512 7.75847 43.765 7.75315 43.7793 7.75217C43.7891 7.75164 43.7988 7.7531 43.808 7.75647C44.1542 7.87187 44.4947 8.00663 44.8265 8.15931C44.8428 8.16724 44.8555 8.18104 44.862 8.19792C44.8685 8.21481 44.8684 8.23353 44.8617 8.25034ZM45.4824 13.5739C45.4196 13.4921 45.3551 13.4115 45.2889 13.3324C45.2648 13.3043 45.2528 13.2678 45.2555 13.2309C45.2582 13.194 45.2753 13.1596 45.3032 13.1353L48.0679 10.7068C48.0821 10.6942 48.0987 10.6847 48.1167 10.6786C48.1347 10.6725 48.1537 10.6701 48.1727 10.6714C48.1916 10.6727 48.2101 10.6778 48.227 10.6863C48.244 10.6949 48.2591 10.7067 48.2714 10.7211C48.422 10.8967 48.5675 11.0795 48.7087 11.2673C48.72 11.2824 48.7282 11.2996 48.7327 11.318C48.7373 11.3363 48.7381 11.3553 48.7352 11.374C48.7322 11.3926 48.7256 11.4105 48.7156 11.4265C48.7056 11.4425 48.6926 11.4564 48.6771 11.4673L45.6738 13.6012C45.6442 13.6213 45.6082 13.6297 45.5728 13.6247C45.5374 13.6196 45.5052 13.6015 45.4824 13.5739ZM44.8136 12.8371C44.7115 12.74 44.6053 12.6472 44.4954 12.559C44.4712 12.5397 44.4556 12.5115 44.4521 12.4808C44.4486 12.45 44.4575 12.4191 44.4768 12.3948L46.7891 9.47677C46.8037 9.45821 46.8235 9.44441 46.846 9.43714C46.8684 9.42986 46.8926 9.42944 46.9153 9.43591C46.9303 9.44021 46.9439 9.44666 46.9568 9.4567C47.1805 9.63876 47.397 9.828 47.6055 10.0244C47.6222 10.0409 47.6336 10.062 47.6382 10.085C47.6428 10.108 47.6404 10.1318 47.6314 10.1534C47.6253 10.1677 47.6166 10.1806 47.6055 10.1914L44.9778 12.8342C44.9559 12.8555 44.9268 12.8677 44.8963 12.8682C44.8658 12.8688 44.8362 12.8576 44.8136 12.8371ZM44.061 12.2393C43.9155 12.1416 43.7655 12.0507 43.6116 11.9669C43.5946 11.9585 43.5807 11.945 43.5717 11.9283C43.5627 11.9116 43.5591 11.8925 43.5614 11.8737C43.5629 11.8616 43.5668 11.8499 43.5729 11.8393L45.3613 8.52344C45.3696 8.50641 45.3831 8.49241 45.3998 8.48342C45.4165 8.47442 45.4356 8.47087 45.4545 8.47326C45.4671 8.47461 45.4793 8.47851 45.4903 8.48473C45.787 8.64529 46.0745 8.82162 46.3526 9.01086C46.3688 9.02102 46.3815 9.03605 46.3887 9.05381C46.3959 9.07157 46.3973 9.09116 46.3927 9.10977C46.3894 9.12208 46.3836 9.13356 46.3755 9.14346L44.1979 12.2163C44.1869 12.2324 44.1713 12.2447 44.1531 12.2518C44.135 12.2588 44.1151 12.2602 44.0961 12.2558C44.0835 12.2529 44.0716 12.2468 44.061 12.2393ZM43.2539 7.6468L42.2447 11.3691C42.2431 11.375 42.2403 11.3806 42.2366 11.3855C42.2329 11.3904 42.2282 11.3945 42.2229 11.3975C42.2175 11.4006 42.2116 11.4026 42.2055 11.4034C42.1994 11.4041 42.1933 11.4037 42.1873 11.4021C41.963 11.3446 41.7357 11.2999 41.5064 11.268C41.4941 11.2662 41.4831 11.2598 41.4754 11.2501C41.4678 11.2403 41.4643 11.228 41.4655 11.2157L41.9608 7.39521C41.962 7.38567 41.9661 7.37672 41.9725 7.36955C41.9789 7.36237 41.9873 7.35732 41.9967 7.35507C42.0028 7.35361 42.0091 7.35337 42.0153 7.35435C42.4203 7.40811 42.8217 7.48696 43.2174 7.58946C43.2267 7.59146 43.2353 7.59621 43.2419 7.60311C43.2485 7.61001 43.253 7.61873 43.2546 7.62816C43.2556 7.63436 43.2553 7.64069 43.2539 7.6468ZM89.9292 24.8075V32.9395H90.646V31.1762L92.081 29.6896L94.4787 32.9417H95.3374L92.6086 29.2573L95.222 26.5909H94.2844L90.646 30.3376V24.8075H89.9292ZM83.9347 26.5909H83.2308V32.9417H83.9476V29.3935C83.9476 28.0983 84.9339 27.1192 86.2277 27.1192C87.624 27.1192 88.4175 28.0209 88.4175 29.3799V32.9359H89.1515V29.3857C89.1515 27.5657 88.0369 26.464 86.3216 26.464C85.2321 26.464 84.3748 27.0102 83.9361 27.7851L83.9347 26.5909ZM76.4693 29.7663C76.4693 28.3054 77.6212 27.1285 79.0691 27.1285C80.5543 27.1285 81.694 28.3219 81.694 29.7663C81.694 31.2113 80.5543 32.4041 79.0691 32.4041C77.6212 32.4041 76.4693 31.2214 76.4693 29.7663ZM75.7346 29.7663C75.7346 31.5862 77.1567 33.0678 79.0268 33.0678C80.0002 33.0678 81.0883 32.5474 81.6144 31.6199V32.9417H82.3434V26.5909H81.6144V27.9112C81.0883 26.9844 80.0002 26.464 79.0268 26.464C77.1431 26.464 75.7346 27.9499 75.7346 29.7663ZM69.4598 29.7663C69.4559 29.4201 69.5213 29.0766 69.6523 28.7562C69.7833 28.4357 69.9772 28.1448 70.2225 27.9005C70.4686 27.6541 70.7611 27.4591 71.0831 27.3266C71.405 27.194 71.7501 27.1267 72.0983 27.1285C73.5448 27.1285 74.6845 28.3112 74.6845 29.7663C74.6845 31.2214 73.5448 32.4041 72.0983 32.4041C70.5988 32.4041 69.4598 31.2214 69.4598 29.7663ZM68.8362 24.8075V32.9395H69.5401V31.6206C70.0648 32.5474 71.14 33.0678 72.1277 33.0678C73.0073 33.07 73.8517 32.7227 74.4752 32.1023C74.7815 31.7959 75.0237 31.4315 75.1877 31.0304C75.3516 30.6293 75.434 30.1995 75.43 29.7663C75.43 27.947 74.0215 26.464 72.1277 26.464C71.1543 26.464 70.0777 26.9844 69.5523 27.899V24.8075H68.8362Z" fill="white"/>
</svg>
