<svg width="100%" viewBox="0 0 37 38" fill="none" xmlns="http://www.w3.org/2000/svg">
<path d="M1.94633 25.3793C1.80182 25.0184 1.76133 24.6405 1.82487 24.2456C1.88841 23.8506 2.23755 23.5692 2.87229 23.4012L14.4054 19.0783C14.7557 18.9997 14.952 18.8287 14.9944 18.5654C15.0473 18.2363 14.9251 17.9465 14.6278 17.6961L5.03261 9.97391C4.48259 9.61532 4.23935 9.23856 4.30289 8.84364C4.36643 8.44872 4.5234 8.10259 4.77381 7.80526C5.37222 7.02373 6.08981 6.97037 6.92657 7.64519L16.044 15.1893C17.0018 15.9511 17.5707 15.7725 17.7507 14.6536L19.4186 4.28688C19.5775 3.29958 20.1506 2.88535 21.1379 3.0442C22.1252 3.20304 22.5394 3.77612 22.3805 4.76342L20.7126 15.1301C20.5326 16.249 21.0168 16.597 22.1653 16.1741L33.1888 11.8705C34.195 11.4922 34.8597 11.768 35.1827 12.6978C35.3273 13.0586 35.3677 13.4365 35.3042 13.8314C35.2407 14.2264 34.8915 14.5078 34.2568 14.6758L22.7237 18.9987C22.3628 19.1432 22.1559 19.38 22.1029 19.7091C22.0606 19.9724 22.1934 20.1963 22.5013 20.3809L32.0965 28.1031C32.6465 28.4617 32.8897 28.8385 32.8262 29.2334C32.7626 29.6283 32.6057 29.9744 32.3553 30.2718C31.7569 31.0533 31.0393 31.1066 30.2025 30.4318L21.0692 22.9865C20.1114 22.2247 19.5425 22.4032 19.3624 23.5222L17.774 33.3952C17.6151 34.3825 17.0421 34.7967 16.0547 34.6379C15.0674 34.479 14.6532 33.906 14.8121 32.9187L16.4005 23.0456C16.5806 21.9267 16.0964 21.5787 14.9479 22.0016L3.94024 26.2065C2.93404 26.5848 2.2694 26.309 1.94633 25.3793Z" fill="currentColor"/>
</svg>
