<svg width="100%" viewBox="0 0 33 33" fill="none" xmlns="http://www.w3.org/2000/svg">
<path d="M0.929514 25.5739C0.729519 25.2405 0.629524 24.8739 0.62953 24.4739C0.629536 24.0739 0.929541 23.7405 1.52954 23.4739L12.2296 17.374C12.563 17.2407 12.7296 17.0407 12.7296 16.7741C12.7296 16.4407 12.563 16.1741 12.2297 15.974L1.52974 9.87389C0.929749 9.60722 0.629753 9.27388 0.629759 8.87388C0.629765 8.47388 0.729771 8.10721 0.929775 7.77388C1.39646 6.90722 2.09646 6.74056 3.02978 7.27391L13.2297 13.2741C14.2964 13.8741 14.8297 13.6074 14.8297 12.4741L14.8299 1.97408C14.8299 0.974085 15.3299 0.474093 16.3299 0.474108C17.3299 0.474123 17.8299 0.974129 17.8299 1.97413L17.8297 12.4741C17.8297 13.6075 18.363 13.8741 19.4297 13.2742L29.6298 7.2743C30.5631 6.74098 31.2631 6.90766 31.7298 7.77433C31.9298 8.10767 32.0298 8.47434 32.0298 8.87434C32.0297 9.27434 31.7297 9.60767 31.1297 9.87433L20.4297 15.9742C20.0963 16.1742 19.9296 16.4408 19.9296 16.7742C19.9296 17.0408 20.0963 17.2408 20.4296 17.3742L31.1295 23.4743C31.7295 23.741 32.0295 24.0743 32.0295 24.4743C32.0295 24.8743 31.9295 25.241 31.7295 25.5743C31.2628 26.441 30.5628 26.6077 29.6295 26.0743L19.4296 20.1742C18.3629 19.5741 17.8296 19.8408 17.8296 20.9741L17.8294 30.9741C17.8294 31.9741 17.3294 32.4741 16.3294 32.4741C15.3294 32.4741 14.8294 31.9741 14.8294 30.9741L14.8296 20.9741C14.8296 19.8408 14.2963 19.5741 13.2296 20.1741L3.02951 26.0739C2.09617 26.6072 1.39617 26.4406 0.929514 25.5739Z" fill="currentColor"/>
</svg>
