<svg width="100%" viewBox="0 0 52 44" fill="none" xmlns="http://www.w3.org/2000/svg">
<g clip-path="url(#clip0_325_8420)">
<path d="M51.2641 43.2053V43.9147H33.0195V43.2167H39.1533C38.7053 42.0229 38.2881 40.9098 37.8686 39.799C36.9465 37.3557 36.0153 34.9146 35.1069 32.4656C34.9818 32.128 34.8204 32.0086 34.4566 32.0097C29.4926 32.0222 24.5276 32.0211 19.5636 32.0097C19.2135 32.0097 19.0338 32.0939 18.9019 32.4463C17.6115 35.9049 16.2983 39.3544 14.9942 42.8074C14.9556 42.9108 14.9306 43.02 14.8783 43.1985H20.9314V43.9136H9.26514V43.2189H13.8925C19.309 28.8513 24.7152 14.5098 30.1646 0.0557251C30.2771 0.287663 30.3544 0.420689 30.409 0.562808C35.7186 14.5223 41.0304 28.4795 46.3184 42.4469C46.5435 43.0427 46.8073 43.2485 47.4451 43.2189C48.706 43.1598 49.9725 43.2019 51.2652 43.2019L51.2641 43.2053ZM27.0721 11.3184C27.0255 11.3184 26.98 11.3184 26.9334 11.3172C24.4309 17.9059 21.9285 24.4945 19.417 31.1093H34.5884C32.069 24.4752 29.5711 17.8968 27.0732 11.3184H27.0721Z" fill="currentColor"/>
<path d="M11.2161 25.4563C11.0388 25.7883 10.8887 26.1374 10.6806 26.4478C9.51185 28.1952 7.31072 28.7126 5.15619 27.6893C2.76177 26.5524 1.43382 24.5888 1.02906 22.0045C0.569735 19.0724 2.1194 16.0481 4.74916 14.6769C6.03619 14.0061 7.38689 13.8833 8.76601 14.3529C9.75971 14.6905 10.5112 15.325 10.9649 16.288C11.0342 16.4358 11.1286 16.5722 11.2946 16.8542V1.1938C10.675 1.1938 10.0394 1.20858 9.40498 1.18243C9.26172 1.17675 9.12415 1.02894 8.98317 0.947083C9.12187 0.861811 9.26058 0.702641 9.40043 0.701504C14.1563 0.66967 18.911 0.652613 23.6669 0.635559C23.7397 0.635559 23.8124 0.654889 23.9648 0.676491C23.9648 1.12672 23.9648 1.57468 23.9648 2.02264C23.9648 3.17892 23.9716 4.3352 23.9568 5.49148C23.9545 5.66202 23.8499 5.83029 23.792 5.99969C23.7362 5.98491 23.6805 5.97013 23.6248 5.95535C23.4202 5.39029 23.2451 4.81158 23.0052 4.2613C22.2434 2.51721 20.9257 1.45303 19.0077 1.34843C17.3511 1.25861 15.6844 1.3291 13.9676 1.3291C13.9551 1.48259 13.9244 1.68497 13.9232 1.88734C13.9198 4.75019 13.9323 7.61189 13.9107 10.4747C13.9073 11.0046 14.0358 11.2581 14.6054 11.1762C14.9601 11.1251 15.3274 11.1535 15.6809 11.0978C17.7457 10.7703 18.7848 9.62543 19.052 7.41406C19.0793 7.18667 19.1339 6.96269 19.1862 6.68186C19.5136 6.9968 19.6455 14.1175 19.4397 16.421C19.143 16.5551 19.0236 16.4505 18.9781 16.1265C18.9031 15.6024 18.8235 15.0748 18.6859 14.5655C18.3062 13.1557 17.4102 12.2643 15.9527 12.0085C15.3228 11.8982 14.6816 11.8516 13.9767 11.7686C13.9551 12.1165 13.9232 12.3916 13.9232 12.6668C13.9198 17.4624 13.9209 22.2581 13.9209 27.0538C13.9209 27.5426 13.6716 27.7727 13.1728 27.7439C13.0409 27.7359 12.9079 27.7393 12.7749 27.7382C11.8305 27.7344 11.3583 27.2516 11.3583 26.2897C11.3583 26.0146 11.3583 25.7394 11.3583 25.4643C11.3105 25.462 11.2628 25.4597 11.215 25.4563H11.2161ZM7.24704 27.6757C8.99226 27.6768 10.2088 26.8843 10.7489 25.1732C11.0581 24.1955 11.2127 23.1415 11.2582 22.1137C11.331 20.4742 11.356 18.8177 10.825 17.2225C10.2361 15.4534 8.79216 14.5132 6.83774 14.6166C5.25965 14.6996 4.2489 15.6615 3.88167 17.55C3.40301 20.0103 3.47464 22.49 3.90782 24.9424C4.23981 26.8218 5.37335 27.6734 7.24704 27.6757Z" fill="currentColor"/>
</g>
<defs>
<clipPath id="clip0_325_8420">
<rect width="50.4806" height="44" fill="currentColor" transform="translate(0.855103)"/>
</clipPath>
</defs>
</svg>
