<svg width="100%" viewBox="0 0 74 74" fill="none" xmlns="http://www.w3.org/2000/svg">
<path d="M63.9836 60.133V60.907H44.0803V60.1454H50.7718C50.2831 58.8431 49.8279 57.6289 49.3702 56.4171C48.3643 53.7516 47.3485 51.0887 46.3575 48.4171C46.2211 48.0487 46.045 47.9185 45.6481 47.9197C40.2329 47.9333 34.8164 47.9321 29.4012 47.9197C29.0192 47.9197 28.8232 48.0115 28.6794 48.396C27.2716 52.169 25.8391 55.9321 24.4164 59.6989C24.3743 59.8118 24.347 59.9309 24.2899 60.1256H30.8933V60.9058H18.1665V60.1479H23.2146C29.1234 44.4741 35.0211 28.8289 40.9659 13.0608C41.0887 13.3138 41.173 13.4589 41.2326 13.614C47.0248 28.8425 52.8195 44.0685 58.5882 59.3058C58.8338 59.9557 59.1215 60.1802 59.8174 60.1479C61.1929 60.0834 62.5746 60.1293 63.9848 60.1293L63.9836 60.133ZM37.5922 25.3473C37.5414 25.3473 37.4918 25.3473 37.4409 25.3461C34.711 32.5337 31.9811 39.7213 29.2412 46.9374H45.7919C43.0434 39.7002 40.3184 32.5237 37.5935 25.3473H37.5922Z" fill="currentColor"/>
<path d="M20.2944 40.7706C20.1009 41.1327 19.9372 41.5135 19.7102 41.8521C18.4352 43.7585 16.034 44.3228 13.6836 43.2065C11.0715 41.9662 9.6228 39.8242 9.18125 37.005C8.68017 33.8062 10.3707 30.507 13.2395 29.0112C14.6436 28.2794 16.1171 28.1455 17.6216 28.6577C18.7056 29.0261 19.5254 29.7182 20.0203 30.7687C20.096 30.93 20.1989 31.0788 20.38 31.3864V14.3024C19.704 14.3024 19.0107 14.3185 18.3186 14.2899C18.1623 14.2837 18.0123 14.1225 17.8585 14.0332C18.0098 13.9402 18.1611 13.7665 18.3136 13.7653C23.5019 13.7306 28.6888 13.712 33.8771 13.6934C33.9564 13.6934 34.0358 13.7144 34.202 13.738C34.202 14.2292 34.202 14.7179 34.202 15.2065C34.202 16.4679 34.2095 17.7293 34.1933 18.9907C34.1909 19.1768 34.0768 19.3603 34.0135 19.5451C33.9527 19.529 33.8919 19.5129 33.8312 19.4968C33.6079 18.8803 33.4169 18.249 33.1552 17.6487C32.3242 15.7461 30.8867 14.5851 28.7943 14.471C26.9871 14.373 25.1688 14.4499 23.296 14.4499C23.2823 14.6174 23.2488 14.8382 23.2476 15.0589C23.2439 18.182 23.2575 21.3039 23.234 24.427C23.2302 25.005 23.3704 25.2816 23.9918 25.1923C24.3788 25.1365 24.7794 25.1675 25.1651 25.1067C27.4175 24.7495 28.5512 23.5005 28.8426 21.0881C28.8724 20.84 28.9319 20.5957 28.989 20.2893C29.3462 20.6329 29.4901 28.401 29.2656 30.9138C28.9419 31.0602 28.8116 30.9461 28.762 30.5926C28.6802 30.0208 28.5933 29.4453 28.4433 28.8896C28.029 27.3517 27.0516 26.3793 25.4616 26.1002C24.7744 25.9799 24.0749 25.929 23.3059 25.8385C23.2823 26.218 23.2476 26.5182 23.2476 26.8183C23.2439 32.0499 23.2451 37.2816 23.2451 42.5132C23.2451 43.0465 22.9731 43.2975 22.429 43.2661C22.2851 43.2574 22.14 43.2611 21.9949 43.2599C20.9646 43.2557 20.4495 42.729 20.4495 41.6797C20.4495 41.3796 20.4495 41.0794 20.4495 40.7792C20.3974 40.7768 20.3453 40.7743 20.2932 40.7706H20.2944ZM15.9645 43.1917C17.8684 43.1929 19.1955 42.3284 19.7847 40.4617C20.122 39.3951 20.2907 38.2453 20.3403 37.1241C20.4197 35.3355 20.447 33.5284 19.8678 31.7882C19.2253 29.8583 17.6501 28.8326 15.518 28.9455C13.7964 29.036 12.6938 30.0853 12.2932 32.1455C11.771 34.8295 11.8492 37.5346 12.3217 40.2099C12.6839 42.2602 13.9205 43.1892 15.9645 43.1917Z" fill="currentColor"/>
</svg>
