<svg width="100%" viewBox="0 0 51 44" fill="none" xmlns="http://www.w3.org/2000/svg">
<g clip-path="url(#clip0_2262_2635)">
<path d="M50.4089 43.2053V43.9147H32.1642V43.2167H38.2981C37.8501 42.0229 37.4329 40.9098 37.0133 39.799C36.0913 37.3557 35.1601 34.9146 34.2517 32.4656C34.1266 32.128 33.9652 32.0086 33.6013 32.0097C28.6374 32.0222 23.6723 32.0211 18.7084 32.0097C18.3582 32.0097 18.1786 32.0939 18.0467 32.4463C16.7563 35.9049 15.4431 39.3544 14.139 42.8074C14.1004 42.9108 14.0753 43.02 14.023 43.1985H20.0762V43.9136H8.40991V43.2189H13.0373C18.4537 28.8513 23.8599 14.5098 29.3093 0.0557251C29.4219 0.287663 29.4992 0.420689 29.5538 0.562808C34.8634 14.5223 40.1752 28.4795 45.4631 42.4469C45.6883 43.0427 45.952 43.2485 46.5899 43.2189C47.8507 43.1598 49.1173 43.2019 50.41 43.2019L50.4089 43.2053ZM26.2168 11.3184C26.1702 11.3184 26.1247 11.3184 26.0781 11.3172C23.5757 17.9059 21.0733 24.4945 18.5618 31.1093H33.7332C31.2137 24.4752 28.7159 17.8968 26.218 11.3184H26.2168Z" fill="currentColor"/>
<path d="M10.361 25.4563C10.1837 25.7883 10.0336 26.1374 9.82553 26.4478C8.65674 28.1952 6.45561 28.7126 4.30109 27.6893C1.90667 26.5524 0.578715 24.5888 0.17396 22.0045C-0.285368 19.0724 1.26429 16.0481 3.89406 14.6769C5.18109 14.0061 6.53179 13.8833 7.91091 14.3529C8.9046 14.6905 9.65612 15.325 10.1098 16.288C10.1791 16.4358 10.2735 16.5722 10.4395 16.8542V1.1938C9.81985 1.1938 9.18429 1.20858 8.54987 1.18243C8.40662 1.17675 8.26905 1.02894 8.12806 0.947083C8.26677 0.861811 8.40548 0.702641 8.54532 0.701504C13.3012 0.66967 18.0559 0.652613 22.8118 0.635559C22.8846 0.635559 22.9573 0.654889 23.1097 0.676491C23.1097 1.12672 23.1097 1.57468 23.1097 2.02264C23.1097 3.17892 23.1165 4.3352 23.1017 5.49148C23.0994 5.66202 22.9948 5.83029 22.9368 5.99969C22.8811 5.98491 22.8254 5.97013 22.7697 5.95535C22.5651 5.39029 22.39 4.81158 22.1501 4.2613C21.3883 2.51721 20.0706 1.45303 18.1526 1.34843C16.496 1.25861 14.8293 1.3291 13.1125 1.3291C13.1 1.48259 13.0693 1.68497 13.0681 1.88734C13.0647 4.75019 13.0772 7.61189 13.0556 10.4747C13.0522 11.0046 13.1807 11.2581 13.7503 11.1762C14.105 11.1251 14.4723 11.1535 14.8258 11.0978C16.8905 10.7703 17.9297 9.62543 18.1969 7.41406C18.2242 7.18667 18.2788 6.96269 18.3311 6.68186C18.6585 6.9968 18.7904 14.1175 18.5846 16.421C18.2879 16.5551 18.1685 16.4505 18.123 16.1265C18.048 15.6024 17.9684 15.0748 17.8308 14.5655C17.4511 13.1557 16.5551 12.2643 15.0976 12.0085C14.4677 11.8982 13.8265 11.8516 13.1215 11.7686C13.0999 12.1165 13.0681 12.3916 13.0681 12.6668C13.0647 17.4624 13.0658 22.2581 13.0658 27.0538C13.0658 27.5426 12.8165 27.7727 12.3177 27.7439C12.1858 27.7359 12.0528 27.7393 11.9198 27.7382C10.9754 27.7344 10.5032 27.2516 10.5032 26.2897C10.5032 26.0146 10.5032 25.7394 10.5032 25.4643C10.4554 25.462 10.4077 25.4597 10.3599 25.4563H10.361ZM6.39194 27.6757C8.13716 27.6768 9.3537 26.8843 9.89375 25.1732C10.203 24.1955 10.3576 23.1415 10.4031 22.1137C10.4759 20.4742 10.5009 18.8177 9.96993 17.2225C9.38098 15.4534 7.93706 14.5132 5.98264 14.6166C4.40455 14.6996 3.3938 15.6615 3.02657 17.55C2.54791 20.0103 2.61954 22.49 3.05271 24.9424C3.3847 26.8218 4.51824 27.6734 6.39194 27.6757Z" fill="currentColor"/>
</g>
<defs>
<clipPath id="clip0_2262_2635">
<rect width="50.4806" height="44" fill="currentColor"/>
</clipPath>
</defs>
</svg>
