<svg width="100%" viewBox="0 0 44 44" fill="none" xmlns="http://www.w3.org/2000/svg">
<g clip-path="url(#clip0_1005_770)">
<path d="M43.9375 40.6587V41.2771H28.0351V40.6686H33.3815C32.991 39.628 32.6274 38.6579 32.2617 37.6897C31.458 35.56 30.6464 33.4324 29.8546 31.2978C29.7456 31.0034 29.6048 30.8994 29.2877 30.9004C24.9611 30.9113 20.6334 30.9103 16.3067 30.9004C16.0015 30.9004 15.8449 30.9737 15.73 31.2809C14.6052 34.2955 13.4606 37.3022 12.3239 40.3118C12.2902 40.402 12.2684 40.4971 12.2229 40.6527H17.4989V41.2761H7.33032V40.6706H11.3637C16.0847 28.1474 20.7969 15.6471 25.5467 3.04858C25.6448 3.25075 25.7122 3.36669 25.7598 3.49057C30.3877 15.658 35.0176 27.8234 39.6267 39.9977C39.8229 40.517 40.0529 40.6963 40.6088 40.6706C41.7078 40.619 42.8118 40.6557 43.9385 40.6557L43.9375 40.6587ZM22.8512 12.8653C22.8106 12.8653 22.771 12.8653 22.7303 12.8644C20.5492 18.6071 18.368 24.3499 16.1789 30.1155H29.4027C27.2066 24.3331 25.0294 18.5992 22.8522 12.8653H22.8512Z" fill="currentColor"/>
<path d="M9.03085 25.1883C8.87626 25.4777 8.74545 25.7819 8.5641 26.0524C7.54536 27.5756 5.6268 28.0265 3.74887 27.1346C1.66185 26.1436 0.504371 24.4322 0.151578 22.1796C-0.248782 19.6239 1.10194 16.9878 3.3941 15.7927C4.5159 15.208 5.6932 15.101 6.89527 15.5103C7.7614 15.8046 8.41644 16.3576 8.81184 17.1969C8.87229 17.3258 8.95455 17.4447 9.09923 17.6904V4.04053C8.55914 4.04053 8.00518 4.05341 7.45221 4.03062C7.32734 4.02567 7.20743 3.89684 7.08455 3.82549C7.20545 3.75116 7.32635 3.61243 7.44824 3.61143C11.5936 3.58369 15.7379 3.56882 19.8832 3.55396C19.9466 3.55396 20.01 3.5708 20.1428 3.58963C20.1428 3.98206 20.1428 4.37251 20.1428 4.76297C20.1428 5.7708 20.1488 6.77864 20.1359 7.78648C20.1339 7.93513 20.0427 8.08179 19.9922 8.22945C19.9436 8.21657 19.8951 8.20369 19.8465 8.1908C19.6682 7.69828 19.5155 7.19387 19.3064 6.71423C18.6425 5.19405 17.4939 4.26648 15.8221 4.17531C14.3782 4.09702 12.9255 4.15846 11.4291 4.15846C11.4182 4.29224 11.3914 4.46864 11.3904 4.64504C11.3874 7.14035 11.3983 9.63468 11.3795 12.13C11.3765 12.5918 11.4885 12.8128 11.985 12.7414C12.2942 12.6968 12.6143 12.7216 12.9225 12.6731C14.7221 12.3876 15.6279 11.3897 15.8608 9.46224C15.8845 9.26405 15.9321 9.06882 15.9777 8.82404C16.2631 9.09855 16.3781 15.3051 16.1987 17.3129C15.94 17.4298 15.836 17.3386 15.7964 17.0562C15.7309 16.5994 15.6616 16.1395 15.5417 15.6956C15.2107 14.4667 14.4298 13.6898 13.1593 13.4668C12.6103 13.3707 12.0514 13.3301 11.437 13.2577C11.4181 13.561 11.3904 13.8008 11.3904 14.0406C11.3874 18.2206 11.3884 22.4006 11.3884 26.5806C11.3884 27.0068 11.1711 27.2073 10.7364 27.1822C10.6214 27.1752 10.5055 27.1782 10.3895 27.1772C9.56632 27.1739 9.15473 26.7531 9.15473 25.9147C9.15473 25.6749 9.15473 25.435 9.15473 25.1952C9.11311 25.1932 9.07148 25.1913 9.02986 25.1883H9.03085ZM5.5713 27.1227C7.09247 27.1237 8.15284 26.433 8.62356 24.9415C8.89311 24.0893 9.02788 23.1706 9.06752 22.2748C9.13094 20.8458 9.15275 19.4019 8.68995 18.0115C8.17662 16.4695 6.91806 15.65 5.21455 15.7402C3.83905 15.8125 2.95806 16.6509 2.63797 18.2969C2.22076 20.4414 2.28319 22.6028 2.66076 24.7404C2.95013 26.3785 3.93815 27.1207 5.5713 27.1227Z" fill="currentColor"/>
</g>
<defs>
<clipPath id="clip0_1005_770">
<rect width="44" height="38.3514" fill="currentColor" transform="translate(0 3)"/>
</clipPath>
</defs>
</svg>
