<svg width="44" height="44" viewBox="0 0 44 44" fill="none" xmlns="http://www.w3.org/2000/svg">
<mask id="mask0_430_7847" style="mask-type:luminance" maskUnits="userSpaceOnUse" x="0" y="0" width="44" height="44">
<path d="M44 0H0V44H44V0Z" fill="white"/>
</mask>
<g mask="url(#mask0_430_7847)">
<path d="M27.9476 41.8487L27.0887 42.1697C27.4647 42.0435 27.8406 41.9008 28.2357 41.7389L27.9476 41.8487ZM31.7096 15.6847C29.9013 16.2938 27.9641 17.2076 25.9774 18.4259C24.0072 19.6443 22.1797 21.0574 20.5306 22.5996C18.8815 24.1389 17.4134 25.7881 16.1951 27.4894C14.9603 29.1906 13.9724 30.9468 13.2755 32.6481C12.5757 34.385 12.1998 36.0671 12.219 37.6092C12.2382 38.5751 12.3974 39.4367 12.702 40.1886C13.0258 40.9404 13.473 41.5853 14.063 42.0874C14.653 42.606 15.3527 43.0369 16.2115 43.2152C17.0896 43.4128 17.9485 43.5555 19.079 43.6103H19.3123L20.9614 43.5033L22.5749 43.3058L23.3816 43.1631L24.8496 42.842L26.2655 42.4304L26.6607 42.3042L27.0915 42.1423C26.0158 42.5018 24.9951 42.7158 24.0649 42.8036C22.8109 42.9298 21.6831 42.8036 20.7337 42.4826C19.8034 42.1615 19.0488 41.6045 18.5302 40.8718C18.0116 40.1364 17.707 39.2062 17.6521 38.1141C17.5973 36.8793 17.8662 35.5183 18.3875 34.1216C18.9061 32.7414 19.6772 31.3282 20.6623 29.9672C21.6309 28.6062 22.8109 27.2643 24.1197 26.0268C25.4451 24.792 26.9131 23.6642 28.5101 22.6956C30.1044 21.7297 31.663 21.0135 33.131 20.5635C34.6183 20.097 35.9985 19.9022 37.2333 19.9735C38.4681 20.0449 39.563 20.3687 40.3862 20.9751C41.2286 21.5843 41.8377 22.4788 42.1067 23.6615C42.2329 23.302 43.0204 23.0359 43.1274 22.6599C43.2344 22.284 43.325 21.9245 43.3963 21.5486C43.4677 21.1727 43.7009 19.1311 43.7201 18.7552C43.6488 18.5412 43.6652 18.3244 43.5418 18.1104C42.9875 17.0539 42.414 16.6588 41.481 16.0332C40.4246 15.317 38.3995 14.8505 36.8409 14.8148C36.7696 14.8148 36.6982 14.8148 36.6269 14.8148C35.1149 14.8093 33.4658 15.0947 31.7096 15.6847Z" fill="url(#paint0_linear_430_7847)"/>
<path d="M11.898 39.755L11.3958 39.5767C11.5577 39.648 11.7169 39.7001 11.898 39.755ZM30.3486 4.85412C28.7708 5.01601 27.0531 5.46329 25.2256 6.17947C23.4337 6.89565 21.5349 7.88075 19.5812 9.15122C17.4134 10.5479 15.3883 12.1779 13.5444 13.9313C11.7004 15.6682 10.0321 17.5671 8.6189 19.4824C7.18653 21.4169 6.00387 23.4035 5.16146 25.3381C4.28339 27.3083 3.76477 29.2428 3.65775 31.0154C3.62208 31.6959 3.63855 32.3051 3.7291 32.895C3.81965 33.485 3.96234 34.0228 4.15991 34.5058C4.35747 35.0079 4.62639 35.4552 4.94743 35.8476C5.27123 36.2427 5.64715 36.5994 6.07522 36.8848L7.54326 37.815L8.93995 38.5669L10.4985 39.2474L11.3931 39.5684C10.9266 39.3709 10.4985 39.1376 10.1034 38.8523C9.58479 38.4763 9.15398 38.0098 8.81373 37.4748C8.47347 36.9369 8.22377 36.3278 8.04266 35.6473C7.88077 34.9668 7.80942 34.2314 7.82863 33.4082C7.88351 31.7426 8.33078 29.9151 9.10185 28.0711C9.87291 26.2436 10.9458 24.3832 12.2739 22.5721C13.5828 20.7803 15.1222 19.0077 16.8235 17.3969C18.5439 15.767 20.4428 14.2633 22.4679 12.9736C24.4929 11.6839 26.4631 10.718 28.3263 10.0732C30.2087 9.4119 32.6783 8.94542 34.2561 8.94542C35.8503 8.96463 37.247 9.32135 38.3419 10.0375C39.4532 10.7729 39.6672 12.0242 40.0432 13.5306L40.6331 13.4044L38.7343 8.42681L38.2513 7.3347C37.6065 6.24258 36.5144 5.50719 35.296 5.07913C34.5799 4.81022 33.5234 4.71967 32.4478 4.71967C31.7289 4.74711 30.9935 4.78277 30.3486 4.85412Z" fill="url(#paint1_linear_430_7847)"/>
<path d="M2.3818 31.0154L2.27478 30.8371C2.31045 30.9084 2.34613 30.9633 2.3818 31.0154ZM33.2682 4.36846C33.1969 4.27791 33.1063 4.1901 33.0185 4.11875L33.2682 4.36846ZM22.6435 0.285389C21.48 0.535093 20.709 0.804004 19.4001 1.36104C18.0912 1.91532 16.7302 2.61504 15.3143 3.49312C13.3605 4.69225 11.4809 6.08895 9.76041 7.59266C8.03992 9.09637 6.44566 10.7263 5.06543 12.3919C3.66873 14.074 2.48607 15.8109 1.58878 17.4957C0.675032 19.2162 0.279896 20.9148 0.0109844 22.4734C-0.0438956 22.7779 0.0109844 23.0633 -0.00822354 23.3514C-0.0274315 23.6368 0.241479 25.4478 0.546063 26.754C0.672287 27.3083 0.743632 27.6321 0.941199 28.1699C1.15523 28.8147 1.62171 29.7642 1.62171 29.7642L1.85495 30.1758L2.26655 30.8371C2.12386 30.5874 1.99764 30.3349 1.90709 30.066C1.78086 29.7257 1.69305 29.3498 1.62171 28.9547C1.56683 28.5595 1.53116 28.1479 1.53116 27.7199C1.53116 27.2891 1.56683 26.8253 1.63818 26.3397C1.88788 24.6576 2.53272 22.8465 3.48214 21.0026C4.41235 19.1943 5.6499 17.3668 7.10147 15.5942C8.53384 13.838 10.183 12.1203 11.9913 10.5452C13.7831 8.97014 15.7533 7.50211 17.814 6.26456C19.4796 5.263 21.0931 4.45627 22.6325 3.86631C24.1719 3.27635 25.6235 2.88121 26.968 2.70285C28.329 2.52449 29.5474 2.56016 30.6038 2.82908C31.5532 3.06232 32.36 3.49038 32.9856 4.09954L32.0911 3.16933L30.8919 2.09368L30.2828 1.61074L28.9025 1.05645C28.1507 0.823212 27.2369 0.482956 26.2326 0.340268C25.6235 0.249716 24.781 0.1427 23.9386 0.1427C23.5051 0.161908 23.0551 0.197581 22.6435 0.285389Z" fill="url(#paint2_linear_430_7847)"/>
<path d="M1.3089 17.8525C1.3089 17.8168 1.3089 17.7619 1.3089 17.7262V17.8525ZM14.1536 1.73697C13.0779 2.23912 12.5044 2.5437 11.5029 3.16933C8.51189 5.0325 6.72006 6.0176 4.5331 8.70398C3.65502 9.77962 3.1364 10.4053 2.52723 11.6593C2.22265 12.2849 1.86319 13.3057 1.86319 13.3057L1.70129 14.4527L1.46805 16.0112L1.34183 17.4079L1.32262 17.7674C1.32262 17.6768 1.34183 17.6055 1.34183 17.5177C1.36104 17.3915 1.36103 17.268 1.39671 17.1418C1.41591 17.0155 1.43238 16.8921 1.46805 16.7466C1.50372 16.6204 1.52293 16.4777 1.5586 16.335C1.91807 14.9575 2.52723 13.506 3.49312 11.8952C4.56877 10.1034 5.3755 9.19241 6.86001 7.75729C8.32805 6.32493 9.31314 5.28496 11.0885 3.97881C12.1642 3.19129 14.7956 1.52568 16.3542 1.31165C16.4613 1.29244 16.4969 1.29244 16.4613 1.29244C16.3048 1.25402 14.7984 1.41318 14.1536 1.73697Z" fill="url(#paint3_linear_430_7847)"/>
<path d="M30.8508 39.5218C30.4913 39.4148 30.2251 39.2364 30.0276 38.9675C29.83 38.6986 29.723 38.3776 29.723 37.9824C29.723 37.5873 29.83 37.1757 30.0276 36.7476C30.2251 36.3168 30.4941 35.8887 30.8343 35.4936C31.1746 35.082 31.5862 34.7061 32.0334 34.3466C32.4807 34.0064 32.9829 33.7018 33.5015 33.4521C34.0201 33.2188 34.5222 33.0569 34.9887 32.9856C35.4552 32.9143 35.8668 32.9307 36.2235 33.0213C36.5802 33.1118 36.8876 33.2902 37.0824 33.5234C37.2964 33.7731 37.4226 34.0969 37.4419 34.4728C37.4611 34.868 37.3705 35.296 37.1921 35.7269C37.0138 36.1577 36.7257 36.6049 36.3854 37.033C36.0452 37.4638 35.6143 37.8562 35.1506 38.2321C34.6841 38.5916 34.1655 38.9126 33.6277 39.1459C33.0899 39.3956 32.5713 39.541 32.0883 39.5931C31.9264 39.6124 31.7645 39.6288 31.6054 39.6288C31.3337 39.6288 31.084 39.5931 30.8508 39.5218ZM37.0138 28.329C36.583 28.329 36.1357 28.3647 35.6528 28.4553C34.7033 28.6172 33.6826 28.9382 32.6069 29.4404C31.5313 29.9425 30.5297 30.5681 29.616 31.2679C28.7022 31.984 27.8598 32.7716 27.1628 33.5948C26.4631 34.418 25.8732 35.296 25.4616 36.1741C25.05 37.0522 24.7975 37.9111 24.7618 38.7343C24.7262 39.5575 24.9237 40.2572 25.2997 40.8115C25.6756 41.3658 26.2491 41.7774 26.9653 42.0106C27.6815 42.2603 28.5595 42.3152 29.5446 42.2082C30.5297 42.082 31.5862 41.5085 32.7332 41.009C33.8966 40.4904 34.7747 39.755 35.7955 38.9867C36.7998 38.2157 37.6778 37.3925 38.4105 36.4787C39.1459 35.565 39.8785 34.8844 40.3285 33.9899C40.8664 32.9143 41.1161 32.1267 41.0447 31.3227C40.9898 30.516 40.5618 29.8904 40.1145 29.3882C39.6672 28.9053 38.9867 28.6364 38.2321 28.4745C37.8562 28.3839 37.4611 28.3482 37.033 28.3482C37.0303 28.329 37.0138 28.329 37.0138 28.329Z" fill="url(#paint4_linear_430_7847)"/>
<path fill-rule="evenodd" clip-rule="evenodd" d="M23.9908 2.86473C23.7767 3.56445 23.2911 4.33277 22.6105 5.08463C21.9108 5.85569 20.9971 6.64322 19.9406 7.37586C18.865 8.12772 17.6659 8.82744 16.3762 9.43386C15.0865 10.043 13.7255 10.5616 12.3453 10.9568C10.9842 11.3327 9.76589 11.5303 8.70945 11.5824C7.66948 11.6181 6.81061 11.5111 6.14656 11.2614C5.50172 11.0117 5.07091 10.6357 4.89255 10.1144C4.71419 9.61222 4.74987 9.00306 5.07091 8.28687C5.16147 8.07284 5.28495 7.85606 5.43038 7.64203C5.45782 7.59813 5.488 7.55697 5.51544 7.51306C5.63069 7.33745 5.75143 7.1536 5.89686 6.98073C6.07522 6.76669 6.27278 6.53346 6.47035 6.31943C6.52249 6.26729 6.57737 6.21241 6.6295 6.15753C6.79414 5.99014 6.96153 5.82002 7.15086 5.65812L7.7957 5.08463C8.74513 4.31356 9.76589 3.59738 10.8223 2.97175L11.3958 2.6507C11.3958 2.6507 10.2324 3.54524 9.65888 4.26143C9.33509 4.67303 9.08538 5.01328 8.92349 5.37275C8.7808 5.713 8.76159 6.01759 8.86861 6.25083C8.97562 6.48407 9.20886 6.66243 9.53265 6.76944C9.8537 6.87646 10.3037 6.93134 10.8059 6.89566C11.3245 6.85999 11.9172 6.75298 12.5785 6.57462C13.2425 6.37705 13.9038 6.12735 14.5322 5.82276C15.1578 5.51818 15.7506 5.17792 16.2692 4.8212C16.7878 4.46174 17.2378 4.08581 17.5945 3.70988C17.954 3.33395 18.2037 2.95803 18.3299 2.61777C18.4561 2.27752 18.4369 1.99214 18.2942 1.7589C18.1515 1.54487 17.8991 1.38297 17.5588 1.27596C17.2186 1.18541 16.7878 1.20462 16.2856 1.29517C16.1402 1.32261 15.981 1.3473 15.8192 1.372C15.4405 1.42962 15.0206 1.49273 14.5844 1.61896C14.1728 1.74518 13.9395 1.83299 13.5444 2.01409C14.7435 1.38846 15.4624 1.10034 16.7686 0.688742C17.611 0.419831 18.1845 0.277142 18.9555 0.134454C19.8501 -0.0274422 20.6047 -0.00823471 21.2852 0.0439012C21.9657 0.0987812 22.5584 0.241471 23.0057 0.474711C23.453 0.707951 23.7932 1.01253 23.9551 1.40493C24.1335 1.8275 24.1499 2.31044 23.9908 2.86473ZM40.8307 32.8429C40.8307 32.8429 40.8115 32.8923 40.7786 32.9774C40.4822 33.4192 40.1666 33.7978 39.8099 34.2039C38.6465 35.5101 37.2306 36.7833 35.6006 37.9275C33.9707 39.091 32.1432 40.131 30.1895 40.9898C28.2549 41.8487 26.1942 42.5484 24.1335 42.9765C23.2389 43.1548 22.3773 43.2975 21.5349 43.3881C20.7117 43.4594 19.905 43.5143 19.1531 43.4951C18.4013 43.4951 17.6851 43.4402 17.021 43.3332C16.3762 43.2427 15.6957 43.0478 15.1935 42.8503L15.3911 42.9408L16.1073 43.1905C16.1073 43.1905 16.9661 43.4238 17.5396 43.5308C18.0939 43.657 18.4177 43.7091 18.972 43.7805C19.1147 43.7997 19.3479 43.8354 19.3479 43.8354L20.6925 43.9616L22.0178 43.9973H22.2868L23.5216 43.9424C23.7191 43.9259 23.9167 43.9067 24.1307 43.8875C24.235 43.8683 24.3448 43.8546 24.4573 43.8409C24.556 43.8271 24.6576 43.8161 24.7591 43.7997L25.4039 43.6927C25.618 43.657 25.8347 43.6213 26.068 43.5665C27.215 43.3332 28.3428 42.993 29.4349 42.5814C30.527 42.1698 31.6026 41.6868 32.6069 41.1298C33.6112 40.5755 34.5607 39.9663 35.4387 39.3215C36.2976 38.6602 37.0879 37.9797 37.7849 37.2635L38.4489 36.5281C38.4489 36.5281 38.9511 35.9546 39.2556 35.5622L39.5245 35.2027C39.5245 35.2027 40.0075 34.5771 40.2599 34.1271C40.4602 33.7649 40.6825 33.2216 40.7813 32.9719C40.8115 32.928 40.8389 32.8841 40.8691 32.8374C40.8472 32.8072 40.8307 32.8429 40.8307 32.8429ZM30.4035 1.62993L28.9519 1.09211C28.9519 1.09211 28.2357 0.842405 27.7693 0.661301C27.429 0.570749 26.9104 0.447269 26.9104 0.447269C26.7403 0.395133 26.6195 0.378671 26.4055 0.345743L26.3726 0.340253L26.9104 0.482943C27.2699 0.589958 27.5909 0.716181 27.879 0.858869C28.3098 1.0729 28.6666 1.34181 28.9355 1.6656C29.2044 1.98665 29.3827 2.36532 29.4733 2.79339C29.5446 3.2242 29.5282 3.70714 29.4019 4.22575C29.133 5.24652 28.4882 6.35784 27.5196 7.48563C26.5509 8.63262 25.2448 9.77686 23.7219 10.869C22.1825 11.9611 20.4263 13.0011 18.5439 13.8956C16.6616 14.7901 14.6749 15.542 12.6855 16.0798C10.6961 16.6176 8.92349 16.8866 7.41978 16.903C5.93253 16.9222 4.69773 16.7247 3.78398 16.3131C2.88944 15.9179 2.29673 15.3115 2.04703 14.5569C1.81379 13.8215 1.90434 12.927 2.36808 11.9062L2.38728 11.8705L2.47784 11.673L1.99489 12.6937L1.45707 13.9477L0.938453 15.435L0.526854 16.9744L0.419838 17.4408C0.205806 18.533 0.348495 19.4824 0.814974 20.2534C1.29792 21.041 2.14032 21.6693 3.26811 22.0809C4.43156 22.5118 5.90234 22.7066 7.63929 22.6709C9.41192 22.6352 11.437 22.3307 13.6761 21.7572C16.1841 21.1123 18.6757 20.1821 21.0382 19.0543C23.3844 17.9265 25.5878 16.6176 27.5058 15.221C29.4047 13.8407 30.9989 12.3727 32.1816 10.9238C33.3451 9.50795 34.0997 8.09479 34.3686 6.78591C34.4591 6.30296 34.4948 5.83648 34.4399 5.40567C34.385 4.99408 34.278 4.59894 34.0997 4.24222C33.9213 3.88275 33.6881 3.58092 33.3835 3.2928C33.0981 3.02389 32.7386 2.77418 32.3435 2.5574L31.8414 2.28849L30.4035 1.62993ZM38.5888 7.55697L39.6645 8.91799L40.6496 10.3696L41.0804 11.105C41.2066 11.3382 41.3301 11.5714 41.4042 11.8404C41.4947 12.0901 41.5661 12.359 41.6182 12.6279C41.6704 12.8886 41.6896 13.1849 41.706 13.462L41.7088 13.4868C41.7088 13.7913 41.6923 14.0959 41.6539 14.417C41.4399 16.0826 40.6139 17.8552 39.2886 19.6635C37.9275 21.491 36.0644 23.335 33.8253 25.0527C31.5505 26.7897 28.9163 28.4004 26.0872 29.7614C23.2389 31.1224 20.2123 32.2145 17.1829 32.9307C15.0152 33.4329 13.0093 33.7182 11.1983 33.7896C9.40643 33.8609 7.81217 33.7182 6.45114 33.3945C5.10658 33.0734 3.99801 32.5877 3.1364 31.9429C2.29399 31.3172 1.68482 30.527 1.34457 29.6324L1.00431 28.6473L0.53783 26.9653L0.216783 25.264L0.145438 24.781L0.0548859 23.8316C0.18111 24.7454 0.557038 25.5329 1.18267 26.1942C1.88239 26.9461 2.90316 27.5195 4.19283 27.8955C5.50172 28.2906 7.09598 28.469 8.92349 28.3976C10.7867 28.3428 12.8831 28.0382 15.1578 27.4839C18.0253 26.7842 20.8736 25.7277 23.56 24.4572C26.2463 23.1676 28.7544 21.6639 30.9057 20.0531C33.0377 18.4424 34.8296 16.7411 36.1357 15.0563C37.4254 13.3907 38.2321 11.7608 38.4818 10.2379C38.5532 9.80705 38.5724 9.41465 38.5532 9.01952C38.534 8.64359 38.4626 8.28413 38.3556 7.94387C38.2486 7.60362 38.1059 7.29903 37.9083 6.99445C37.826 6.8545 37.719 6.72828 37.6092 6.59383C37.5763 6.55541 37.5461 6.51425 37.5132 6.47583L38.4077 7.42526L38.5888 7.55697ZM43.8381 23.7273C44.0714 22.3663 44.0165 21.5788 43.893 20.1986C43.8381 19.6607 43.6954 18.8019 43.6954 18.8019C43.6954 18.8019 43.4457 17.8525 43.4622 18.0308C43.4814 18.1927 43.4979 18.3711 43.4979 18.5494C43.4979 18.7278 43.4786 18.9089 43.4622 19.0872C43.2838 20.7885 42.4935 22.616 41.2039 24.4243C39.895 26.2875 38.0675 28.1315 35.8833 29.8492C33.6606 31.5862 31.0813 33.1804 28.2879 34.5222C25.4945 35.864 22.5008 36.9232 19.5098 37.6037C17.6467 38.0153 15.8905 38.265 14.2798 38.3391C12.6855 38.4105 11.2339 38.3391 9.94425 38.1059C8.67104 37.8919 7.57893 37.5159 6.64871 37.0302C5.86118 36.6186 5.23281 36.1165 4.71419 35.5265C4.71419 35.5265 5.16147 36.1357 5.48526 36.4924C5.93253 37.011 6.68439 37.7464 6.68439 37.7464L7.7957 38.748L9.12105 39.788C9.74943 40.2352 10.5013 40.6112 11.3602 40.8993C12.2382 41.1847 13.2041 41.4014 14.2798 41.5085C15.3554 41.6155 16.5381 41.6347 17.8086 41.5441C19.0818 41.4536 20.4428 41.2587 21.8752 40.9542C24.6329 40.3642 27.3741 39.3956 29.937 38.1608C32.5164 36.9424 34.8817 35.4579 36.9068 33.8445C38.9126 32.2502 40.5782 30.5132 41.7801 28.7763C42.9436 27.0586 43.4979 25.821 43.8381 23.7273Z" fill="currentColor"/>
</g>
<defs>
<linearGradient id="paint0_linear_430_7847" x1="11.3259" y1="42.5697" x2="44.5933" y2="15.905" gradientUnits="userSpaceOnUse">
<stop stop-color="currentColor" stop-opacity="0.4"/>
<stop offset="1" stop-color="currentColor" stop-opacity="0"/>
</linearGradient>
<linearGradient id="paint1_linear_430_7847" x1="0.675713" y1="36.0231" x2="40.8124" y2="4.95883" gradientUnits="userSpaceOnUse">
<stop stop-color="currentColor" stop-opacity="0.4"/>
<stop offset="1" stop-color="currentColor" stop-opacity="0"/>
</linearGradient>
<linearGradient id="paint2_linear_430_7847" x1="-3.42516" y1="26.773" x2="32.1246" y2="-1.30561" gradientUnits="userSpaceOnUse">
<stop stop-color="currentColor" stop-opacity="0.4"/>
<stop offset="1" stop-color="currentColor" stop-opacity="0"/>
</linearGradient>
<linearGradient id="paint3_linear_430_7847" x1="17.6164" y1="2.94506" x2="-0.594609" y2="15.1461" gradientUnits="userSpaceOnUse">
<stop stop-color="currentColor" stop-opacity="0.6"/>
<stop offset="1" stop-color="currentColor" stop-opacity="0"/>
</linearGradient>
<linearGradient id="paint4_linear_430_7847" x1="24.5822" y1="42.0972" x2="40.8791" y2="28.1227" gradientUnits="userSpaceOnUse">
<stop stop-color="currentColor" stop-opacity="0.4"/>
<stop offset="1" stop-color="currentColor" stop-opacity="0"/>
</linearGradient>
</defs>
</svg>
