<svg width="100%" viewBox="0 0 74 74" fill="none" xmlns="http://www.w3.org/2000/svg">
<mask id="mask0_1623_20033" style="mask-type:luminance" maskUnits="userSpaceOnUse" x="13" y="13" width="48" height="48">
<path d="M61 13H13V61H61V13Z" fill="currentColor"/>
</mask>
<g mask="url(#mask0_1623_20033)">
<path d="M43.4883 58.6532L42.5514 59.0034C42.9615 58.8657 43.3716 58.7101 43.8026 58.5335L43.4883 58.6532ZM47.5924 30.1106C45.6197 30.7752 43.5063 31.772 41.339 33.1011C39.1897 34.4302 37.1961 35.9718 35.397 37.6541C33.598 39.3335 31.9965 41.1325 30.6674 42.9885C29.3203 44.8444 28.2427 46.7602 27.4823 48.6161C26.719 50.511 26.3089 52.346 26.3299 54.0283C26.3508 55.082 26.5244 56.0219 26.8567 56.8422C27.2099 57.6624 27.6979 58.3658 28.3415 58.9136C28.9851 59.4794 29.7484 59.9494 30.6853 60.1439C31.6432 60.3595 32.5802 60.5151 33.8135 60.575H34.0679L35.867 60.4582L37.6272 60.2427L38.5072 60.0871L40.1087 59.7368L41.6533 59.2878L42.0844 59.1501L42.5544 58.9735C41.3809 59.3656 40.2674 59.5991 39.2526 59.6949C37.8846 59.8326 36.6543 59.6949 35.6185 59.3447C34.6038 58.9944 33.7806 58.3868 33.2148 57.5875C32.649 56.7853 32.3168 55.7705 32.2569 54.5791C32.197 53.2321 32.4904 51.7473 33.0591 50.2236C33.6249 48.7179 34.4661 47.1763 35.5407 45.6915C36.5974 44.2068 37.8846 42.743 39.3125 41.3929C40.7583 40.0459 42.3598 38.8156 44.102 37.7589C45.8412 36.7052 47.5415 35.9239 49.143 35.433C50.7654 34.9241 52.2711 34.7116 53.6182 34.7894C54.9652 34.8672 56.1596 35.2204 57.0576 35.882C57.9766 36.5465 58.6412 37.5224 58.9345 38.8126C59.0722 38.4204 59.9314 38.1301 60.0481 37.72C60.1648 37.3099 60.2636 36.9177 60.3415 36.5076C60.4193 36.0975 60.6737 33.8704 60.6947 33.4603C60.6169 33.2268 60.6348 32.9903 60.5001 32.7568C59.8954 31.6044 59.2698 31.1733 58.252 30.4908C57.0996 29.7095 54.8904 29.2006 53.1901 29.1617C53.1123 29.1617 53.0345 29.1617 52.9566 29.1617C51.3072 29.1557 49.5082 29.467 47.5924 30.1106Z" fill="url(#paint0_linear_1623_20033)"/>
<path d="M25.9796 56.3691L25.4318 56.1745C25.6084 56.2523 25.7821 56.3092 25.9796 56.3691ZM46.1076 18.2954C44.3864 18.472 42.5125 18.9599 40.5188 19.7412C38.5641 20.5225 36.4926 21.5971 34.3613 22.9831C31.9965 24.5068 29.7873 26.2849 27.7757 28.1977C25.7641 30.0926 23.9441 32.164 22.4025 34.2534C20.8399 36.3638 19.5497 38.5311 18.6307 40.6415C17.6728 42.7908 17.107 44.9012 16.9903 46.8349C16.9514 47.5773 16.9693 48.2418 17.0681 48.8854C17.1669 49.529 17.3226 50.1157 17.5381 50.6426C17.7536 51.1904 18.047 51.6783 18.3972 52.1064C18.7504 52.5375 19.1605 52.9266 19.6275 53.2379L21.229 54.2527L22.7527 55.0729L24.453 55.8153L25.4288 56.1655C24.9199 55.95 24.453 55.6955 24.0219 55.3842C23.4561 54.9741 22.9862 54.4652 22.615 53.8815C22.2438 53.2948 21.9714 52.6302 21.7738 51.8879C21.5972 51.1455 21.5194 50.3433 21.5403 49.4452C21.6002 47.6282 22.0881 45.6346 22.9293 43.623C23.7705 41.6293 24.9409 39.5998 26.3897 37.6241C27.8176 35.6694 29.4969 33.7356 31.3529 31.9784C33.2298 30.2003 35.3012 28.5599 37.5104 27.153C39.7196 25.7461 41.8689 24.6924 43.9014 23.9889C45.9549 23.2675 48.649 22.7586 50.3703 22.7586C52.1095 22.7795 53.6331 23.1687 54.8275 23.95C56.0399 24.7522 56.2734 26.1172 56.6835 27.7607L57.3271 27.623L55.2556 22.1928L54.7287 21.0014C54.0253 19.81 52.8339 19.0078 51.5048 18.5408C50.7235 18.2475 49.571 18.1487 48.3976 18.1487C47.6133 18.1786 46.8111 18.2175 46.1076 18.2954Z" fill="url(#paint1_linear_1623_20033)"/>
<path d="M15.5982 46.8348L15.4814 46.6403C15.5204 46.7181 15.5593 46.778 15.5982 46.8348ZM49.2925 17.7654C49.2146 17.6667 49.1159 17.5709 49.0201 17.493L49.2925 17.7654ZM37.7018 13.3112C36.4326 13.5836 35.5914 13.8769 34.1636 14.4846C32.7357 15.0893 31.2509 15.8526 29.7063 16.8105C27.575 18.1187 25.5245 19.6423 23.6476 21.2827C21.7707 22.9232 20.0315 24.7013 18.5258 26.5183C17.0021 28.3533 15.7119 30.2481 14.7331 32.0861C13.7363 33.963 13.3052 35.816 13.0118 37.5162C12.952 37.8485 13.0118 38.1598 12.9909 38.4741C12.9699 38.7855 13.2633 40.7611 13.5956 42.186C13.7333 42.7907 13.8111 43.1439 14.0266 43.7306C14.2601 44.4341 14.769 45.4698 14.769 45.4698L15.0234 45.9188L15.4725 46.6403C15.3168 46.3679 15.1791 46.0925 15.0803 45.7991C14.9426 45.4279 14.8468 45.0178 14.769 44.5868C14.7091 44.1557 14.6702 43.7067 14.6702 43.2397C14.6702 42.7697 14.7091 42.2638 14.787 41.734C15.0594 39.899 15.7628 37.9233 16.7986 35.9117C17.8133 33.9391 19.1634 31.9454 20.7469 30.0116C22.3095 28.0958 24.1086 26.2219 26.0812 24.5037C28.036 22.7855 30.1853 21.184 32.4333 19.8339C34.2504 18.7413 36.0105 17.8612 37.6899 17.2176C39.3692 16.574 40.9527 16.143 42.4195 15.9484C43.9043 15.7538 45.2333 15.7928 46.3858 16.0861C47.4216 16.3406 48.3016 16.8075 48.9841 17.4721L48.0083 16.4573L46.7001 15.2839L46.0356 14.757L44.5299 14.1523C43.7097 13.8979 42.7129 13.5267 41.6173 13.371C40.9527 13.2723 40.0337 13.1555 39.1147 13.1555C38.6418 13.1765 38.1508 13.2154 37.7018 13.3112Z" fill="url(#paint2_linear_1623_20033)"/>
<path d="M14.4277 32.4754C14.4277 32.4365 14.4277 32.3766 14.4277 32.3377V32.4754ZM28.4401 14.8949C27.2666 15.4427 26.641 15.775 25.5484 16.4575C22.2855 18.49 20.3308 19.5647 17.945 22.4953C16.9871 23.6687 16.4214 24.3512 15.7568 25.7192C15.4246 26.4017 15.0324 27.5153 15.0324 27.5153L14.8558 28.7665L14.6014 30.4668L14.4637 31.9905L14.4427 32.3826C14.4427 32.2839 14.4637 32.206 14.4637 32.1102C14.4846 31.9725 14.4846 31.8378 14.5235 31.7001C14.5445 31.5624 14.5624 31.4277 14.6014 31.2691C14.6403 31.1314 14.6612 30.9757 14.7001 30.8201C15.0923 29.3173 15.7568 27.7338 16.8105 25.9767C17.984 24.0219 18.864 23.0281 20.4835 21.4625C22.085 19.8999 23.1596 18.7654 25.0964 17.3405C26.2698 16.4814 29.1405 14.6644 30.8408 14.4309C30.9576 14.41 30.9965 14.41 30.9576 14.41C30.7869 14.368 29.1435 14.5417 28.4401 14.8949Z" fill="url(#paint3_linear_1623_20033)"/>
<path d="M46.6553 56.1146C46.2631 55.9978 45.9728 55.8033 45.7572 55.5099C45.5417 55.2165 45.425 54.8663 45.425 54.4353C45.425 54.0042 45.5417 53.5552 45.7572 53.0882C45.9728 52.6182 46.2661 52.1513 46.6373 51.7202C47.0085 51.2712 47.4575 50.8611 47.9454 50.4689C48.4334 50.0977 48.9812 49.7655 49.5469 49.4931C50.1127 49.2386 50.6605 49.062 51.1694 48.9842C51.6783 48.9064 52.1273 48.9243 52.5164 49.0231C52.9056 49.1219 53.2409 49.3165 53.4534 49.5709C53.6869 49.8433 53.8246 50.1965 53.8455 50.6066C53.8665 51.0377 53.7677 51.5047 53.5731 51.9746C53.3786 52.4446 53.0642 52.9325 52.6931 53.3995C52.3219 53.8695 51.8519 54.2976 51.346 54.7077C50.8371 55.0998 50.2714 55.45 49.6846 55.7045C49.0979 55.9769 48.5322 56.1355 48.0053 56.1924C47.8287 56.2134 47.6521 56.2313 47.4785 56.2313C47.1821 56.2313 46.9097 56.1924 46.6553 56.1146ZM53.3786 43.9043C52.9086 43.9043 52.4207 43.9432 51.8938 44.042C50.8581 44.2186 49.7445 44.5688 48.5711 45.1166C47.3976 45.6644 46.305 46.347 45.3082 47.1103C44.3114 47.8916 43.3924 48.7507 42.6321 49.6487C41.8687 50.5468 41.2251 51.5047 40.7761 52.4626C40.3271 53.4205 40.0517 54.3574 40.0128 55.2555C39.9739 56.1535 40.1894 56.9168 40.5995 57.5215C41.0096 58.1262 41.6352 58.5752 42.4165 58.8296C43.1978 59.102 44.1557 59.1619 45.2304 59.0452C46.305 58.9075 47.4575 58.2818 48.7088 57.737C49.978 57.1713 50.9359 56.369 52.0495 55.5309C53.1451 54.6897 54.103 53.7917 54.9022 52.7948C55.7045 51.798 56.5037 51.0556 56.9946 50.0798C57.5814 48.9063 57.8538 48.0472 57.7759 47.1702C57.7161 46.2901 57.2491 45.6076 56.7612 45.0598C56.2732 44.5329 55.5308 44.2396 54.7076 44.0629C54.2975 43.9642 53.8665 43.9252 53.3995 43.9252C53.3965 43.9043 53.3786 43.9043 53.3786 43.9043Z" fill="url(#paint4_linear_1623_20033)"/>
<path fill-rule="evenodd" clip-rule="evenodd" d="M39.1714 16.125C38.938 16.8884 38.4081 17.7265 37.6657 18.5468C36.9024 19.3879 35.9056 20.247 34.7531 21.0463C33.5797 21.8665 32.2715 22.6298 30.8646 23.2914C29.4577 23.9559 27.9729 24.5217 26.4672 24.9527C24.9825 25.3628 23.6534 25.5784 22.5009 25.6353C21.3664 25.6742 20.4294 25.5574 19.705 25.285C19.0016 25.0126 18.5316 24.6025 18.337 24.0338C18.1424 23.486 18.1814 22.8214 18.5316 22.0401C18.6304 21.8066 18.7651 21.5701 18.9237 21.3366C18.9537 21.2888 18.9866 21.2439 19.0165 21.196C19.1423 21.0044 19.274 20.8038 19.4326 20.6152C19.6272 20.3817 19.8427 20.1273 20.0583 19.8938C20.1151 19.8369 20.175 19.7771 20.2319 19.7172C20.4115 19.5346 20.5941 19.349 20.8006 19.1724L21.5041 18.5468C22.5398 17.7056 23.6534 16.9243 24.8059 16.2418L25.4315 15.8916C25.4315 15.8916 24.1623 16.8674 23.5367 17.6487C23.1834 18.0977 22.911 18.4689 22.7344 18.8611C22.5787 19.2323 22.5578 19.5645 22.6745 19.819C22.7913 20.0734 23.0457 20.268 23.399 20.3847C23.7492 20.5015 24.2401 20.5613 24.7879 20.5224C25.3537 20.4835 26.0003 20.3668 26.7217 20.1722C27.4461 19.9567 28.1675 19.6843 28.853 19.352C29.5355 19.0197 30.1821 18.6485 30.7479 18.2594C31.3136 17.8672 31.8046 17.4571 32.1937 17.047C32.5859 16.6369 32.8583 16.2268 32.996 15.8556C33.1337 15.4845 33.1127 15.1731 32.957 14.9187C32.8014 14.6852 32.526 14.5086 32.1548 14.3918C31.7836 14.2931 31.3136 14.314 30.7658 14.4128C30.6072 14.4427 30.4336 14.4697 30.2569 14.4966C29.8439 14.5595 29.3859 14.6283 28.9099 14.766C28.4609 14.9037 28.2064 14.9995 27.7754 15.1971C29.0835 14.5146 29.8678 14.2003 31.2927 13.7512C32.2117 13.4579 32.8373 13.3022 33.6785 13.1466C34.6543 12.97 35.4775 12.9909 36.2199 13.0478C36.9623 13.1077 37.6089 13.2633 38.0968 13.5178C38.5847 13.7722 38.9559 14.1045 39.1325 14.5325C39.3271 14.9935 39.3451 15.5204 39.1714 16.125ZM57.5423 48.8285C57.5423 48.8285 57.5213 48.8824 57.4854 48.9752C57.1621 49.4571 56.8178 49.8702 56.4287 50.3133C55.1595 51.7382 53.6149 53.1271 51.8367 54.3754C50.0586 55.6446 48.065 56.7791 45.9337 57.7161C43.8233 58.653 41.5752 59.4163 39.3271 59.8833C38.3512 60.0779 37.4113 60.2336 36.4923 60.3323C35.5943 60.4102 34.7142 60.47 33.894 60.4491C33.0738 60.4491 32.2925 60.3892 31.5681 60.2725C30.8646 60.1737 30.1222 59.9612 29.5744 59.7456L29.79 59.8444L30.5713 60.1168C30.5713 60.1168 31.5082 60.3713 32.1338 60.488C32.7385 60.6257 33.0917 60.6826 33.6964 60.7604C33.8521 60.7814 34.1065 60.8203 34.1065 60.8203L35.5733 60.958L37.0192 60.9969H37.3125L38.6596 60.937C38.8751 60.9191 39.0906 60.8981 39.3241 60.8772C39.4379 60.8562 39.5576 60.8412 39.6803 60.8263C39.7881 60.8113 39.8989 60.7993 40.0096 60.7814L40.7131 60.6646C40.9466 60.6257 41.183 60.5868 41.4375 60.5269C42.6888 60.2725 43.9191 59.9013 45.1105 59.4523C46.3018 59.0033 47.4753 58.4764 48.5709 57.8687C49.6665 57.2641 50.7022 56.5995 51.6601 55.8961C52.5971 55.1746 53.4592 54.4323 54.2195 53.651L54.9439 52.8487C54.9439 52.8487 55.4917 52.2231 55.824 51.795L56.1174 51.4029C56.1174 51.4029 56.6442 50.7204 56.9196 50.2294C57.1381 49.8343 57.3806 49.2416 57.4884 48.9692C57.5213 48.9213 57.5512 48.8734 57.5842 48.8225C57.5602 48.7896 57.5423 48.8285 57.5423 48.8285ZM46.1671 14.778L44.5836 14.1913C44.5836 14.1913 43.8023 13.9189 43.2934 13.7213C42.9222 13.6225 42.3565 13.4878 42.3565 13.4878C42.1709 13.4309 42.0392 13.413 41.8057 13.3771L41.7698 13.3711L42.3565 13.5267C42.7486 13.6435 43.0989 13.7812 43.4132 13.9368C43.8831 14.1703 44.2723 14.4637 44.5656 14.8169C44.859 15.1671 45.0536 15.5802 45.1524 16.0472C45.2302 16.5172 45.2122 17.044 45.0745 17.6098C44.7812 18.7234 44.0777 19.9357 43.021 21.166C41.9643 22.4173 40.5395 23.6656 38.8781 24.857C37.1988 26.0483 35.283 27.1829 33.2294 28.1587C31.1759 29.1346 29.0087 29.9548 26.8384 30.5415C24.6682 31.1282 22.7344 31.4216 21.094 31.4395C19.4715 31.4605 18.1245 31.245 17.1277 30.796C16.1518 30.3649 15.5052 29.7034 15.2328 28.8802C14.9784 28.0779 15.0772 27.102 15.583 25.9885L15.604 25.9496L15.7028 25.734L15.1759 26.8476L14.5892 28.2156L14.0235 29.8381L13.5744 31.5174L13.4577 32.0263C13.2242 33.2177 13.3799 34.2534 13.8888 35.0946C14.4156 35.9537 15.3346 36.6392 16.5649 37.0882C17.8341 37.5582 19.4386 37.7707 21.3335 37.7318C23.2672 37.6929 25.4764 37.3606 27.9191 36.735C30.6551 36.0315 33.3731 35.0167 35.9505 33.7864C38.5099 32.5561 40.9136 31.1282 43.0061 29.6046C45.0775 28.0989 46.8167 26.4974 48.1069 24.9168C49.3761 23.3722 50.1993 21.8306 50.4927 20.4027C50.5915 19.8758 50.6304 19.367 50.5705 18.897C50.5106 18.448 50.3939 18.0169 50.1993 17.6278C50.0047 17.2356 49.7503 16.9063 49.418 16.592C49.1067 16.2987 48.7146 16.0263 48.2835 15.7898L47.7357 15.4964L46.1671 14.778ZM55.0966 21.2439L56.27 22.7286L57.3447 24.3121L57.8147 25.1144C57.9524 25.3688 58.0871 25.6233 58.1679 25.9166C58.2667 26.189 58.3445 26.4824 58.4014 26.7758C58.4583 27.0601 58.4792 27.3834 58.4972 27.6858L58.5002 27.7127C58.5002 28.045 58.4822 28.3772 58.4403 28.7275C58.2068 30.5445 57.3058 32.4783 55.8599 34.451C54.3752 36.4446 52.3426 38.4562 49.9 40.3301C47.4184 42.225 44.5447 43.9821 41.4584 45.4669C38.3512 46.9516 35.0495 48.143 31.7447 48.9243C29.3799 49.4721 27.1917 49.7834 25.216 49.8613C23.2613 49.9391 21.5221 49.7834 20.0373 49.4302C18.5705 49.08 17.3612 48.5501 16.4212 47.8467C15.5022 47.1642 14.8377 46.302 14.4665 45.3262L14.0953 44.2515L13.5864 42.4165L13.2362 40.5606L13.1584 40.0337L13.0596 38.998C13.1973 39.9948 13.6074 40.854 14.2899 41.5754C15.0532 42.3956 16.1668 43.0212 17.5737 43.4313C19.0016 43.8624 20.7408 44.057 22.7344 43.9791C24.767 43.9193 27.054 43.587 29.5355 42.9823C32.6637 42.219 35.7709 41.0665 38.7015 39.6805C41.6321 38.2736 44.3681 36.6332 46.7149 34.876C49.0409 33.1189 50.9956 31.2629 52.4205 29.425C53.8274 27.6079 54.7075 25.8298 54.9799 24.1685C55.0577 23.6985 55.0786 23.2704 55.0577 22.8394C55.0367 22.4293 54.9589 22.0371 54.8422 21.6659C54.7254 21.2947 54.5698 20.9625 54.3542 20.6302C54.2644 20.4775 54.1477 20.3398 54.028 20.1932C53.992 20.1512 53.9591 20.1063 53.9232 20.0644L54.899 21.1002L55.0966 21.2439ZM60.8231 38.8843C61.0775 37.3995 61.0177 36.5404 60.883 35.0347C60.8231 34.448 60.6674 33.511 60.6674 33.511C60.6674 33.511 60.395 32.4753 60.413 32.6699C60.4339 32.8465 60.4519 33.041 60.4519 33.2356C60.4519 33.4302 60.4309 33.6278 60.413 33.8223C60.2184 35.6783 59.3563 37.6719 57.9494 39.6446C56.5215 41.6772 54.5279 43.6888 52.1451 45.5627C49.7204 47.4575 46.9065 49.1967 43.8592 50.6605C40.8119 52.1243 37.546 53.2798 34.2831 54.0222C32.2506 54.4712 30.3348 54.7436 28.5776 54.8244C26.8384 54.9022 25.2549 54.8244 23.848 54.5699C22.459 54.3365 21.2676 53.9264 20.2528 53.3965C19.3937 52.9475 18.7082 52.3997 18.1425 51.7561C18.1425 51.7561 18.6304 52.4207 18.9836 52.8098C19.4715 53.3756 20.2917 54.1778 20.2917 54.1778L21.5041 55.2704L22.9499 56.4049C23.6354 56.8929 24.4556 57.303 25.3926 57.6173C26.3505 57.9286 27.4042 58.1651 28.5776 58.2818C29.7511 58.3986 31.0412 58.4195 32.4272 58.3208C33.8162 58.222 35.3009 58.0094 36.8635 57.6772C39.8719 57.0336 42.8624 55.9769 45.6583 54.6298C48.4721 53.3007 51.0525 51.6813 53.2616 49.9211C55.4498 48.1819 57.2669 46.2871 58.578 44.3922C59.8472 42.5183 60.4519 41.1683 60.8231 38.8843Z" fill="currentColor"/>
</g>
<defs>
<linearGradient id="paint0_linear_1623_20033" x1="25.3555" y1="59.4397" x2="61.6472" y2="30.351" gradientUnits="userSpaceOnUse">
<stop stop-color="currentColor" stop-opacity="0.4"/>
<stop offset="1" stop-color="currentColor" stop-opacity="0"/>
</linearGradient>
<linearGradient id="paint1_linear_1623_20033" x1="13.7372" y1="52.2979" x2="57.5227" y2="18.4096" gradientUnits="userSpaceOnUse">
<stop stop-color="currentColor" stop-opacity="0.4"/>
<stop offset="1" stop-color="currentColor" stop-opacity="0"/>
</linearGradient>
<linearGradient id="paint2_linear_1623_20033" x1="9.26332" y1="42.2068" x2="48.0448" y2="11.5755" gradientUnits="userSpaceOnUse">
<stop stop-color="currentColor" stop-opacity="0.4"/>
<stop offset="1" stop-color="currentColor" stop-opacity="0"/>
</linearGradient>
<linearGradient id="paint3_linear_1623_20033" x1="32.2177" y1="16.2128" x2="12.3512" y2="29.523" gradientUnits="userSpaceOnUse">
<stop stop-color="currentColor" stop-opacity="0.6"/>
<stop offset="1" stop-color="currentColor" stop-opacity="0"/>
</linearGradient>
<linearGradient id="paint4_linear_1623_20033" x1="39.8168" y1="58.9241" x2="57.5952" y2="43.6792" gradientUnits="userSpaceOnUse">
<stop stop-color="currentColor" stop-opacity="0.4"/>
<stop offset="1" stop-color="currentColor" stop-opacity="0"/>
</linearGradient>
</defs>
</svg>
