<svg width="100%" viewBox="0 0 44 44" fill="none" xmlns="http://www.w3.org/2000/svg">
<mask id="mask0_2262_2598" style="mask-type:luminance" maskUnits="userSpaceOnUse" x="0" y="0" width="44" height="44">
<path d="M44 0H0V44H44V0Z" fill="white"/>
</mask>
<g mask="url(#mask0_2262_2598)">
<path d="M27.9476 41.8487L27.0887 42.1697C27.4646 42.0435 27.8405 41.9008 28.2357 41.7389L27.9476 41.8487ZM31.7096 15.6847C29.9013 16.2938 27.964 17.2076 25.9774 18.4259C24.0072 19.6443 22.1797 21.0574 20.5305 22.5996C18.8814 24.1389 17.4134 25.7881 16.195 27.4894C14.9602 29.1906 13.9724 30.9468 13.2754 32.6481C12.5757 34.385 12.1998 36.0671 12.219 37.6092C12.2382 38.5751 12.3973 39.4367 12.7019 40.1886C13.0257 40.9404 13.473 41.5853 14.0629 42.0874C14.6529 42.606 15.3526 43.0369 16.2115 43.2152C17.0896 43.4128 17.9484 43.5555 19.079 43.6103H19.3122L20.9613 43.5033L22.5748 43.3058L23.3815 43.1631L24.8496 42.842L26.2655 42.4304L26.6606 42.3042L27.0914 42.1423C26.0158 42.5018 24.995 42.7158 24.0648 42.8036C22.8108 42.9298 21.683 42.8036 20.7336 42.4826C19.8034 42.1615 19.0488 41.6045 18.5302 40.8718C18.0115 40.1364 17.707 39.2062 17.6521 38.1141C17.5972 36.8793 17.8661 35.5183 18.3875 34.1216C18.9061 32.7414 19.6771 31.3282 20.6622 29.9672C21.6309 28.6062 22.8108 27.2643 24.1197 26.0268C25.445 24.792 26.9131 23.6642 28.5101 22.6956C30.1043 21.7297 31.6629 21.0135 33.131 20.5635C34.6182 20.097 35.9984 19.9022 37.2332 19.9735C38.468 20.0449 39.5629 20.3687 40.3861 20.9751C41.2285 21.5843 41.8377 22.4788 42.1066 23.6615C42.2328 23.302 43.0203 23.0359 43.1274 22.6599C43.2344 22.284 43.3249 21.9245 43.3963 21.5486C43.4676 21.1727 43.7008 19.1311 43.7201 18.7552C43.6487 18.5412 43.6652 18.3244 43.5417 18.1104C42.9874 17.0539 42.4139 16.6588 41.481 16.0332C40.4245 15.317 38.3994 14.8505 36.8409 14.8148C36.7695 14.8148 36.6982 14.8148 36.6268 14.8148C35.1149 14.8093 33.4657 15.0947 31.7096 15.6847Z" fill="url(#paint0_linear_2262_2598)"/>
<path d="M11.8981 39.755L11.396 39.5767C11.5579 39.648 11.717 39.7001 11.8981 39.755ZM30.3488 4.85412C28.771 5.01601 27.0532 5.46329 25.2257 6.17947C23.4339 6.89565 21.535 7.88075 19.5813 9.15122C17.4136 10.5479 15.3885 12.1779 13.5445 13.9313C11.7005 15.6682 10.0322 17.5671 8.61904 19.4824C7.18667 21.4169 6.00401 23.4035 5.1616 25.3381C4.28352 27.3083 3.76491 29.2428 3.65789 31.0154C3.62222 31.6959 3.63868 32.3051 3.72923 32.895C3.81979 33.485 3.96247 34.0228 4.16004 34.5058C4.35761 35.0079 4.62652 35.4552 4.94757 35.8476C5.27136 36.2427 5.64729 36.5994 6.07535 36.8848L7.54339 37.815L8.94009 38.5669L10.4987 39.2474L11.3932 39.5684C10.9267 39.3709 10.4987 39.1376 10.1035 38.8523C9.58493 38.4763 9.15412 38.0098 8.81386 37.4748C8.47361 36.9369 8.2239 36.3278 8.0428 35.6473C7.8809 34.9668 7.80956 34.2314 7.82877 33.4082C7.88365 31.7426 8.33092 29.9151 9.10198 28.0711C9.87305 26.2436 10.9459 24.3832 12.274 22.5721C13.5829 20.7803 15.1223 19.0077 16.8236 17.3969C18.5441 15.767 20.4429 14.2633 22.468 12.9736C24.4931 11.6839 26.4633 10.718 28.3264 10.0732C30.2088 9.4119 32.6784 8.94542 34.2562 8.94542C35.8505 8.96463 37.2472 9.32135 38.342 10.0375C39.4533 10.7729 39.6674 12.0242 40.0433 13.5306L40.6333 13.4044L38.7344 8.42681L38.2515 7.3347C37.6066 6.24258 36.5145 5.50719 35.2962 5.07913C34.58 4.81022 33.5236 4.71967 32.4479 4.71967C31.729 4.74711 30.9936 4.78277 30.3488 4.85412Z" fill="url(#paint1_linear_2262_2598)"/>
<path d="M2.38183 31.0154L2.27481 30.8371C2.31048 30.9084 2.34616 30.9633 2.38183 31.0154ZM33.2683 4.36846C33.1969 4.27791 33.1064 4.1901 33.0186 4.11875L33.2683 4.36846ZM22.6435 0.285389C21.4801 0.535093 20.709 0.804004 19.4001 1.36104C18.0912 1.91532 16.7302 2.61504 15.3143 3.49312C13.3606 4.69225 11.4809 6.08895 9.76044 7.59266C8.03995 9.09637 6.44569 10.7263 5.06546 12.3919C3.66876 14.074 2.4861 15.8109 1.58881 17.4957C0.675062 19.2162 0.279927 20.9148 0.0110149 22.4734C-0.0438651 22.7779 0.011015 23.0633 -0.00819302 23.3514C-0.027401 23.6368 0.24151 25.4478 0.546094 26.754C0.672317 27.3083 0.743662 27.6321 0.94123 28.1699C1.15526 28.8147 1.62174 29.7642 1.62174 29.7642L1.85498 30.1758L2.26658 30.8371C2.12389 30.5874 1.99767 30.3349 1.90712 30.066C1.78089 29.7257 1.69308 29.3498 1.62174 28.9547C1.56686 28.5595 1.53119 28.1479 1.53119 27.7199C1.53119 27.2891 1.56686 26.8253 1.63821 26.3397C1.88791 24.6576 2.53275 22.8465 3.48217 21.0026C4.41239 19.1943 5.64993 17.3668 7.1015 15.5942C8.53387 13.838 10.183 12.1203 11.9913 10.5452C13.7831 8.97014 15.7533 7.50211 17.8141 6.26456C19.4797 5.263 21.0931 4.45627 22.6325 3.86631C24.1719 3.27635 25.6235 2.88121 26.968 2.70285C28.3291 2.52449 29.5474 2.56016 30.6038 2.82908C31.5533 3.06232 32.36 3.49038 32.9856 4.09954L32.0911 3.16933L30.892 2.09368L30.2828 1.61074L28.9026 1.05645C28.1507 0.823212 27.237 0.482956 26.2327 0.340268C25.6235 0.249716 24.7811 0.1427 23.9387 0.1427C23.5051 0.161908 23.0551 0.197581 22.6435 0.285389Z" fill="url(#paint2_linear_2262_2598)"/>
<path d="M1.30884 17.8525C1.30884 17.8168 1.30884 17.7619 1.30884 17.7262V17.8525ZM14.1535 1.73697C13.0778 2.23912 12.5043 2.5437 11.5028 3.16933C8.51183 5.0325 6.72 6.0176 4.53304 8.70398C3.65496 9.77962 3.13634 10.4053 2.52717 11.6593C2.22259 12.2849 1.86313 13.3057 1.86313 13.3057L1.70123 14.4527L1.46799 16.0112L1.34177 17.4079L1.32256 17.7674C1.32256 17.6768 1.34177 17.6055 1.34177 17.5177C1.36097 17.3915 1.36097 17.268 1.39665 17.1418C1.41585 17.0155 1.43232 16.8921 1.46799 16.7466C1.50366 16.6204 1.52287 16.4777 1.55854 16.335C1.91801 14.9575 2.52717 13.506 3.49306 11.8952C4.56871 10.1034 5.37544 9.19241 6.85995 7.75729C8.32799 6.32493 9.31308 5.28496 11.0884 3.97881C12.1641 3.19129 14.7956 1.52568 16.3542 1.31165C16.4612 1.29244 16.4969 1.29244 16.4612 1.29244C16.3048 1.25402 14.7983 1.41318 14.1535 1.73697Z" fill="url(#paint3_linear_2262_2598)"/>
<path d="M30.8509 39.5218C30.4914 39.4148 30.2252 39.2364 30.0277 38.9675C29.8301 38.6986 29.7231 38.3776 29.7231 37.9824C29.7231 37.5873 29.8301 37.1757 30.0277 36.7476C30.2252 36.3168 30.4941 35.8887 30.8344 35.4936C31.1747 35.082 31.5863 34.7061 32.0335 34.3466C32.4808 34.0064 32.9829 33.7018 33.5016 33.4521C34.0202 33.2188 34.5223 33.0569 34.9888 32.9856C35.4553 32.9143 35.8669 32.9307 36.2236 33.0213C36.5803 33.1118 36.8877 33.2902 37.0825 33.5234C37.2965 33.7731 37.4227 34.0969 37.4419 34.4728C37.4612 34.868 37.3706 35.296 37.1922 35.7269C37.0139 36.1577 36.7258 36.6049 36.3855 37.033C36.0452 37.4638 35.6144 37.8562 35.1507 38.2321C34.6842 38.5916 34.1656 38.9126 33.6278 39.1459C33.09 39.3956 32.5713 39.541 32.0884 39.5931C31.9265 39.6124 31.7646 39.6288 31.6055 39.6288C31.3338 39.6288 31.0841 39.5931 30.8509 39.5218ZM37.0139 28.329C36.5831 28.329 36.1358 28.3647 35.6529 28.4553C34.7034 28.6172 33.6827 28.9382 32.607 29.4404C31.5314 29.9425 30.5298 30.5681 29.6161 31.2679C28.7023 31.984 27.8599 32.7716 27.1629 33.5948C26.4632 34.418 25.8732 35.296 25.4616 36.1741C25.05 37.0522 24.7976 37.9111 24.7619 38.7343C24.7263 39.5575 24.9238 40.2572 25.2998 40.8115C25.6757 41.3658 26.2492 41.7774 26.9654 42.0106C27.6815 42.2603 28.5596 42.3152 29.5447 42.2082C30.5298 42.082 31.5863 41.5085 32.7332 41.009C33.8967 40.4904 34.7748 39.755 35.7955 38.9867C36.7998 38.2157 37.6779 37.3925 38.4106 36.4787C39.146 35.565 39.8786 34.8844 40.3286 33.9899C40.8665 32.9143 41.1162 32.1267 41.0448 31.3227C40.9899 30.516 40.5619 29.8904 40.1146 29.3882C39.6673 28.9053 38.9868 28.6364 38.2322 28.4745C37.8563 28.3839 37.4612 28.3482 37.0331 28.3482C37.0303 28.329 37.0139 28.329 37.0139 28.329Z" fill="url(#paint4_linear_2262_2598)"/>
<path fill-rule="evenodd" clip-rule="evenodd" d="M23.9908 2.86473C23.7768 3.56445 23.2911 4.33277 22.6106 5.08463C21.9109 5.85569 20.9971 6.64322 19.9407 7.37586C18.865 8.12772 17.6659 8.82744 16.3762 9.43386C15.0866 10.043 13.7255 10.5616 12.3453 10.9568C10.9843 11.3327 9.76594 11.5303 8.7095 11.5824C7.66953 11.6181 6.81065 11.5111 6.14661 11.2614C5.50177 11.0117 5.07096 10.6357 4.8926 10.1144C4.71424 9.61222 4.74991 9.00306 5.07096 8.28687C5.16151 8.07284 5.28499 7.85606 5.43042 7.64203C5.45786 7.59813 5.48805 7.55697 5.51549 7.51306C5.63074 7.33745 5.75147 7.1536 5.8969 6.98073C6.07526 6.76669 6.27283 6.53346 6.4704 6.31943C6.52253 6.26729 6.57741 6.21241 6.62955 6.15753C6.79419 5.99014 6.96157 5.82002 7.15091 5.65812L7.79575 5.08463C8.74517 4.31356 9.76594 3.59738 10.8224 2.97175L11.3959 2.6507C11.3959 2.6507 10.2324 3.54524 9.65892 4.26143C9.33513 4.67303 9.08543 5.01328 8.92353 5.37275C8.78084 5.713 8.76164 6.01759 8.86865 6.25083C8.97567 6.48407 9.20891 6.66243 9.5327 6.76944C9.85375 6.87646 10.3038 6.93134 10.8059 6.89566C11.3245 6.85999 11.9172 6.75298 12.5785 6.57462C13.2426 6.37705 13.9039 6.12735 14.5323 5.82276C15.1579 5.51818 15.7506 5.17792 16.2692 4.8212C16.7878 4.46174 17.2378 4.08581 17.5946 3.70988C17.954 3.33395 18.2037 2.95803 18.33 2.61777C18.4562 2.27752 18.437 1.99214 18.2943 1.7589C18.1516 1.54487 17.8991 1.38297 17.5589 1.27596C17.2186 1.18541 16.7878 1.20462 16.2857 1.29517C16.1402 1.32261 15.9811 1.3473 15.8192 1.372C15.4405 1.42962 15.0207 1.49273 14.5844 1.61896C14.1728 1.74518 13.9396 1.83299 13.5444 2.01409C14.7436 1.38846 15.4625 1.10034 16.7686 0.688742C17.611 0.419831 18.1845 0.277142 18.9556 0.134454C19.8501 -0.0274422 20.6047 -0.00823471 21.2852 0.0439012C21.9658 0.0987812 22.5585 0.241471 23.0057 0.474711C23.453 0.707951 23.7933 1.01253 23.9552 1.40493C24.1335 1.8275 24.15 2.31044 23.9908 2.86473ZM40.8307 32.8429C40.8307 32.8429 40.8115 32.8923 40.7786 32.9774C40.4822 33.4192 40.1667 33.7978 39.81 34.2039C38.6465 35.5101 37.2306 36.7833 35.6007 37.9275C33.9707 39.091 32.1432 40.131 30.1895 40.9898C28.255 41.8487 26.1943 42.5484 24.1335 42.9765C23.239 43.1548 22.3774 43.2975 21.5349 43.3881C20.7117 43.4594 19.905 43.5143 19.1532 43.4951C18.4013 43.4951 17.6851 43.4402 17.0211 43.3332C16.3762 43.2427 15.6957 43.0478 15.1936 42.8503L15.3911 42.9408L16.1073 43.1905C16.1073 43.1905 16.9662 43.4238 17.5397 43.5308C18.094 43.657 18.4178 43.7091 18.972 43.7805C19.1147 43.7997 19.348 43.8354 19.348 43.8354L20.6925 43.9616L22.0179 43.9973H22.2868L23.5216 43.9424C23.7192 43.9259 23.9167 43.9067 24.1308 43.8875C24.235 43.8683 24.3448 43.8546 24.4573 43.8409C24.5561 43.8271 24.6576 43.8161 24.7591 43.7997L25.404 43.6927C25.618 43.657 25.8348 43.6213 26.068 43.5665C27.215 43.3332 28.3428 42.993 29.4349 42.5814C30.527 42.1698 31.6027 41.6868 32.607 41.1298C33.6113 40.5755 34.5607 39.9663 35.4388 39.3215C36.2977 38.6602 37.0879 37.9797 37.7849 37.2635L38.4489 36.5281C38.4489 36.5281 38.9511 35.9546 39.2557 35.5622L39.5246 35.2027C39.5246 35.2027 40.0075 34.5771 40.26 34.1271C40.4603 33.7649 40.6826 33.2216 40.7813 32.9719C40.8115 32.928 40.839 32.8841 40.8691 32.8374C40.8472 32.8072 40.8307 32.8429 40.8307 32.8429ZM30.4035 1.62993L28.952 1.09211C28.952 1.09211 28.2358 0.842405 27.7693 0.661301C27.4291 0.570749 26.9104 0.447269 26.9104 0.447269C26.7403 0.395133 26.6196 0.378671 26.4055 0.345743L26.3726 0.340253L26.9104 0.482943C27.2699 0.589958 27.5909 0.716181 27.8791 0.858869C28.3099 1.0729 28.6666 1.34181 28.9355 1.6656C29.2044 1.98665 29.3828 2.36532 29.4733 2.79339C29.5447 3.2242 29.5282 3.70714 29.402 4.22575C29.1331 5.24652 28.4882 6.35784 27.5196 7.48563C26.551 8.63262 25.2448 9.77686 23.7219 10.869C22.1825 11.9611 20.4264 13.0011 18.544 13.8956C16.6616 14.7901 14.675 15.542 12.6856 16.0798C10.6962 16.6176 8.92353 16.8866 7.41982 16.903C5.93258 16.9222 4.69778 16.7247 3.78403 16.3131C2.88948 15.9179 2.29678 15.3115 2.04707 14.5569C1.81383 13.8215 1.90439 12.927 2.36812 11.9062L2.38733 11.8705L2.47788 11.673L1.99494 12.6937L1.45711 13.9477L0.938499 15.435L0.5269 16.9744L0.419884 17.4408C0.205852 18.533 0.348541 19.4824 0.81502 20.2534C1.29796 21.041 2.14037 21.6693 3.26815 22.0809C4.43161 22.5118 5.90239 22.7066 7.63934 22.6709C9.41196 22.6352 11.437 22.3307 13.6761 21.7572C16.1841 21.1123 18.6757 20.1821 21.0383 19.0543C23.3844 17.9265 25.5878 16.6176 27.5059 15.221C29.4047 13.8407 30.999 12.3727 32.1817 10.9238C33.3451 9.50795 34.0997 8.09479 34.3686 6.78591C34.4592 6.30296 34.4948 5.83648 34.44 5.40567C34.3851 4.99408 34.2781 4.59894 34.0997 4.24222C33.9213 3.88275 33.6881 3.58092 33.3835 3.2928C33.0982 3.02389 32.7387 2.77418 32.3436 2.5574L31.8414 2.28849L30.4035 1.62993ZM38.5889 7.55697L39.6645 8.91799L40.6496 10.3696L41.0804 11.105C41.2067 11.3382 41.3301 11.5714 41.4042 11.8404C41.4948 12.0901 41.5661 12.359 41.6183 12.6279C41.6704 12.8886 41.6896 13.1849 41.7061 13.462L41.7088 13.4868C41.7088 13.7913 41.6924 14.0959 41.6539 14.417C41.4399 16.0826 40.614 17.8552 39.2886 19.6635C37.9276 21.491 36.0644 23.335 33.8253 25.0527C31.5505 26.7897 28.9163 28.4004 26.0872 29.7614C23.239 31.1224 20.2123 32.2145 17.183 32.9307C15.0152 33.4329 13.0093 33.7182 11.1983 33.7896C9.40648 33.8609 7.81221 33.7182 6.45119 33.3945C5.10663 33.0734 3.99806 32.5877 3.13644 31.9429C2.29403 31.3172 1.68487 30.527 1.34461 29.6324L1.00435 28.6473L0.537876 26.9653L0.216829 25.264L0.145484 24.781L0.0549316 23.8316C0.181156 24.7454 0.557083 25.5329 1.18271 26.1942C1.88243 26.9461 2.9032 27.5195 4.19288 27.8955C5.50177 28.2906 7.09603 28.469 8.92353 28.3976C10.7867 28.3428 12.8831 28.0382 15.1579 27.4839C18.0254 26.7842 20.8736 25.7277 23.56 24.4572C26.2464 23.1676 28.7544 21.6639 30.9057 20.0531C33.0378 18.4424 34.8296 16.7411 36.1358 15.0563C37.4254 13.3907 38.2322 11.7608 38.4819 10.2379C38.5532 9.80705 38.5724 9.41465 38.5532 9.01952C38.534 8.64359 38.4627 8.28413 38.3556 7.94387C38.2486 7.60362 38.1059 7.29903 37.9084 6.99445C37.8261 6.8545 37.719 6.72828 37.6093 6.59383C37.5764 6.55541 37.5462 6.51425 37.5132 6.47583L38.4078 7.42526L38.5889 7.55697ZM43.8382 23.7273C44.0714 22.3663 44.0165 21.5788 43.893 20.1986C43.8382 19.6607 43.6955 18.8019 43.6955 18.8019C43.6955 18.8019 43.4458 17.8525 43.4622 18.0308C43.4814 18.1927 43.4979 18.3711 43.4979 18.5494C43.4979 18.7278 43.4787 18.9089 43.4622 19.0872C43.2839 20.7885 42.4936 22.616 41.2039 24.4243C39.895 26.2875 38.0675 28.1315 35.8833 29.8492C33.6607 31.5862 31.0813 33.1804 28.2879 34.5222C25.4945 35.864 22.5008 36.9232 19.5099 37.6037C17.6467 38.0153 15.8905 38.265 14.2798 38.3391C12.6856 38.4105 11.234 38.3391 9.9443 38.1059C8.67108 37.8919 7.57897 37.5159 6.64876 37.0302C5.86123 36.6186 5.23286 36.1165 4.71424 35.5265C4.71424 35.5265 5.16151 36.1357 5.4853 36.4924C5.93257 37.011 6.68443 37.7464 6.68443 37.7464L7.79575 38.748L9.1211 39.788C9.74948 40.2352 10.5013 40.6112 11.3602 40.8993C12.2383 41.1847 13.2042 41.4014 14.2798 41.5085C15.3555 41.6155 16.5381 41.6347 17.8086 41.5441C19.0818 41.4536 20.4428 41.2587 21.8752 40.9542C24.6329 40.3642 27.3742 39.3956 29.9371 38.1608C32.5164 36.9424 34.8817 35.4579 36.9068 33.8445C38.9127 32.2502 40.5783 30.5132 41.7802 28.7763C42.9436 27.0586 43.4979 25.821 43.8382 23.7273Z" fill="white"/>
</g>
<defs>
<linearGradient id="paint0_linear_2262_2598" x1="11.3258" y1="42.5697" x2="44.5932" y2="15.905" gradientUnits="userSpaceOnUse">
<stop stop-color="white" stop-opacity="0.4"/>
<stop offset="1" stop-color="white" stop-opacity="0"/>
</linearGradient>
<linearGradient id="paint1_linear_2262_2598" x1="0.67585" y1="36.0231" x2="40.8126" y2="4.95883" gradientUnits="userSpaceOnUse">
<stop stop-color="white" stop-opacity="0.4"/>
<stop offset="1" stop-color="white" stop-opacity="0"/>
</linearGradient>
<linearGradient id="paint2_linear_2262_2598" x1="-3.42513" y1="26.773" x2="32.1246" y2="-1.30561" gradientUnits="userSpaceOnUse">
<stop stop-color="white" stop-opacity="0.4"/>
<stop offset="1" stop-color="white" stop-opacity="0"/>
</linearGradient>
<linearGradient id="paint3_linear_2262_2598" x1="17.6163" y1="2.94506" x2="-0.59467" y2="15.1461" gradientUnits="userSpaceOnUse">
<stop stop-color="white" stop-opacity="0.6"/>
<stop offset="1" stop-color="white" stop-opacity="0"/>
</linearGradient>
<linearGradient id="paint4_linear_2262_2598" x1="24.5823" y1="42.0972" x2="40.8792" y2="28.1227" gradientUnits="userSpaceOnUse">
<stop stop-color="white" stop-opacity="0.4"/>
<stop offset="1" stop-color="white" stop-opacity="0"/>
</linearGradient>
</defs>
</svg>
