<svg width="100%" viewBox="0 0 74 74" fill="none" xmlns="http://www.w3.org/2000/svg">
<g clip-path="url(#clip0_1623_20087)">
<path d="M58.4693 60.3762H15.2275V60.7016H58.4693V60.3762Z" fill="currentColor"/>
<path d="M23.4078 43.2283C23.4078 44.4973 23.0507 45.4735 22.3365 46.1568C21.6223 46.8401 20.5835 47.1655 19.22 47.1655H17.0449V39.4539H19.4472C20.7133 39.4539 21.6872 39.7792 22.369 40.4626C23.0832 41.0808 23.4078 42.0244 23.4078 43.2283ZM21.7197 43.2609C21.7197 41.6014 21.0055 40.7879 19.5122 40.7879H18.6356V45.8314H19.3498C20.9406 45.7989 21.7197 44.9529 21.7197 43.2609Z" fill="currentColor"/>
<path d="M29.5435 47.1328H25.1284V39.4211H29.576V40.7552H26.7841V42.4472H29.3812V43.7813H26.7841V45.7662H29.576V47.1328H29.5435Z" fill="currentColor"/>
<path d="M36.5878 45.0179C36.5878 45.7012 36.3281 46.2544 35.8411 46.6774C35.3542 47.0678 34.64 47.2631 33.7635 47.2631C32.9519 47.2631 32.2052 47.1004 31.5884 46.8075V45.2782C32.1078 45.506 32.5623 45.6687 32.9194 45.7663C33.2765 45.8639 33.6011 45.8965 33.8933 45.8965C34.2504 45.8965 34.5426 45.8314 34.7049 45.7012C34.8997 45.5711 34.9971 45.3758 34.9971 45.083C34.9971 44.9203 34.9646 44.7901 34.8672 44.6925C34.7698 44.5624 34.6724 44.4648 34.5101 44.3671C34.3478 44.2695 34.0232 44.0743 33.5037 43.8465C33.0168 43.6188 32.6921 43.4235 32.4324 43.1958C32.2052 43.0005 32.0104 42.7402 31.8806 42.4799C31.7507 42.2196 31.6858 41.8942 31.6858 41.5363C31.6858 40.853 31.913 40.3324 32.3675 39.9419C32.822 39.5514 33.4713 39.3562 34.2829 39.3562C34.6724 39.3562 35.062 39.3887 35.4191 39.4864C35.7762 39.584 36.1658 39.7141 36.5553 39.8768L36.0359 41.1458C35.6139 40.9831 35.2892 40.853 35.0295 40.7879C34.7698 40.7228 34.5101 40.6903 34.2504 40.6903C33.9258 40.6903 33.6985 40.7554 33.5362 40.9181C33.3739 41.0482 33.2765 41.2434 33.2765 41.4712C33.2765 41.6014 33.309 41.7315 33.3739 41.8617C33.4388 41.9593 33.5362 42.0569 33.6985 42.1871C33.8284 42.2847 34.1855 42.4799 34.7374 42.7402C35.4516 43.0981 35.9385 43.4235 36.2307 43.7814C36.4579 44.0743 36.5878 44.4973 36.5878 45.0179Z" fill="currentColor"/>
<path d="M38.3735 47.1328V39.4211H39.9967V47.1328H38.3735Z" fill="currentColor"/>
<path d="M45.0935 42.8053H48.1451V46.8075C47.6582 46.9702 47.1712 47.0678 46.7492 47.1329C46.3272 47.198 45.8727 47.2305 45.4182 47.2305C44.2495 47.2305 43.373 46.8726 42.7562 46.1893C42.1393 45.506 41.8472 44.5298 41.8472 43.2283C41.8472 41.9918 42.2043 41.0156 42.9185 40.2998C43.6327 39.6165 44.6066 39.2585 45.8727 39.2585C46.6518 39.2585 47.4309 39.4212 48.1451 39.7466L47.5933 41.0482C47.0414 40.7553 46.457 40.6252 45.8402 40.6252C45.126 40.6252 44.5741 40.8529 44.1521 41.341C43.7301 41.8291 43.5028 42.4473 43.5028 43.2608C43.5028 44.1068 43.6651 44.725 44.0222 45.1806C44.3793 45.6361 44.8663 45.8313 45.5156 45.8313C45.8402 45.8313 46.1973 45.7988 46.5544 45.7337V44.1068H45.0935V42.8053Z" fill="currentColor"/>
<path d="M57.2354 47.133H55.1577L51.8139 41.3086H51.7814C51.8464 42.3498 51.8788 43.0656 51.8788 43.5212V47.1655H50.418V39.4539H52.4632L55.8069 45.2457H55.8394C55.7745 44.237 55.7745 43.5212 55.7745 43.1307V39.4864H57.2354V47.133Z" fill="currentColor"/>
<path d="M20.6487 55.3976L19.902 53.5104H17.5322L16.818 55.3976H16.1362L18.4736 49.4756H19.058L21.3629 55.3976H20.6487ZM19.7072 52.9247L19.0255 51.1025C18.9281 50.8747 18.8307 50.5819 18.7658 50.2565C18.7009 50.5168 18.6359 50.8097 18.5061 51.1025L17.8243 52.9247H19.7072Z" fill="currentColor"/>
<path d="M28.8943 55.3977H28.2125L27.0114 51.4605C26.9464 51.2979 26.8815 51.0701 26.8166 50.8098C26.7516 50.5495 26.7192 50.3868 26.7192 50.3217C26.6543 50.6796 26.5569 51.0701 26.427 51.4931L25.2908 55.4302H24.609L23.0508 49.5408H23.765L24.7064 53.1851C24.8363 53.7057 24.9337 54.1612 24.9986 54.5842C25.0635 54.0962 25.1934 53.6081 25.3232 53.1525L26.3621 49.5733H27.0763L28.1801 53.1851C28.3099 53.6081 28.4073 54.0636 28.5047 54.5842C28.5696 54.1938 28.667 53.7382 28.7969 53.1851L29.7383 49.5408H30.4525L28.8943 55.3977Z" fill="currentColor"/>
<path d="M36.6531 55.3976L35.9064 53.5104H33.5366L32.8224 55.3976H32.1406L34.478 49.4756H35.0624L37.3673 55.3976H36.6531ZM35.7116 52.9247L35.0299 51.1025C34.9325 50.8747 34.8351 50.5819 34.7702 50.2565C34.7053 50.5168 34.6403 50.8097 34.5105 51.1025L33.8287 52.9247H35.7116Z" fill="currentColor"/>
<path d="M40.5162 52.9571V55.3975H39.8345V49.5081H41.4577C42.1719 49.5081 42.7237 49.6382 43.0484 49.9311C43.4055 50.2239 43.5678 50.6144 43.5678 51.1675C43.5678 51.9485 43.1782 52.4691 42.3666 52.7619L43.9574 55.4301H43.1458L41.7174 52.9897H40.5162V52.9571ZM40.5162 52.3715H41.4577C41.9446 52.3715 42.3017 52.2738 42.529 52.0786C42.7562 51.8834 42.8536 51.5905 42.8536 51.2001C42.8536 50.8096 42.7237 50.5168 42.4965 50.3541C42.2693 50.1914 41.9122 50.0938 41.3927 50.0938H40.5162V52.3715Z" fill="currentColor"/>
<path d="M51.3598 52.4042C51.3598 53.3803 51.1001 54.1287 50.5807 54.6493C50.0613 55.1699 49.2822 55.4302 48.3082 55.4302H46.6851V49.5408H48.503C49.412 49.5408 50.1262 49.8011 50.6456 50.2892C51.1001 50.7772 51.3598 51.4931 51.3598 52.4042ZM50.6456 52.4367C50.6456 51.6558 50.4509 51.0701 50.0613 50.7122C49.6717 50.3217 49.0874 50.1265 48.3407 50.1265H47.3343V54.8446H48.1784C48.99 54.8446 49.6068 54.6493 50.0288 54.2263C50.4184 53.8033 50.6456 53.2176 50.6456 52.4367Z" fill="currentColor"/>
<path d="M57.5598 53.8358C57.5598 54.3564 57.365 54.7468 57.0079 55.0397C56.6183 55.3325 56.1313 55.4627 55.4821 55.4627C54.7679 55.4627 54.2485 55.3651 53.8589 55.2024V54.5516C54.0861 54.6492 54.3783 54.7468 54.638 54.7794C54.9302 54.8444 55.1899 54.877 55.4821 54.877C55.9366 54.877 56.2937 54.7794 56.5209 54.6167C56.7482 54.454 56.878 54.1937 56.878 53.9008C56.878 53.7056 56.8456 53.5429 56.7482 53.4128C56.6508 53.2826 56.5209 53.1524 56.3261 53.0548C56.1314 52.9572 55.8392 52.8271 55.4496 52.6644C54.8977 52.4691 54.5082 52.2414 54.2809 51.9811C54.0537 51.7207 53.9238 51.3628 53.9238 50.9398C53.9238 50.4843 54.0861 50.1264 54.4432 49.866C54.8003 49.6057 55.2224 49.4756 55.8067 49.4756C56.3911 49.4756 56.9429 49.5732 57.4299 49.801L57.2027 50.3867C56.7157 50.1914 56.2287 50.0938 55.7743 50.0938C55.4171 50.0938 55.125 50.1589 54.9302 50.3216C54.7354 50.4843 54.638 50.6795 54.638 50.9724C54.638 51.1676 54.6705 51.3303 54.7354 51.4604C54.8003 51.5906 54.9302 51.7207 55.125 51.8184C55.2873 51.916 55.5795 52.0461 55.9366 52.1763C56.5534 52.4041 56.9754 52.6318 57.2027 52.8921C57.4299 53.0874 57.5598 53.4453 57.5598 53.8358Z" fill="currentColor"/>
<path d="M33.0178 13.2278V27.1218C33.0178 29.5947 32.3036 31.5145 30.8752 32.9136C29.4468 34.3128 27.4665 34.9961 24.9019 34.9961C22.4346 34.9961 20.4868 34.3128 19.0909 32.9136C17.6949 31.5145 17.0132 29.5621 17.0132 27.0892V13.2278H18.5065V27.1218C18.5065 29.1717 19.0909 30.7986 20.2271 31.9375C21.3633 33.0763 22.9865 33.662 25.0642 33.662C27.1094 33.662 28.7001 33.1089 29.8039 31.97C30.9401 30.8312 31.492 29.2693 31.492 27.2519V13.2278H33.0178Z" fill="currentColor"/>
<path d="M45.7039 24.029L36.4976 33.2539L37.5763 34.3354L46.7826 25.1105L45.7039 24.029Z" fill="currentColor"/>
<path d="M48.3557 24.0292L47.2769 25.1106L56.4819 34.3368L57.5608 33.2554L48.3557 24.0292Z" fill="currentColor"/>
<path d="M37.5787 13.2234L36.5 14.3049L45.7063 23.5298L46.785 22.4483L37.5787 13.2234Z" fill="currentColor"/>
<path d="M56.491 13.2267L47.2847 22.4529L48.3636 23.5344L57.5699 14.3082L56.491 13.2267Z" fill="currentColor"/>
</g>
<defs>
<clipPath id="clip0_1623_20087">
<rect width="43.4783" height="48" fill="white" transform="translate(15 13)"/>
</clipPath>
</defs>
</svg>
