<svg width="100%" viewBox="0 0 40 44" fill="none" xmlns="http://www.w3.org/2000/svg">
<g clip-path="url(#clip0_2262_2609)">
<path d="M39.8465 43.4281H0.208252V43.7264H39.8465V43.4281Z" fill="white"/>
<path d="M7.70741 27.7093C7.70741 28.8725 7.38007 29.7673 6.72538 30.3937C6.0707 31.0201 5.11843 31.3183 3.86857 31.3183H1.87476V24.2493H4.07688C5.23746 24.2493 6.13021 24.5476 6.75514 25.174C7.40983 25.7407 7.70741 26.6057 7.70741 27.7093ZM6.15997 27.7391C6.15997 26.2179 5.50529 25.4722 4.1364 25.4722H3.33292V30.0954H3.98761C5.44577 30.0656 6.15997 29.2901 6.15997 27.7391Z" fill="white"/>
<path d="M13.3318 31.2885H9.28467V24.2195H13.3616V25.4424H10.8024V26.9934H13.183V28.2163H10.8024V30.0358H13.3616V31.2885H13.3318Z" fill="white"/>
<path d="M19.7893 29.3498C19.7893 29.9761 19.5513 30.4832 19.1049 30.8709C18.6585 31.2289 18.0038 31.4078 17.2004 31.4078C16.4564 31.4078 15.772 31.2587 15.2065 30.9902V29.5884C15.6827 29.7972 16.0993 29.9463 16.4266 30.0358C16.754 30.1253 17.0516 30.1551 17.3194 30.1551C17.6467 30.1551 17.9146 30.0954 18.0634 29.9761C18.2419 29.8568 18.3312 29.6779 18.3312 29.4094C18.3312 29.2603 18.3014 29.141 18.2121 29.0515C18.1229 28.9322 18.0336 28.8427 17.8848 28.7532C17.736 28.6637 17.4384 28.4848 16.9623 28.276C16.5159 28.0672 16.2183 27.8882 15.9803 27.6794C15.772 27.5005 15.5934 27.2619 15.4744 27.0232C15.3553 26.7846 15.2958 26.4864 15.2958 26.1583C15.2958 25.5319 15.5041 25.0547 15.9207 24.6967C16.3374 24.3388 16.9325 24.1599 17.6765 24.1599C18.0336 24.1599 18.3907 24.1897 18.718 24.2792C19.0454 24.3686 19.4025 24.488 19.7596 24.6371L19.2835 25.8003C18.8966 25.6512 18.599 25.5319 18.3609 25.4722C18.1229 25.4126 17.8848 25.3828 17.6467 25.3828C17.3492 25.3828 17.1408 25.4424 16.992 25.5915C16.8433 25.7109 16.754 25.8898 16.754 26.0986C16.754 26.2179 16.7837 26.3372 16.8433 26.4565C16.9028 26.546 16.992 26.6355 17.1408 26.7548C17.2599 26.8443 17.5872 27.0232 18.0931 27.2619C18.7478 27.59 19.1942 27.8882 19.462 28.2163C19.6703 28.4848 19.7893 28.8725 19.7893 29.3498Z" fill="white"/>
<path d="M21.426 31.2885V24.2195H22.9139V31.2885H21.426Z" fill="white"/>
<path d="M27.586 27.3215H30.3833V30.9902C29.9369 31.1394 29.4905 31.2289 29.1036 31.2885C28.7168 31.3482 28.3002 31.378 27.8835 31.378C26.8122 31.378 26.0088 31.0499 25.4433 30.4235C24.8779 29.7972 24.6101 28.9024 24.6101 27.7093C24.6101 26.5758 24.9375 25.681 25.5921 25.0248C26.2468 24.3985 27.1396 24.0704 28.3002 24.0704C29.0144 24.0704 29.7286 24.2195 30.3833 24.5178L29.8774 25.7109C29.3715 25.4424 28.8358 25.3231 28.2704 25.3231C27.6157 25.3231 27.1098 25.5319 26.723 25.9793C26.3361 26.4267 26.1278 26.9934 26.1278 27.7391C26.1278 28.5146 26.2766 29.0813 26.6039 29.4989C26.9313 29.9165 27.3776 30.0954 27.9728 30.0954C28.2704 30.0954 28.5977 30.0656 28.9251 30.006V28.5146H27.586V27.3215Z" fill="white"/>
<path d="M38.7158 31.2885H36.8113L33.7462 25.9495H33.7164C33.7759 26.9039 33.8057 27.5601 33.8057 27.9777V31.3183H32.4666V24.2493H34.3413L37.4065 29.5585H37.4362C37.3767 28.6339 37.3767 27.9777 37.3767 27.6198V24.2792H38.7158V31.2885Z" fill="white"/>
<path d="M5.17793 38.8646L4.49348 37.1346H2.32112L1.66643 38.8646H1.0415L3.18411 33.436H3.71976L5.83261 38.8646H5.17793ZM4.31493 36.5977L3.69001 34.9274C3.60073 34.7186 3.51145 34.4502 3.45194 34.1519C3.39242 34.3905 3.3329 34.6589 3.21387 34.9274L2.58894 36.5977H4.31493Z" fill="white"/>
<path d="M12.7366 38.8645H12.1117L11.0107 35.2555C10.9511 35.1063 10.8916 34.8975 10.8321 34.6589C10.7726 34.4203 10.7428 34.2712 10.7428 34.2115C10.6833 34.5396 10.594 34.8975 10.475 35.2853L9.43346 38.8944H8.80853L7.38013 33.4957H8.03481L8.89781 36.8363C9.01684 37.3135 9.10612 37.7311 9.16563 38.1189C9.22515 37.6714 9.34418 37.224 9.46322 36.8065L10.4155 33.5255H11.0702L12.082 36.8363C12.201 37.224 12.2903 37.6416 12.3795 38.1189C12.4391 37.7609 12.5283 37.3433 12.6474 36.8363L13.5104 33.4957H14.1651L12.7366 38.8645Z" fill="white"/>
<path d="M19.8488 38.8646L19.1644 37.1346H16.992L16.3373 38.8646H15.7124L17.855 33.436H18.3907L20.5035 38.8646H19.8488ZM18.9858 36.5977L18.3609 34.9274C18.2716 34.7186 18.1824 34.4502 18.1228 34.1519C18.0633 34.3905 18.0038 34.6589 17.8848 34.9274L17.2598 36.5977H18.9858Z" fill="white"/>
<path d="M23.3901 36.6275V38.8646H22.7651V33.4659H24.2531C24.9077 33.4659 25.4136 33.5852 25.7112 33.8536C26.0386 34.1221 26.1874 34.48 26.1874 34.9871C26.1874 35.7029 25.8303 36.1801 25.0863 36.4486L26.5445 38.8944H25.8005L24.4911 36.6574H23.3901V36.6275ZM23.3901 36.0907H24.2531C24.6994 36.0907 25.0268 36.0012 25.2351 35.8222C25.4434 35.6433 25.5327 35.3748 25.5327 35.0169C25.5327 34.659 25.4136 34.3905 25.2053 34.2414C24.997 34.0923 24.6697 34.0028 24.1935 34.0028H23.3901V36.0907Z" fill="white"/>
<path d="M33.3294 36.1204C33.3294 37.0153 33.0913 37.7013 32.6152 38.1785C32.1391 38.6557 31.4249 38.8944 30.5321 38.8944H29.0442V33.4957H30.7107C31.5439 33.4957 32.1986 33.7343 32.6747 34.1817C33.0913 34.6291 33.3294 35.2853 33.3294 36.1204ZM32.6747 36.1503C32.6747 35.4344 32.4962 34.8975 32.1391 34.5694C31.782 34.2115 31.2463 34.0326 30.5619 34.0326H29.6394V38.3575H30.4131C31.157 38.3575 31.7224 38.1785 32.1093 37.7908C32.4664 37.403 32.6747 36.8661 32.6747 36.1503Z" fill="white"/>
<path d="M39.0133 37.4329C39.0133 37.9101 38.8348 38.268 38.5074 38.5365C38.1503 38.8049 37.7039 38.9242 37.1088 38.9242C36.4541 38.9242 35.978 38.8347 35.6208 38.6856V38.089C35.8292 38.1785 36.097 38.268 36.3351 38.2978C36.6029 38.3575 36.8409 38.3873 37.1088 38.3873C37.5254 38.3873 37.8527 38.2978 38.061 38.1487C38.2693 37.9996 38.3884 37.761 38.3884 37.4925C38.3884 37.3135 38.3586 37.1644 38.2694 37.0451C38.1801 36.9258 38.061 36.8065 37.8825 36.717C37.7039 36.6275 37.4361 36.5082 37.079 36.3591C36.5731 36.1801 36.216 35.9713 36.0077 35.7327C35.7994 35.4941 35.6804 35.166 35.6804 34.7783C35.6804 34.3607 35.8292 34.0326 36.1565 33.794C36.4838 33.5553 36.8707 33.436 37.4064 33.436C37.942 33.436 38.4479 33.5255 38.8943 33.7343L38.686 34.2712C38.2396 34.0922 37.7932 34.0027 37.3766 34.0027C37.0493 34.0027 36.7814 34.0624 36.6029 34.2115C36.4243 34.3607 36.3351 34.5396 36.3351 34.8081C36.3351 34.987 36.3648 35.1362 36.4243 35.2555C36.4838 35.3748 36.6029 35.4941 36.7814 35.5836C36.9302 35.6731 37.198 35.7924 37.5254 35.9117C38.0908 36.1205 38.4777 36.3293 38.686 36.5679C38.8943 36.7468 39.0133 37.0749 39.0133 37.4329Z" fill="white"/>
<path d="M16.5159 0.20874V12.9449C16.5159 15.2117 15.8612 16.9715 14.5518 18.2541C13.2425 19.5366 11.4272 20.163 9.07627 20.163C6.81463 20.163 5.02912 19.5366 3.74951 18.2541C2.4699 16.9715 1.84497 15.1819 1.84497 12.9151V0.20874H3.21386V12.9449C3.21386 14.824 3.74951 16.3153 4.79106 17.3593C5.8326 18.4032 7.32053 18.9401 9.22507 18.9401C11.0998 18.9401 12.558 18.4331 13.5698 17.3891C14.6113 16.3452 15.1172 14.9135 15.1172 13.0642V0.20874H16.5159Z" fill="white"/>
<path d="M28.1449 10.1101L19.7058 18.5662L20.6947 19.5576L29.1338 11.1015L28.1449 10.1101Z" fill="white"/>
<path d="M30.5757 10.1099L29.5867 11.1012L38.0246 19.5586L39.0136 18.5673L30.5757 10.1099Z" fill="white"/>
<path d="M20.6971 0.204826L19.7083 1.19623L28.1474 9.6524L29.1362 8.661L20.6971 0.204826Z" fill="white"/>
<path d="M38.0334 0.20755L29.5942 8.66492L30.5832 9.65632L39.0223 1.19895L38.0334 0.20755Z" fill="white"/>
</g>
<defs>
<clipPath id="clip0_2262_2609">
<rect width="39.8551" height="44" fill="white"/>
</clipPath>
</defs>
</svg>
