<svg width="100%" viewBox="0 0 44 44" fill="none" xmlns="http://www.w3.org/2000/svg">
<g clip-path="url(#clip0_1004_766)">
<path d="M41.8465 43.4281H2.20825V43.7264H41.8465V43.4281Z" fill="currentColor"/>
<path d="M9.70741 27.7093C9.70741 28.8725 9.38007 29.7673 8.72538 30.3937C8.0707 31.0201 7.11843 31.3183 5.86857 31.3183H3.87476V24.2493H6.07688C7.23746 24.2493 8.13021 24.5476 8.75514 25.174C9.40983 25.7407 9.70741 26.6057 9.70741 27.7093ZM8.15997 27.7391C8.15997 26.2179 7.50529 25.4722 6.1364 25.4722H5.33292V30.0954H5.98761C7.44577 30.0656 8.15997 29.2901 8.15997 27.7391Z" fill="currentColor"/>
<path d="M15.3318 31.2885H11.2847V24.2195H15.3616V25.4424H12.8024V26.9934H15.183V28.2163H12.8024V30.0358H15.3616V31.2885H15.3318Z" fill="currentColor"/>
<path d="M21.7893 29.3498C21.7893 29.9761 21.5513 30.4832 21.1049 30.8709C20.6585 31.2289 20.0038 31.4078 19.2004 31.4078C18.4564 31.4078 17.772 31.2587 17.2065 30.9902V29.5884C17.6827 29.7972 18.0993 29.9463 18.4266 30.0358C18.754 30.1253 19.0516 30.1551 19.3194 30.1551C19.6467 30.1551 19.9146 30.0954 20.0634 29.9761C20.2419 29.8568 20.3312 29.6779 20.3312 29.4094C20.3312 29.2603 20.3014 29.141 20.2121 29.0515C20.1229 28.9322 20.0336 28.8427 19.8848 28.7532C19.736 28.6637 19.4384 28.4848 18.9623 28.276C18.5159 28.0672 18.2183 27.8882 17.9803 27.6794C17.772 27.5005 17.5934 27.2619 17.4744 27.0232C17.3553 26.7846 17.2958 26.4864 17.2958 26.1583C17.2958 25.5319 17.5041 25.0547 17.9207 24.6967C18.3374 24.3388 18.9325 24.1599 19.6765 24.1599C20.0336 24.1599 20.3907 24.1897 20.718 24.2792C21.0454 24.3686 21.4025 24.488 21.7596 24.6371L21.2835 25.8003C20.8966 25.6512 20.599 25.5319 20.3609 25.4722C20.1229 25.4126 19.8848 25.3828 19.6467 25.3828C19.3492 25.3828 19.1408 25.4424 18.992 25.5915C18.8433 25.7109 18.754 25.8898 18.754 26.0986C18.754 26.2179 18.7837 26.3372 18.8433 26.4565C18.9028 26.546 18.992 26.6355 19.1408 26.7548C19.2599 26.8443 19.5872 27.0232 20.0931 27.2619C20.7478 27.59 21.1942 27.8882 21.462 28.2163C21.6703 28.4848 21.7893 28.8725 21.7893 29.3498Z" fill="currentColor"/>
<path d="M23.426 31.2885V24.2195H24.9139V31.2885H23.426Z" fill="currentColor"/>
<path d="M29.5861 27.3215H32.3834V30.9902C31.937 31.1394 31.4906 31.2289 31.1038 31.2885C30.7169 31.3482 30.3003 31.378 29.8837 31.378C28.8124 31.378 28.0089 31.0499 27.4435 30.4235C26.8781 29.7972 26.6102 28.9024 26.6102 27.7093C26.6102 26.5758 26.9376 25.681 27.5923 25.0248C28.2469 24.3985 29.1397 24.0704 30.3003 24.0704C31.0145 24.0704 31.7287 24.2195 32.3834 24.5178L31.8775 25.7109C31.3716 25.4424 30.8359 25.3231 30.2705 25.3231C29.6158 25.3231 29.1099 25.5319 28.7231 25.9793C28.3362 26.4267 28.1279 26.9934 28.1279 27.7391C28.1279 28.5146 28.2767 29.0813 28.604 29.4989C28.9314 29.9165 29.3778 30.0954 29.9729 30.0954C30.2705 30.0954 30.5979 30.0656 30.9252 30.006V28.5146H29.5861V27.3215Z" fill="currentColor"/>
<path d="M40.7157 31.2885H38.8112L35.746 25.9495H35.7163C35.7758 26.9039 35.8056 27.5601 35.8056 27.9777V31.3183H34.4664V24.2493H36.3412L39.4063 29.5585H39.4361C39.3766 28.6339 39.3766 27.9777 39.3766 27.6198V24.2792H40.7157V31.2885Z" fill="currentColor"/>
<path d="M7.17793 38.8646L6.49348 37.1346H4.32112L3.66643 38.8646H3.0415L5.18411 33.436H5.71976L7.83261 38.8646H7.17793ZM6.31493 36.5977L5.69001 34.9274C5.60073 34.7186 5.51145 34.4502 5.45194 34.1519C5.39242 34.3905 5.3329 34.6589 5.21387 34.9274L4.58894 36.5977H6.31493Z" fill="currentColor"/>
<path d="M14.7365 38.8645H14.1116L13.0105 35.2555C12.951 35.1063 12.8915 34.8975 12.832 34.6589C12.7725 34.4203 12.7427 34.2712 12.7427 34.2115C12.6832 34.5396 12.5939 34.8975 12.4749 35.2853L11.4333 38.8944H10.8084L9.38 33.4957H10.0347L10.8977 36.8363C11.0167 37.3135 11.106 37.7311 11.1655 38.1189C11.225 37.6714 11.3441 37.224 11.4631 36.8065L12.4154 33.5255H13.0701L14.0818 36.8363C14.2009 37.224 14.2901 37.6416 14.3794 38.1189C14.4389 37.7609 14.5282 37.3433 14.6472 36.8363L15.5102 33.4957H16.1649L14.7365 38.8645Z" fill="currentColor"/>
<path d="M21.8488 38.8646L21.1644 37.1346H18.992L18.3373 38.8646H17.7124L19.855 33.436H20.3907L22.5035 38.8646H21.8488ZM20.9858 36.5977L20.3609 34.9274C20.2716 34.7186 20.1824 34.4502 20.1228 34.1519C20.0633 34.3905 20.0038 34.6589 19.8848 34.9274L19.2598 36.5977H20.9858Z" fill="currentColor"/>
<path d="M25.3901 36.6275V38.8646H24.7651V33.4659H26.2531C26.9077 33.4659 27.4136 33.5852 27.7112 33.8536C28.0386 34.1221 28.1874 34.48 28.1874 34.9871C28.1874 35.7029 27.8303 36.1801 27.0863 36.4486L28.5445 38.8944H27.8005L26.4911 36.6574H25.3901V36.6275ZM25.3901 36.0907H26.2531C26.6994 36.0907 27.0268 36.0012 27.2351 35.8222C27.4434 35.6433 27.5327 35.3748 27.5327 35.0169C27.5327 34.659 27.4136 34.3905 27.2053 34.2414C26.997 34.0923 26.6697 34.0028 26.1935 34.0028H25.3901V36.0907Z" fill="currentColor"/>
<path d="M35.3294 36.1204C35.3294 37.0153 35.0913 37.7013 34.6152 38.1785C34.1391 38.6557 33.4249 38.8944 32.5321 38.8944H31.0442V33.4957H32.7107C33.5439 33.4957 34.1986 33.7343 34.6747 34.1817C35.0913 34.6291 35.3294 35.2853 35.3294 36.1204ZM34.6747 36.1503C34.6747 35.4344 34.4962 34.8975 34.1391 34.5694C33.782 34.2115 33.2463 34.0326 32.5619 34.0326H31.6394V38.3575H32.4131C33.157 38.3575 33.7224 38.1785 34.1093 37.7908C34.4664 37.403 34.6747 36.8661 34.6747 36.1503Z" fill="currentColor"/>
<path d="M41.0133 37.4329C41.0133 37.9101 40.8348 38.268 40.5074 38.5365C40.1503 38.8049 39.7039 38.9242 39.1088 38.9242C38.4541 38.9242 37.978 38.8347 37.6208 38.6856V38.089C37.8292 38.1785 38.097 38.268 38.3351 38.2978C38.6029 38.3575 38.8409 38.3873 39.1088 38.3873C39.5254 38.3873 39.8527 38.2978 40.061 38.1487C40.2693 37.9996 40.3884 37.761 40.3884 37.4925C40.3884 37.3135 40.3586 37.1644 40.2694 37.0451C40.1801 36.9258 40.061 36.8065 39.8825 36.717C39.7039 36.6275 39.4361 36.5082 39.079 36.3591C38.5731 36.1801 38.216 35.9713 38.0077 35.7327C37.7994 35.4941 37.6804 35.166 37.6804 34.7783C37.6804 34.3607 37.8292 34.0326 38.1565 33.794C38.4838 33.5553 38.8707 33.436 39.4064 33.436C39.942 33.436 40.4479 33.5255 40.8943 33.7343L40.686 34.2712C40.2396 34.0922 39.7932 34.0027 39.3766 34.0027C39.0493 34.0027 38.7814 34.0624 38.6029 34.2115C38.4243 34.3607 38.3351 34.5396 38.3351 34.8081C38.3351 34.987 38.3648 35.1362 38.4243 35.2555C38.4838 35.3748 38.6029 35.4941 38.7814 35.5836C38.9302 35.6731 39.198 35.7924 39.5254 35.9117C40.0908 36.1205 40.4777 36.3293 40.686 36.5679C40.8943 36.7468 41.0133 37.0749 41.0133 37.4329Z" fill="currentColor"/>
<path d="M18.5159 0.20874V12.9449C18.5159 15.2117 17.8612 16.9715 16.5518 18.2541C15.2425 19.5366 13.4272 20.163 11.0763 20.163C8.81463 20.163 7.02912 19.5366 5.74951 18.2541C4.4699 16.9715 3.84497 15.1819 3.84497 12.9151V0.20874H5.21386V12.9449C5.21386 14.824 5.74951 16.3153 6.79106 17.3593C7.8326 18.4032 9.32053 18.9401 11.2251 18.9401C13.0998 18.9401 14.558 18.4331 15.5698 17.3891C16.6113 16.3452 17.1172 14.9135 17.1172 13.0642V0.20874H18.5159Z" fill="currentColor"/>
<path d="M30.1449 10.1101L21.7058 18.5662L22.6947 19.5576L31.1338 11.1015L30.1449 10.1101Z" fill="currentColor"/>
<path d="M32.5757 10.1099L31.5867 11.1012L40.0246 19.5586L41.0136 18.5673L32.5757 10.1099Z" fill="currentColor"/>
<path d="M22.6971 0.204826L21.7083 1.19623L30.1474 9.6524L31.1362 8.661L22.6971 0.204826Z" fill="currentColor"/>
<path d="M40.0332 0.20755L31.5941 8.66492L32.5831 9.65632L41.0222 1.19895L40.0332 0.20755Z" fill="currentColor"/>
</g>
<defs>
<clipPath id="clip0_1004_766">
<rect width="39.8551" height="44" fill="currentColor" transform="translate(2)"/>
</clipPath>
</defs>
</svg>
