<svg width="100%" viewBox="0 0 109 40" fill="none" xmlns="http://www.w3.org/2000/svg">
<path d="M39.0617 10.3772V10.5485L39.5671 11.5767C39.5671 11.5767 39.9041 12.3479 39.5671 12.7764C39.2302 13.2048 37.3769 16.6323 37.0399 17.0607C36.7029 17.4891 37.0399 17.1464 36.9556 17.1464H34.9339C34.8496 17.1464 34.8496 17.0607 34.8496 16.975L37.2927 13.2905V13.0334L36.5345 10.7199C36.5345 10.6342 36.4502 10.6342 36.366 10.6342L35.1023 10.8913C34.6541 10.9275 34.2278 11.1033 33.8811 11.3945C33.5345 11.6858 33.2844 12.0785 33.1648 12.5193L32.0696 15.6897C31.9618 15.9822 31.7645 16.2318 31.5066 16.4015C31.2487 16.5712 30.9441 16.6521 30.6375 16.6323H26.9309C26.9309 16.6323 25.92 16.7179 26.4255 15.1756C26.9309 13.6332 28.4473 10.4629 28.0261 8.66345C27.6048 6.86403 27.2679 7.29247 28.5315 6.94973C29.7951 6.60698 32.912 6.09287 32.912 6.09287C33.1644 6.2944 33.4758 6.40393 33.7966 6.40393C34.1173 6.40393 34.4288 6.2944 34.6812 6.09287C35.7763 5.40739 41.3363 2.40838 49.7604 2.75112C58.1846 3.09386 69.9785 6.17856 81.3511 11.1484C81.8188 11.2827 82.2986 11.3688 82.7832 11.4054C83.2044 11.4054 83.2045 13.6332 81.7723 13.4619C79.4477 13.2125 77.1584 12.6951 74.9487 11.9195C71.8412 10.7847 68.6605 9.86857 65.4294 9.1776C65.5979 10.2915 66.1876 12.9477 64.4185 13.8046C62.8268 14.6647 61.2803 15.6085 59.7852 16.6323C59.7852 16.7179 59.701 16.7179 59.6167 16.6323L57.8476 15.5183C57.7989 15.4744 57.7687 15.413 57.7634 15.3469H57.8476C59.3684 14.2707 60.9746 13.325 62.6494 12.5193C61.013 13.0152 59.4092 13.6162 57.8476 14.3187L56.8367 14.8328H56.7525L55.0677 13.4619L56.1628 13.0334L60.0379 11.3197C60.0379 11.3197 61.3015 10.2915 60.3749 9.69168C59.4482 9.0919 56.921 8.235 52.7931 8.235C48.6653 8.235 46.0538 8.66345 42.6841 9.1776C42.6841 9.1776 43.5265 13.0334 42.6841 14.3187L39.9041 17.8318H39.7357C38.9454 17.9035 38.149 17.8456 37.3769 17.6605C37.2927 17.6605 37.2927 17.6605 37.2927 17.5748H37.3769C38.3878 16.2895 39.3987 15.0042 40.3253 13.6332C40.3253 13.6332 41.4205 12.4336 40.7466 11.8339C40.0726 11.234 39.3987 9.77739 39.0617 10.3772Z" fill="white"/>
<path d="M29.2142 23.1734C28.5595 23.1602 27.9253 23.4059 27.4451 23.8589H27.2767V19.746H25.5918C25.5471 19.746 25.5043 19.7641 25.4727 19.7962C25.4411 19.8284 25.4233 19.8719 25.4233 19.9174V33.1987C25.4233 33.2442 25.4411 33.2877 25.4727 33.3199C25.5043 33.352 25.5471 33.37 25.5918 33.37H27.1082C27.2767 33.37 27.2767 33.2844 27.2767 33.1987V32.856H27.3609L28.2033 33.37L29.2142 33.5414C29.5797 33.5552 29.9434 33.4854 30.2788 33.3371C30.6141 33.1888 30.9124 32.9658 31.1518 32.6846C31.435 32.3776 31.6494 32.0118 31.7803 31.6124C31.9112 31.213 31.9554 30.7895 31.9099 30.371V26.3438C31.9613 25.9251 31.9199 25.5 31.7887 25.0997C31.6575 24.6993 31.4399 24.334 31.1518 24.0303C30.926 23.7329 30.63 23.4984 30.2913 23.3485C29.9525 23.1987 29.582 23.1385 29.2142 23.1734ZM30.0566 30.2853C30.0907 30.4849 30.078 30.6898 30.0194 30.8834C29.9609 31.077 29.8581 31.2538 29.7197 31.3993C29.5978 31.5543 29.4443 31.6806 29.2698 31.7693C29.0952 31.8581 28.9038 31.9072 28.7088 31.9134C28.5114 31.9206 28.3155 31.8774 28.1388 31.7876C27.9622 31.6977 27.8106 31.5642 27.6979 31.3993C27.4239 31.0956 27.2734 30.6975 27.2767 30.2853V26.4295C27.2887 25.9944 27.4362 25.5743 27.6979 25.2299C27.9657 24.9565 28.3293 24.8024 28.7088 24.8015C29.0864 24.8112 29.447 24.964 29.7197 25.2299C29.8549 25.395 29.9547 25.5869 30.0127 25.7935C30.0707 26.0001 30.0857 26.2167 30.0566 26.4295V30.2853Z" fill="white"/>
<path d="M36.965 23.1735C36.1694 23.1663 35.3957 23.4387 34.7747 23.9447C34.1966 24.4774 33.836 25.2111 33.7638 26.0011C33.7638 26.0868 33.8481 26.1725 33.9323 26.0868H35.5329C35.7014 26.0868 35.7014 26.0011 35.7014 25.9155C35.7541 25.5933 35.9009 25.2948 36.1226 25.0586C36.2308 24.9436 36.3619 24.8535 36.5073 24.7944C36.6526 24.7352 36.8087 24.7085 36.965 24.7159C37.16 24.722 37.3515 24.7712 37.526 24.86C37.7005 24.9487 37.8541 25.075 37.9759 25.23C38.1135 25.4106 38.2142 25.6173 38.272 25.838C38.3299 26.0587 38.3437 26.289 38.3129 26.5153V27.1151C38.3129 27.2008 38.3129 27.2008 38.2286 27.2008H37.1335C36.1826 27.2035 35.2506 27.4701 34.4377 27.972C34.0984 28.3021 33.8326 28.7023 33.6582 29.1457C33.4839 29.5891 33.405 30.0655 33.4268 30.5425C33.3923 30.9673 33.4499 31.3947 33.5954 31.7944C33.741 32.1942 33.971 32.5566 34.2693 32.856C34.8369 33.2585 35.515 33.4684 36.2069 33.4558C36.5868 33.4899 36.9693 33.4298 37.3214 33.2806C37.6736 33.1314 37.9849 32.8975 38.2286 32.599H38.3129V33.0274C38.3129 33.1131 38.3971 33.1988 38.5656 33.1988H39.9977C40.1662 33.1988 40.2504 33.1131 40.1662 33.0274V26.4296C40.2008 26.0218 40.153 25.6111 40.0257 25.2229C39.8984 24.8346 39.6943 24.4769 39.426 24.1719C39.1577 23.8669 38.8308 23.6209 38.4655 23.4492C38.1002 23.2775 37.7043 23.1837 37.302 23.1735H36.965ZM38.3129 30.1998C38.34 30.4399 38.3081 30.683 38.2198 30.9074C38.1316 31.1318 37.9899 31.3303 37.8074 31.485C37.4963 31.808 37.0724 31.9928 36.628 31.9992C36.4385 32.0031 36.2505 31.9635 36.0781 31.8835C35.9056 31.8036 35.753 31.6851 35.6317 31.537C35.5103 31.3888 35.4233 31.2149 35.3771 31.0279C35.3308 30.8409 35.3264 30.6458 35.3644 30.4568C35.3573 30.2315 35.3989 30.0073 35.4862 29.8C35.5736 29.5927 35.7045 29.4074 35.8699 29.2572C36.0177 29.0941 36.2023 28.9698 36.4077 28.8952C36.6131 28.8206 36.8332 28.7978 37.0493 28.8288H38.3129V30.1998Z" fill="white"/>
<path d="M45.8103 23.1741C45.1585 23.1775 44.53 23.4211 44.0412 23.8596H43.8727V19.7467C43.8727 19.5753 43.7885 19.5753 43.7042 19.5753H42.1879C42.1432 19.5753 42.1003 19.5934 42.0688 19.6255C42.0371 19.6576 42.0194 19.7012 42.0194 19.7467V33.1994L42.2721 33.3707H43.7885L43.9569 33.1994V32.8566C43.8727 32.8566 43.9569 32.8566 43.9569 32.7709H44.0412C44.2897 32.9918 44.575 33.1659 44.8836 33.285L45.8103 33.4564C46.1882 33.471 46.5647 33.402 46.9137 33.254C47.2629 33.106 47.5762 32.8828 47.8321 32.5995C48.3298 31.9351 48.5965 31.1214 48.5903 30.286V26.3445C48.6099 25.5071 48.3418 24.6889 47.8321 24.031C47.5883 23.7325 47.277 23.4986 46.9249 23.3494C46.5728 23.2001 46.1903 23.14 45.8103 23.1741ZM46.7369 30.286C46.7402 30.6982 46.5897 31.0962 46.3157 31.4C46.1939 31.555 46.0403 31.6812 45.8658 31.77C45.6913 31.8588 45.4998 31.9079 45.3048 31.9141C45.1075 31.9213 44.9115 31.878 44.7349 31.7882C44.5583 31.6984 44.4066 31.5649 44.294 31.4C44.02 31.0962 43.8694 30.6982 43.8727 30.286V26.4302C43.8848 25.9951 44.0323 25.575 44.294 25.2306C44.5618 24.9572 44.9254 24.8031 45.3048 24.8021C45.6825 24.8119 46.043 24.9647 46.3157 25.2306C46.5774 25.575 46.7249 25.9951 46.7369 26.4302V30.286Z" fill="white"/>
<path d="M56.3404 23.3459H54.7398L54.5713 23.5172L53.1392 30.6292H53.0549L51.6228 23.5172C51.6228 23.4315 51.5386 23.3459 51.4543 23.4315H49.8537C49.6852 23.4315 49.601 23.4315 49.601 23.6029H49.6853L52.1283 33.4568H52.2125C52.0997 33.9502 51.959 34.4365 51.7913 34.9135C51.7406 35.0503 51.6618 35.1747 51.5601 35.2781C51.4584 35.3815 51.3362 35.4617 51.2016 35.5133C50.9188 35.6767 50.6001 35.7651 50.275 35.7703H50.1907C50.1685 35.7703 50.1467 35.7748 50.1262 35.7834C50.1058 35.792 50.0872 35.8046 50.0715 35.8205C50.0559 35.8365 50.0435 35.8553 50.035 35.8761C50.0266 35.8969 50.0222 35.9192 50.0222 35.9417V37.1413C50.0222 37.164 50.0311 37.1858 50.0469 37.2019C50.0627 37.2179 50.0841 37.227 50.1064 37.227H50.275C50.9012 37.2261 51.5246 37.1396 52.1283 36.9699C52.5591 36.7792 52.915 36.4475 53.1392 36.0274C53.4652 35.3722 53.7194 34.6826 53.8973 33.9709L56.5088 23.4315C56.5088 23.3459 56.4246 23.3459 56.3404 23.3459Z" fill="white"/>
<path d="M64.343 23.1747C63.8996 23.137 63.4533 23.1937 63.0327 23.3413C62.612 23.4888 62.2263 23.7239 61.9 24.0316C61.6017 24.331 61.3717 24.6934 61.2261 25.0931C61.0806 25.4929 61.023 25.9203 61.0575 26.3451V30.3724C61.023 30.7972 61.0806 31.2245 61.2261 31.6243C61.3717 32.024 61.6017 32.3864 61.9 32.6859C62.2263 32.9935 62.612 33.2287 63.0327 33.3761C63.4533 33.5237 63.8996 33.5804 64.343 33.5427C65.2083 33.576 66.0529 33.2691 66.7018 32.6859C67.0106 32.3906 67.2533 32.0312 67.4132 31.6319C67.5731 31.2327 67.6465 30.803 67.6284 30.3724V26.3451C67.6252 25.4811 67.2931 24.6519 66.7018 24.0316C66.3913 23.7261 66.0202 23.4916 65.6134 23.3439C65.2066 23.1961 64.7735 23.1384 64.343 23.1747ZM65.7751 30.2867C65.7784 30.6988 65.6279 31.0969 65.3539 31.4006C65.232 31.5556 65.0785 31.6819 64.904 31.7706C64.7294 31.8594 64.538 31.9086 64.343 31.9147C64.1456 31.9219 63.9497 31.8787 63.773 31.7888C63.5964 31.699 63.4448 31.5655 63.3321 31.4006C63.1785 31.2634 63.06 31.0904 62.9867 30.8963C62.9133 30.7024 62.8873 30.4931 62.9108 30.2867V26.4308C62.8982 26.2123 62.929 25.9935 63.0013 25.7874C63.0737 25.5812 63.1862 25.3921 63.3321 25.2312C63.5999 24.9578 63.9635 24.8037 64.343 24.8028C64.7207 24.8125 65.0811 24.9653 65.3539 25.2312C65.6156 25.5756 65.7631 25.9956 65.7751 26.4308V30.2867Z" fill="white"/>
<path d="M73.4413 23.1735C73.0634 23.1589 72.6869 23.2279 72.3378 23.3759C71.9887 23.5239 71.6754 23.7471 71.4195 24.0304C71.4195 24.116 71.4195 24.116 71.3352 24.116V23.6019L71.1668 23.4305H69.6504L69.4819 23.6019V33.1988C69.4819 33.2442 69.4997 33.2878 69.5312 33.3199C69.5629 33.3521 69.6057 33.3701 69.6504 33.3701H71.1668C71.2114 33.3701 71.2543 33.3521 71.2859 33.3199C71.3175 33.2878 71.3352 33.2442 71.3352 33.1988V26.6009C71.3601 26.1419 71.5056 25.6981 71.7564 25.3157C72.0243 25.0422 72.3879 24.8882 72.7673 24.8872C73.1194 24.9014 73.452 25.0551 73.694 25.3157C73.9691 25.7146 74.0891 26.203 74.031 26.6866V33.2844C74.031 33.3701 74.1152 33.4558 74.2837 33.4558H75.7158C75.8843 33.4558 75.9685 33.3701 75.8843 33.2844V26.4296C75.9521 25.5856 75.7448 24.7425 75.2946 24.0304C75.0682 23.7558 74.7842 23.5364 74.4635 23.3881C74.1428 23.2398 73.7935 23.1665 73.4413 23.1735Z" fill="white"/>
<path d="M83.4663 29.2587C83.2247 28.8829 82.9091 28.562 82.5397 28.3161L81.1918 27.6306L80.1809 27.1166C79.9532 27.0243 79.7508 26.8773 79.5912 26.6881C79.5062 26.5968 79.4401 26.4891 79.3967 26.3713C79.3533 26.2536 79.3335 26.1282 79.3385 26.0026C79.3797 25.6694 79.5397 25.3633 79.7882 25.1422C80.0367 24.9211 80.3562 24.8004 80.6863 24.803C80.8555 24.7941 81.0247 24.8198 81.1839 24.8787C81.3431 24.9375 81.489 25.0284 81.613 25.1457C81.7436 25.2605 81.8432 25.4074 81.9021 25.5724C81.9611 25.7374 81.9776 25.915 81.95 26.0883V26.174L82.2027 26.3454H83.5506C83.5952 26.3454 83.6381 26.3273 83.6697 26.2952C83.7012 26.263 83.719 26.2194 83.719 26.174C83.7246 25.778 83.653 25.3849 83.5085 25.0172C83.3639 24.6496 83.1491 24.3147 82.8766 24.0319C82.2282 23.5513 81.4465 23.2924 80.6442 23.2924C79.8419 23.2924 79.0603 23.5513 78.4118 24.0319C77.9652 24.5028 77.6823 25.1094 77.6063 25.7592C77.5303 26.4089 77.6652 27.0662 77.9906 27.6306C78.2256 27.9842 78.5093 28.3017 78.833 28.5732L80.0967 29.173L81.1918 29.6871L81.7815 30.1156C81.9404 30.3407 82.0285 30.6096 82.0342 30.8867C82.0376 31.0536 82.0011 31.2188 81.9277 31.3681C81.8543 31.5174 81.7463 31.6463 81.613 31.7436C81.371 32.0041 81.0384 32.1579 80.6863 32.172C80.3086 32.1623 79.9481 32.0095 79.6754 31.7436C79.5421 31.6463 79.4341 31.5174 79.3607 31.3681C79.2873 31.2188 79.2508 31.0536 79.2542 30.8867V30.7153C79.2542 30.6699 79.2365 30.6263 79.2049 30.5942C79.1733 30.562 79.1304 30.544 79.0857 30.544H77.6536C77.6089 30.544 77.5661 30.562 77.5345 30.5942C77.5029 30.6263 77.4851 30.6699 77.4851 30.7153V30.8867C77.5 31.6308 77.8027 32.339 78.3275 32.8575C79.0153 33.3182 79.8207 33.5637 80.6442 33.5637C81.4677 33.5637 82.2731 33.3182 82.9609 32.8575C83.2502 32.6015 83.4826 32.2857 83.6424 31.931C83.8022 31.5764 83.8858 31.1912 83.8875 30.801C83.8915 30.257 83.7456 29.7227 83.4663 29.2587Z" fill="white"/>
<path d="M59.1207 19.5753H57.8571C57.6886 19.5753 57.5201 19.661 57.5201 19.8324V29.8576V32.7709C57.5201 32.8846 57.5645 32.9936 57.6435 33.0739C57.7225 33.1542 57.8296 33.1994 57.9413 33.1994H59.0365C59.1331 33.1794 59.2196 33.1255 59.2812 33.0472C59.3428 32.9689 59.3754 32.8712 59.3735 32.7709V29.5148V19.8324C59.3735 19.7642 59.3468 19.6988 59.2994 19.6506C59.252 19.6024 59.1878 19.5753 59.1207 19.5753Z" fill="white"/>
</svg>
