<svg width="100%" viewBox="0 0 109 40" fill="none" xmlns="http://www.w3.org/2000/svg">
<g clip-path="url(#clip0_422_6621)">
<path d="M28.4809 21.5363C28.3105 20.3311 27.5309 19.633 26.4256 19.2464C26.3453 19.2193 26.24 19.2291 26.2085 19.1151C26.2487 18.987 26.3779 18.9967 26.4669 18.9598C27.6341 18.4647 28.1813 17.569 28.1802 16.3204C28.1802 15.0881 27.5917 14.2293 26.4886 13.7081C25.9609 13.4584 25.3996 13.3162 24.8209 13.2597C23.1076 13.0893 21.3878 13.2065 19.6713 13.1826C19.1697 13.1761 18.2349 13.0665 18.1795 13.6061C18.1241 14.1457 18.0905 14.2618 18.0959 14.7765C18.1328 18.2834 18.1241 21.7903 18.0753 25.2972C18.0709 25.5763 17.9862 25.8824 18.4705 25.877C20.4052 25.8542 22.34 25.8857 24.2737 25.8444C25.3779 25.8206 26.4235 25.5144 27.2931 24.7924C28.317 23.9444 28.6612 22.8196 28.4809 21.5363ZM20.8374 15.4377C20.8374 15.1728 20.9394 15.0979 21.1902 15.1011C22.0947 15.1141 22.9991 15.0827 23.9013 15.1217C24.8763 15.163 25.4279 15.7808 25.4213 16.7373C25.4148 17.6721 24.8763 18.2269 23.897 18.278C23.4453 18.3008 22.9926 18.2812 22.5409 18.2812V18.2888C22.0892 18.2888 21.6365 18.2758 21.1848 18.2943C20.9079 18.3062 20.8026 18.2259 20.8113 17.9316C20.8363 17.101 20.8417 16.2694 20.8374 15.4377ZM25.5484 23.0183C25.2943 23.5644 24.8394 23.8391 24.2705 23.8999C23.2249 24.0128 22.1728 23.926 21.1251 23.952C20.8623 23.9585 20.8395 23.8054 20.8417 23.6035C20.8461 23.0975 20.8428 22.5905 20.8428 22.0846H20.8178C20.8178 21.596 20.833 21.1074 20.8124 20.6199C20.7994 20.3224 20.8765 20.2019 21.2 20.2095C22.086 20.2301 22.9741 20.1965 23.859 20.2247C25.4148 20.2757 26.2063 21.6003 25.5484 23.0183Z" fill="white"/>
<path d="M97.8212 17.6265C99.1741 15.8807 102.145 15.7721 103.163 17.9457C103.302 17.9099 103.334 17.7753 103.403 17.6786C104.284 16.4485 105.59 16.0088 107.035 16.4637C107.855 16.721 108.384 17.2791 108.669 18.0771C108.884 18.6786 108.967 19.3061 108.971 19.9424C108.98 21.7501 108.971 23.559 109.001 25.3667C109.008 25.7858 108.876 25.8976 108.479 25.8759C107.901 25.8455 107.32 25.8423 106.744 25.8759C106.319 25.9009 106.232 25.738 106.239 25.345C106.268 23.61 106.266 21.8739 106.276 20.1378C106.278 19.8295 106.267 19.5233 106.181 19.2236C106.06 18.7991 105.84 18.4658 105.38 18.355C104.907 18.24 104.523 18.4093 104.214 18.7579C103.642 19.4039 103.466 20.1954 103.458 21.0238C103.445 22.4526 103.448 23.8814 103.484 25.3092C103.496 25.7728 103.35 25.9063 102.906 25.877C102.384 25.8423 101.855 25.839 101.334 25.877C100.865 25.9117 100.711 25.7804 100.723 25.2831C100.765 23.5666 100.754 21.8478 100.761 20.1302C100.763 19.786 100.759 19.443 100.642 19.1118C100.35 18.2812 99.4716 18.0467 98.8169 18.6395C98.3239 19.0857 98.1003 19.6796 98.0189 20.3202C97.8375 21.7436 97.9613 23.1735 97.9613 24.6002C97.9613 25.8672 97.9754 25.8672 96.6986 25.8672C96.3186 25.8672 95.9386 25.8542 95.5597 25.8716C95.272 25.8835 95.1862 25.7652 95.1873 25.4883C95.2025 22.6317 95.2133 19.7741 95.2133 16.9175C95.2133 16.5929 95.3556 16.5202 95.6422 16.5278C96.184 16.5419 96.729 16.5592 97.2697 16.5234C97.7203 16.493 97.9125 16.6298 97.8256 17.0945C97.8006 17.2291 97.8212 17.3725 97.8212 17.6254V17.6265Z" fill="white"/>
<path d="M65.018 17.6092C65.6966 16.9404 66.4273 16.5169 67.3111 16.3714C69.3729 16.0338 71.0276 17.1727 71.1731 19.2443C71.3207 21.3332 71.2545 23.4374 71.2838 25.535C71.2871 25.7522 71.21 25.8727 70.9711 25.8716C70.2654 25.8662 69.5597 25.8629 68.855 25.8738C68.4826 25.8792 68.5228 25.6284 68.525 25.3928C68.538 23.711 68.5532 22.0292 68.5651 20.3474C68.5662 20.1313 68.563 19.912 68.538 19.6981C68.4674 19.1021 68.2112 18.6102 67.6162 18.4039C67.018 18.1966 66.4664 18.3551 66.0061 18.7752C65.3438 19.38 65.1396 20.1824 65.1331 21.0368C65.1212 22.4657 65.1277 23.8945 65.1581 25.3222C65.1668 25.7381 65.0756 25.9096 64.6239 25.8814C64.0116 25.8423 63.3938 25.8607 62.7793 25.877C62.4818 25.8846 62.3602 25.7956 62.3623 25.4797C62.384 22.622 62.3949 19.7644 62.4047 16.9078C62.4047 16.6733 62.4568 16.5289 62.7326 16.5332C63.384 16.543 64.0355 16.5419 64.6858 16.5332C64.9486 16.53 65.0408 16.6418 65.0213 16.8958C65.005 17.1054 65.018 17.3171 65.018 17.6124V17.6092Z" fill="white"/>
<path d="M93.0495 17.4126C91.5393 16.113 89.7446 16.0316 87.927 16.6016C86.217 17.1379 85.318 18.4343 85.0607 20.1563C84.5515 23.5709 86.2691 26.1256 89.7815 26.1006C92.4839 26.0952 94.1798 24.6186 94.4849 21.9282C94.6781 20.2268 94.423 18.595 93.0495 17.4126ZM91.473 23.1344C91.1886 23.8999 90.6435 24.2744 89.8206 24.2929C88.9726 24.3135 88.3407 23.9628 88.066 23.2007C87.5839 21.8663 87.5894 20.5059 88.0942 19.1791C88.3744 18.4441 88.9813 18.1205 89.7619 18.1194C90.5513 18.1183 91.105 18.4788 91.4144 19.2019C91.6967 19.862 91.7466 20.5634 91.7412 21.2702C91.7466 21.9054 91.6956 22.534 91.473 23.1344Z" fill="white"/>
<path d="M58.2648 20.5645C58.1106 18.9837 57.5124 17.6526 56.0456 16.8719C52.5039 14.986 48.7191 17.2552 48.7277 21.2474C48.7332 23.9183 50.1316 25.6642 52.5745 26.0399C53.0946 26.1202 53.6201 26.118 54.1445 26.0757C56.2378 25.9074 57.7165 24.6121 58.1508 22.5612C58.2909 21.9021 58.331 21.2344 58.2648 20.5645ZM55.2563 23.0574C54.9761 23.8673 54.4474 24.2582 53.6038 24.2907C52.7341 24.3233 52.0924 23.9683 51.8101 23.1768C51.3411 21.8598 51.3487 20.5167 51.8373 19.2052C52.1196 18.4462 52.7374 18.114 53.5419 18.1194C54.3345 18.126 54.8752 18.5038 55.1803 19.2247C55.4528 19.8696 55.4919 20.5537 55.4929 21.242C55.4951 21.8576 55.4593 22.4689 55.2563 23.0574Z" fill="white"/>
<path d="M46.7788 19.8555C46.6518 19.8555 46.5237 19.8403 46.3999 19.8577C45.8332 19.938 45.4846 19.8056 45.3196 19.1585C45.1633 18.5429 44.6497 18.1824 43.9841 18.1422C43.286 18.0999 42.703 18.3257 42.3132 18.9402C41.9929 19.4451 41.9082 20.0151 41.8594 20.596C41.7942 21.3766 41.8225 22.1529 42.0429 22.9075C42.3176 23.8467 42.9885 24.3255 43.9331 24.2929C44.767 24.2647 45.3283 23.7631 45.5118 22.7892C45.5878 22.3831 45.743 22.2474 46.148 22.2745C46.6703 22.3093 47.1968 22.3038 47.7202 22.2756C48.1099 22.255 48.1675 22.4059 48.1175 22.7555C47.8711 24.497 46.388 25.8498 44.4586 26.067C42.3056 26.3091 40.5065 25.4872 39.6412 23.8651C38.6641 22.0335 38.9007 19.2953 40.1635 17.8187C41.6466 16.0837 44.907 15.7645 46.6996 17.1803C47.414 17.7438 47.8103 18.4929 47.9872 19.3756C48.0556 19.7165 47.9872 19.8957 47.5942 19.8609C47.3249 19.8371 47.0524 19.8566 46.781 19.8566L46.7788 19.8555Z" fill="white"/>
<path d="M83.0065 19.8555C82.8794 19.8555 82.7524 19.8588 82.6276 19.8577C81.8263 19.8512 81.7296 19.8468 81.5776 19.1921C81.4354 18.5765 80.9306 18.1987 80.2661 18.1466C79.5473 18.0901 79.0468 18.3083 78.5626 18.962C77.8514 20.4429 77.8634 21.9738 78.5463 23.4601C78.8492 24.1181 79.6288 24.3939 80.4094 24.2679C81.1727 24.1442 81.6059 23.636 81.721 22.9336C81.8132 22.3722 82.0521 22.3006 82.5711 22.2745C83.0032 22.2528 83.457 22.2474 83.925 22.2767C84.3267 22.3017 84.4147 22.3983 84.3593 22.7783C84.1052 24.497 82.6438 25.8346 80.7351 26.0648C78.5973 26.3221 76.7668 25.5013 75.8993 23.8966C74.9036 22.053 75.1392 19.2888 76.4182 17.8056C77.91 16.0772 81.1705 15.7699 82.9565 17.1933C83.6677 17.76 84.0596 18.5114 84.2344 19.3941C84.3072 19.7611 84.1747 19.8533 83.8197 19.862C83.5493 19.8685 83.2779 19.8577 83.0065 19.8577V19.8555Z" fill="white"/>
<path d="M33.7533 21.1074C33.7533 20.3669 33.7381 19.6253 33.7609 18.8849C33.7706 18.5537 33.6729 18.4452 33.3363 18.4538C32.4743 18.4777 32.5492 18.5754 32.5459 17.6298C32.5459 17.5397 32.5459 17.4495 32.5459 17.3583C32.5492 16.3985 32.484 16.5169 33.3396 16.5397C33.6784 16.5484 33.7793 16.4387 33.7598 16.1076C33.7305 15.6212 33.7598 15.1315 33.7381 14.644C33.724 14.3302 33.8043 14.1782 34.155 14.1902C34.7869 14.2119 35.4199 14.2054 36.0529 14.1913C36.3579 14.1847 36.473 14.2977 36.46 14.6049C36.4394 15.0924 36.4741 15.5832 36.4361 16.0674C36.4046 16.4659 36.5566 16.5636 36.9258 16.5375C37.3579 16.5071 37.7944 16.5516 38.2265 16.5245C38.5946 16.5017 38.6814 16.6504 38.6858 16.9957C38.7064 18.4604 38.7162 18.4604 37.2189 18.4604C36.6999 18.4604 36.4419 18.7159 36.4448 19.2269C36.4491 20.4201 36.4524 21.6122 36.4589 22.8055C36.4643 23.9303 36.8487 24.2527 37.9724 24.0801C38.4328 24.0092 38.663 24.2169 38.663 24.7033C38.663 25.7945 38.663 25.7891 37.5729 25.978C37.0496 26.0692 36.5317 26.0713 36.0105 25.9725C34.649 25.7141 33.813 24.7772 33.7554 23.3831C33.724 22.6252 33.75 21.8652 33.75 21.1063H33.7554L33.7533 21.1074Z" fill="white"/>
<path d="M5.11706 12.086C6.81841 12.0871 8.51975 12.0882 10.2211 12.0892C10.4296 12.3346 10.3709 12.6321 10.3785 12.9144C10.4187 14.3302 10.3025 15.7482 10.4534 17.1618C10.4871 18.7904 10.5577 20.419 10.4176 22.0465C10.3883 22.1138 10.3394 22.1616 10.2732 22.1931C10.2016 22.1757 10.1505 22.1323 10.118 22.066C9.95943 21.4635 10.0561 20.8489 10.0419 20.2409C10.0246 19.4853 10.0441 18.7296 10.0354 17.9739C10.0289 17.4006 9.98441 17.3529 9.41982 17.3485C8.2494 17.3388 7.08007 17.3485 5.90965 17.3431C5.64147 17.342 5.36678 17.3702 5.11815 17.2248C5.06278 17.1781 5.02261 17.1205 4.99655 17.0532C4.8554 15.9425 4.96398 14.8275 4.93357 13.7135C4.9238 13.3541 4.92598 12.9937 4.93683 12.6343C4.94335 12.4345 4.96072 12.2369 5.11598 12.0849L5.11706 12.086Z" fill="white" fill-opacity="0.5"/>
<path d="M10.194 27.2494C8.49266 27.2472 6.79132 27.2461 5.08998 27.2439C4.9662 27.1169 4.94666 26.954 4.94449 26.7912C4.93146 25.3819 4.92603 23.9726 4.94666 22.5633C4.94774 22.4548 4.97054 22.3484 5.01289 22.2463C5.04437 22.1801 5.09106 22.128 5.15512 22.091C5.37444 21.9857 5.61113 21.9966 5.84456 21.9966C7.05298 21.9933 8.26032 21.9922 9.46874 21.9966C9.71737 21.9977 9.97903 21.9651 10.1907 22.1497C10.2049 22.1638 10.219 22.1768 10.2331 22.1909C10.4003 22.3885 10.3797 22.6296 10.3808 22.8619C10.3862 24.0877 10.3862 25.3146 10.3808 26.5404C10.3797 26.7901 10.3992 27.0518 10.194 27.2504V27.2494Z" fill="white" fill-opacity="0.5"/>
<path d="M10.194 27.2494C10.207 25.5632 10.22 23.8771 10.2331 22.1909C10.2602 22.1812 10.2884 22.1736 10.3177 22.1692C10.4763 22.0248 10.6739 22.002 10.8747 21.9998C12.2645 21.9879 13.6553 21.9998 15.0461 21.9922C15.1373 21.9922 15.2253 22.014 15.3067 22.0552C15.3078 23.5709 15.3023 25.0877 15.3154 26.6034C15.3197 27.0485 15.1666 27.2754 14.69 27.27C13.1917 27.2526 11.6934 27.2548 10.1951 27.2494H10.194Z" fill="white" fill-opacity="0.1"/>
<path d="M5.10942 22.1638C5.10291 23.8575 5.09531 25.5513 5.0888 27.245C3.5894 27.2504 2.09 27.2537 0.590603 27.2635C0.224711 27.2656 0.00105036 27.1397 0.00430756 26.7358C0.0140792 25.219 0.0195078 23.7012 0.027108 22.1844C0.173682 22.0216 0.371285 21.9998 0.57106 21.9988C1.91846 21.9879 3.26585 21.9857 4.61324 21.9998C4.79239 22.002 4.97479 22.0194 5.11051 22.1638H5.10942Z" fill="white"/>
<path d="M5.11709 12.086C5.11275 13.745 5.10949 15.4029 5.10515 17.0619C4.98029 17.3149 4.74143 17.3377 4.50582 17.3399C3.1758 17.3561 1.84469 17.3529 0.513585 17.3409C0.332267 17.3398 0.153121 17.3138 0.0119759 17.1802C0.00980442 15.7015 0.0141473 14.2205 3.2822e-05 12.7407C-0.00431011 12.2966 0.141178 12.0654 0.621072 12.0697C2.11938 12.0849 3.6177 12.0816 5.11709 12.086Z" fill="white" fill-opacity="0.1"/>
<path d="M10.3168 17.2032C10.2146 17.0644 10.2049 16.9058 10.2059 16.7407C10.2114 15.1903 10.2146 13.641 10.2179 12.0906C11.721 12.0851 13.2242 12.0884 14.7262 12.0698C15.1968 12.0643 15.312 12.3092 15.3088 12.7204C15.2979 14.1767 15.3001 15.6342 15.2968 17.0917C15.1957 17.3377 14.9762 17.3705 14.7588 17.3749C13.4448 17.3968 12.1297 17.3913 10.8157 17.3793C10.632 17.3771 10.457 17.3388 10.3179 17.2043L10.3168 17.2032Z" fill="white"/>
<path d="M0.0119019 17.1814C1.48307 17.1781 2.95424 17.1749 4.42649 17.1705C4.65775 17.1705 4.89553 17.202 5.10508 17.062C5.10725 17.1043 5.1105 17.1477 5.11268 17.1901C5.25274 17.328 5.27228 17.5093 5.27445 17.6884C5.28748 19.0163 5.28856 20.3441 5.27445 21.672C5.27228 21.8544 5.23102 22.0281 5.1029 22.1703L5.1105 22.1627C3.41567 22.1692 1.72193 22.1768 0.0271021 22.1834C0.0227592 20.5157 0.0173305 18.848 0.0129876 17.1803L0.0119019 17.1814Z" fill="white" fill-opacity="0.5"/>
<path d="M29.1432 21.192C29.1432 19.8023 29.1541 18.4126 29.1356 17.0228C29.1302 16.6515 29.2301 16.5071 29.621 16.5245C30.2518 16.5538 30.8848 16.5397 31.5167 16.5288C31.7913 16.5234 31.9021 16.6189 31.901 16.9045C31.8945 19.7741 31.8967 22.6447 31.901 25.5143C31.901 25.7651 31.8109 25.8737 31.5525 25.8704C30.8663 25.8618 30.1801 25.8563 29.4939 25.8726C29.1367 25.8813 29.1378 25.6685 29.1389 25.4155C29.1422 24.0073 29.1411 22.5991 29.1411 21.192C29.1411 21.192 29.1422 21.192 29.1432 21.192Z" fill="white"/>
<path d="M58.8858 21.1758C58.8858 19.8219 58.901 18.468 58.8771 17.1151C58.8695 16.6874 58.9575 16.4887 59.4363 16.5223C60.0106 16.5625 60.5915 16.5473 61.1691 16.5267C61.5079 16.5147 61.6501 16.6027 61.6479 16.9762C61.6349 19.7915 61.6349 22.6068 61.6479 25.4232C61.6501 25.7945 61.5111 25.8857 61.1702 25.8748C60.5568 25.8542 59.9422 25.8499 59.3288 25.8759C58.9564 25.8922 58.8739 25.738 58.8771 25.3993C58.8913 23.9922 58.8837 22.584 58.8837 21.1758C58.8837 21.1758 58.8847 21.1758 58.8858 21.1758Z" fill="white"/>
<path d="M10.3198 17.1673C11.7704 17.164 13.2198 17.1607 14.6704 17.1564C14.8832 17.1564 15.1025 17.1879 15.2947 17.0565C15.2979 18.7231 15.3023 20.3897 15.3055 22.0552C15.1166 22.1942 14.8973 22.1703 14.6823 22.1692C13.2274 22.1692 11.7726 22.1692 10.3166 22.1692C10.3166 20.5015 10.3188 18.8349 10.3188 17.1673H10.3198Z" fill="white" fill-opacity="0.5"/>
<path d="M73.3424 25.8694C71.8755 25.8738 71.9461 26.13 71.9461 24.4645C71.9461 23.0357 72.0384 23.2723 73.1306 23.2745C73.5443 23.2745 73.959 23.2724 74.3727 23.2724C74.5681 23.2724 74.7766 23.4146 74.7766 23.6328C74.7766 24.2625 74.8179 24.8944 74.7766 25.5231C74.769 25.6382 74.6344 25.8749 74.4237 25.8738C74.0644 25.8629 73.7039 25.8705 73.3434 25.8716L73.3424 25.8694Z" fill="white"/>
<path d="M30.5503 15.6353C28.8805 15.6353 29.1389 15.6353 29.1389 14.2336C29.1389 13.1772 28.9934 13.1055 30.0932 13.049C30.0932 13.049 31.901 12.8916 31.901 13.3921C31.901 13.7971 31.8912 14.3031 31.8956 14.821C31.901 15.5647 31.9911 15.6309 31.091 15.6353C30.9108 15.6353 30.7306 15.6353 30.5503 15.6353Z" fill="white"/>
<path d="M60.294 13.1761C61.6783 13.1761 61.6436 13.0469 61.6436 14.53C61.6436 15.6385 61.7782 15.6385 60.5296 15.6342C60.1149 15.6342 59.699 15.6212 59.2854 15.6385C58.9759 15.6516 58.8695 15.5224 58.8771 15.2249C58.8902 14.6668 58.888 14.1066 58.8771 13.5485C58.8717 13.2673 58.9901 13.1609 59.2658 13.1728C59.6078 13.1869 59.9509 13.1761 60.294 13.1761Z" fill="white"/>
<path d="M5.10297 22.166C5.10636 20.5124 5.10976 18.8588 5.11315 17.2052C6.75182 17.1965 8.39162 17.1933 10.0303 17.1727C10.3834 17.1684 10.4252 17.3371 10.423 17.6086C10.4117 19.1205 10.4105 20.6335 10.4071 22.1454C8.63945 22.1519 6.87178 22.1595 5.1041 22.167L5.10297 22.166Z" fill="white"/>
</g>
<defs>
<clipPath id="clip0_422_6621">
<rect width="109" height="15.2013" fill="white" transform="translate(0 12.0697)"/>
</clipPath>
</defs>
</svg>
