<svg width="100%" viewBox="0 0 109 40" fill="none" xmlns="http://www.w3.org/2000/svg">
<g clip-path="url(#clip0_422_6713)">
<path d="M16.1331 12.848H12.587L9.07977 26.9721H12.6065L14.8082 18.1275H18.3349L19.6598 12.848H16.1331Z" fill="white"/>
<path d="M23.1865 12.848L21.8615 18.1275L20.9847 21.6731H17.4581L16.1331 26.9721H19.6598H23.206L25.4077 18.1275L26.7132 12.848H23.1865Z" fill="white"/>
<path d="M45.7885 13.6857C45.7885 13.978 45.6911 14.1923 45.4768 14.3871C45.2819 14.5624 45.0481 14.6598 44.8143 14.6598C44.5805 14.6598 44.3467 14.5624 44.1518 14.3871C43.957 14.2117 43.8401 13.978 43.8401 13.6857C43.8401 13.3935 43.9375 13.1792 44.1518 12.9844C44.3467 12.8091 44.5805 12.7117 44.8143 12.7117C45.0481 12.7117 45.2819 12.8091 45.4768 12.9844C45.6911 13.1792 45.7885 13.413 45.7885 13.6857ZM30.2594 12.8286H36.1047C37.7219 12.8286 38.9884 13.2961 39.8068 14.0754C40.3913 14.6793 40.7225 15.4196 40.7225 16.3352V16.3742C40.7225 18.2054 39.5925 19.16 38.4818 19.6471C40.1575 20.1536 41.5019 21.1277 41.5019 23.0563V23.0953C41.5019 25.511 39.4561 26.9526 36.3775 26.9526H30.2789L30.2594 12.8286ZM35.832 19.1406C37.7414 19.1406 39.0859 18.2639 39.0859 16.608V16.569C39.0859 15.1663 37.9752 14.2702 35.9489 14.2702H31.8376V19.1406H35.832ZM36.397 25.5305C38.5403 25.5305 39.8652 24.5759 39.8652 22.9979V22.9589C39.8652 21.4199 38.5793 20.5432 36.1047 20.5432H31.8182V25.5305H36.397ZM44.0349 16.53H45.5937V26.9721H44.0349V16.53ZM49.7244 23.6603V17.9132H47.3667V16.5495H49.7244V12.848H51.2831V16.5495H55.5697V17.9132H51.2831V23.4654C51.2831 24.8681 51.9456 25.7643 53.2121 25.7448C54.0889 25.7253 54.7903 25.6474 55.4333 25.3746V26.6994C54.8877 26.9916 53.894 27.1669 52.8419 27.1474C50.9519 27.1085 49.7244 25.7837 49.7244 23.6603ZM57.8104 12.8286H61.1617L64.8833 18.8094L68.6048 12.8286H71.9561V26.9526H68.8581V17.7379L64.8833 23.7771H64.8053L60.85 17.7963V26.9526H57.8104V12.8286ZM74.7034 12.8286H85.3614V15.5949H77.782V18.4587H84.0949V21.2251H77.8015V24.1863H85.4783V26.9526H74.7229V12.8286H74.7034ZM91.2847 19.7834L86.5695 12.848H90.2131L93.1747 17.4262L96.1558 12.848H99.6825L94.9673 19.7445L99.8774 26.9721H96.2338L93.0578 22.1212L89.8623 26.9721H86.3357L91.2847 19.7834Z" fill="white"/>
</g>
<defs>
<clipPath id="clip0_422_6713">
<rect width="108.957" height="39.9509" fill="white"/>
</clipPath>
</defs>
</svg>
