<svg width="100%" viewBox="0 0 109 40" fill="none" xmlns="http://www.w3.org/2000/svg">
<g clip-path="url(#clip0_422_6554)">
<g clip-path="url(#clip1_422_6554)">
<path d="M36.0584 38.9082H61.4697V27.8429H36.0584V38.9082Z" fill="white" fill-opacity="0.5"/>
<path d="M50.3985 9.44987C49.2964 10.3165 48.4458 10.9324 47.0965 11.4566C45.922 11.9144 44.6606 12.1008 43.219 12.2938C42.2917 12.4213 41.322 12.6088 40.3957 12.6699C40.0149 12.6949 39.6342 12.7189 39.2546 12.7484L24.0003 13.8373V14.9427L39.3157 13.4885L41.3019 13.3065C42.0378 13.2378 42.6924 13.1593 43.3002 13.0623C44.7842 12.829 46.0634 12.4737 47.2101 11.9733C48.3991 11.4599 49.6026 10.6184 50.7214 9.69718C51.4818 9.07148 52.2143 8.28446 53.0104 7.42432V7.02861C52.0474 8.00313 51.248 8.78266 50.3985 9.44987ZM53.0108 27.9616L24.0005 27.2411V28.3431H53.0108V27.9616ZM42.1995 26.0128L38.4477 25.9736C33.6606 25.907 28.879 25.8221 24.0005 25.7327V26.8347C28.6562 26.8053 33.588 26.7704 38.451 26.717L42.205 26.6625C43.4697 26.6407 44.7087 26.6179 45.9611 26.5775C48.5406 26.4968 50.8518 26.3191 53.0104 26.039V25.6553C50.843 25.8842 48.5294 26.0041 45.9477 26.0205C44.6997 26.0314 43.4495 26.0231 42.1993 26.0126M45.9904 24.2804C45.1933 24.3109 44.3305 24.3262 43.3519 24.3262C42.9823 24.3262 42.6116 24.3244 42.2431 24.3209L38.4779 24.2763C35.9096 24.2577 33.3502 24.2533 30.9487 24.2513L24.0007 24.2574V25.3583L30.9654 25.1807C33.3579 25.1229 35.924 25.0629 38.4856 25.0182L42.2474 24.9691C43.2794 24.9539 44.6411 24.9234 46.0203 24.8351C47.3718 24.749 48.6019 24.617 49.7809 24.4328C50.8419 24.2671 51.9262 24.0437 53.0106 23.7722V23.382C51.8962 23.6327 50.7885 23.8344 49.7143 23.975C48.542 24.1287 47.324 24.2281 45.9904 24.2804ZM46.0643 22.4875C44.1517 22.6423 42.1945 22.6423 40.3008 22.6423C39.7119 22.6423 39.1229 22.6423 38.534 22.6467C33.6946 22.6674 28.8942 22.7067 24.0001 22.7481V23.8501C28.6615 23.6953 33.6055 23.534 38.5507 23.3901C39.1374 23.3705 39.7241 23.3564 40.3119 23.3411C42.2157 23.2943 44.1839 23.2463 46.1166 23.0413C47.4658 22.8996 48.6949 22.6914 49.8717 22.4069C50.8981 22.1595 51.9524 21.8303 53.0111 21.4346V21.029C51.9178 21.4128 50.8291 21.7267 49.7681 21.9556C48.6025 22.2074 47.3912 22.3807 46.0643 22.4875ZM46.1802 20.6688C44.1385 20.9359 42.0377 20.9664 40.0049 20.9958C39.5396 21.002 39.0731 21.0089 38.6078 21.0188L24.0003 21.276V22.3781L38.6333 21.7611C39.0964 21.7404 39.5618 21.7219 40.0272 21.7044C42.0733 21.6238 44.1898 21.5409 46.2593 21.2193C47.5685 21.0177 48.8288 20.7179 50.0054 20.3309C50.9796 20.0115 51.9882 19.5984 53.0101 19.1101V18.6871C51.9358 19.1766 50.8792 19.5842 49.865 19.8895C48.7027 20.2405 47.4639 20.5031 46.1802 20.6688ZM46.3107 18.8615C45.1985 19.0609 44.0018 19.1885 42.5421 19.2615C41.9933 19.2899 41.4055 19.3095 40.6373 19.3269L24.0005 19.7673V20.8715L38.7527 20.1172L40.6642 20.0224C41.4101 19.9875 42.0201 19.9526 42.5846 19.9101C44.0641 19.7989 45.2809 19.6398 46.4143 19.4076C47.7012 19.146 48.9503 18.7644 50.126 18.2739C51.0734 17.8804 52.0219 17.4007 53.0105 16.8176V16.3739C51.9551 16.9756 50.951 17.4574 49.9535 17.8444C48.7946 18.2957 47.5687 18.638 46.3107 18.8615ZM46.4758 17.0618C45.3681 17.3158 44.1669 17.4783 42.6963 17.5753C42.1296 17.6123 41.5195 17.6396 40.777 17.6625L38.8454 17.7301C33.9781 17.9099 29.043 18.117 23.9999 18.3318V19.436C29.0107 19.1014 33.9258 18.7754 38.8834 18.4724L40.8105 18.359C41.5664 18.3165 42.182 18.274 42.7487 18.2228C44.2461 18.0876 45.4718 17.8903 46.6052 17.6036C47.8765 17.2831 49.1123 16.8122 50.2779 16.2061C51.1797 15.7385 52.0792 15.176 53.011 14.498V14.026C52.0035 14.7378 51.037 15.3188 50.0708 15.7919C48.9252 16.3533 47.7162 16.7806 46.4758 17.0618ZM46.6558 15.2264C45.5559 15.5425 44.3179 15.7561 42.8706 15.8793C42.2839 15.9295 41.6516 15.9676 40.9368 15.996L38.9864 16.0798C34.1403 16.3 29.3165 16.5464 24.0006 16.8222V17.9264C29.0793 17.5416 34.0558 17.1677 39.031 16.8211L40.9748 16.6914C41.7263 16.6423 42.3486 16.59 42.9342 16.5257C44.4171 16.3633 45.6861 16.1126 46.8128 15.7594C48.0608 15.3724 49.2777 14.811 50.4288 14.0915C51.2782 13.5618 52.1287 12.9295 53.0104 12.1763V12.1567C52.0385 12.9688 51.1123 13.1497 50.1894 13.6948C49.0583 14.3662 47.8693 14.8808 46.6558 15.2264ZM46.2852 13.121C45.2699 13.6769 44.5106 13.9974 43.061 14.1457C42.1849 14.2383 41.2842 14.2819 40.4125 14.3244C39.9917 14.3451 39.5698 14.3659 39.1478 14.392C36.5139 14.5392 33.9265 14.7027 31.2869 14.8706L24.0004 15.3513V16.4588L31.3602 15.7982C33.7381 15.5889 36.5013 15.348 39.1988 15.1322L41.1604 14.9839C41.9263 14.9262 42.5542 14.8651 43.1353 14.791C44.6271 14.6024 45.9018 14.307 47.0307 13.8895C48.2464 13.4447 49.393 12.7536 50.5408 11.9405C51.5761 11.208 53.0089 9.76356 53.0101 9.74508V9.35374C52.0739 10.2476 51.535 10.7501 50.5097 11.4117C49.284 12.202 47.1955 12.6228 46.2847 13.1209M50.5014 7.36801C49.4349 8.32618 48.3216 9.07943 47.1917 9.60699C46.0863 10.1291 44.8504 10.4954 43.411 10.7265C42.8176 10.8235 42.1719 10.902 41.4383 10.9674L23.9998 12.3692V13.4767L39.5011 11.8667L41.5061 11.6607C42.262 11.5746 42.9211 11.4786 43.52 11.3675C45.0107 11.0917 46.2898 10.6807 47.4287 10.1095C48.5932 9.53287 49.7567 8.57359 50.8387 7.55761C51.5646 6.87631 52.2637 5.99663 53.0107 5.07446V4.70492C52.1479 5.75576 51.3241 6.63007 50.5014 7.36801ZM47.4423 7.63989C46.3479 8.25578 45.0845 8.70708 43.6862 8.9796C43.0894 9.09842 42.4382 9.19435 41.6967 9.27282C41.2603 9.31965 40.8216 9.35672 40.3819 9.39382C40.1448 9.41344 39.9076 9.43411 39.6705 9.45487C34.3133 9.92577 28.9841 10.4261 23.9999 10.8992V12.01C29.023 11.417 34.3902 10.788 39.7451 10.195C39.9833 10.1678 40.2215 10.1416 40.4598 10.1165C40.8984 10.0696 41.3382 10.0217 41.7779 9.96501C42.5405 9.86581 43.2074 9.75136 43.8164 9.6162C45.2692 9.2979 46.5807 8.79646 47.7151 8.12388C48.8417 7.4622 49.8369 6.53455 50.908 5.40079C51.5748 4.69551 52.3162 3.69919 53.0109 2.76397V2.35629C52.1927 3.442 51.4167 4.35436 50.6497 5.13272C49.6044 6.19336 48.5255 7.03595 47.4423 7.63989ZM23.9996 10.5096C23.9996 10.5096 41.4804 8.29447 41.9736 8.2161C42.7306 8.0951 43.4019 7.9534 44.0288 7.78442C45.4426 7.40508 46.7441 6.82625 47.8962 6.0632C49.0017 5.3383 50.0293 4.28311 51.048 3.1254C51.6948 2.3885 52.375 1.42815 53.0096 0.501676V0.0536499C52.257 1.14481 51.5156 2.08562 50.753 2.915C49.7422 4.01706 48.6823 4.91751 47.6012 5.59322C46.4857 6.2974 45.231 6.82174 43.8695 7.15421C43.2594 7.30464 42.607 7.42673 41.8723 7.52702C41.3892 7.59347 40.8904 7.64475 40.4084 7.6938C40.2158 7.71456 23.9997 9.39867 23.9997 9.39867L23.9996 10.5096Z" fill="white"/>
<path d="M65.0915 27.4485C65.0915 27.4485 69.8731 27.6208 71.3258 27.6513C72.7786 27.6818 82.984 28.0764 82.984 28.0764V28.35L65.0913 28.3391L65.0915 27.4485ZM65.0813 25.0908C65.0813 25.0908 68.1227 25.5933 71.3256 26.1023C73.7269 26.485 76.9812 26.7259 77.3285 26.74C77.6759 26.7553 82.984 27.1052 82.984 27.1052V27.3777C82.984 27.3777 79.5874 27.2099 77.3285 27.09C74.9762 26.9646 72.6382 26.8283 71.3101 26.6954C68.3353 26.3967 65.0813 26.0021 65.0813 26.0021V25.0908ZM65.0915 22.8133C65.0915 22.8133 68.7987 23.9164 71.3258 24.5541C73.853 25.1918 76.1752 25.4501 77.3442 25.5254C78.5132 25.6017 82.9685 25.9505 82.9685 25.9505V26.2088C82.9685 26.2088 80.4413 26.0431 77.3287 25.8295C74.8116 25.6573 72.7898 25.4752 71.3103 25.1613C69.6704 24.8135 65.0815 23.7649 65.0815 23.7649L65.0915 22.8133ZM65.0915 20.5055C65.0915 20.5055 68.7464 22.0077 71.3258 22.9898C73.8642 23.9567 75.8024 24.0385 77.3442 24.2053C78.0233 24.2783 82.9685 24.7667 82.9685 24.7667V25.0392C82.9685 25.0392 80.0138 24.8125 77.3287 24.5846C74.6436 24.3568 73.4845 24.2609 71.3103 23.5676C69.1094 22.8667 65.0815 21.5183 65.0815 21.5183L65.0915 20.5055ZM65.0915 18.2282C65.0915 18.2282 69.7372 20.6536 71.3103 21.4112C73.0637 22.256 74.5801 22.6615 77.3287 22.9743C80.0274 23.2839 82.9842 23.5826 82.9842 23.5826V23.8562C82.9842 23.8562 80.25 23.575 77.3287 23.309C74.433 23.0463 73.4011 22.9242 71.3103 22.0336C69.44 21.2378 65.0815 19.2911 65.0815 19.2911L65.0915 18.2282ZM65.081 15.9914C65.081 15.9914 70.3301 19.3467 71.3254 19.8785C72.3218 20.4094 73.4907 21.2749 77.3283 21.7458C81.1668 22.2157 82.9681 22.4282 82.9681 22.4282V22.7171C82.9681 22.7171 79.7931 22.3835 77.3125 22.1252C74.8322 21.8668 73.1422 21.518 71.2941 20.5457C69.4461 19.5744 65.0909 17.1349 65.0909 17.1349L65.0808 15.9914L65.081 15.9914ZM65.081 13.7545C65.081 13.7545 70.3145 17.7376 71.2943 18.4352C72.274 19.134 73.5688 19.9483 77.3283 20.4705C81.0567 20.9872 82.9681 21.2444 82.9681 21.2444V21.5486C82.9681 21.5486 79.5882 21.0766 77.3283 20.8041C75.0694 20.5305 73.3371 20.4149 71.3099 19.1188C69.3359 17.8576 65.0911 14.9896 65.0911 14.9896L65.081 13.7545ZM65.0915 11.4164C65.0915 11.4164 69.6793 15.5052 71.3103 16.9028C72.811 18.188 74.0278 18.5881 77.3287 19.1495C80.6307 19.7109 82.9842 20.0597 82.9842 20.0597V20.3486C82.9842 20.3486 79.9985 19.8777 77.3132 19.4678C74.6279 19.0579 72.9169 18.8966 71.3103 17.6463C69.4567 16.203 65.0915 12.7529 65.0915 12.7529V11.4164ZM65.0915 9.23017C65.0915 9.23017 69.9153 14.0821 71.3103 15.4751C72.7898 16.9522 74.6857 17.4994 77.3132 17.9496C79.8215 18.3791 82.9842 18.8762 82.9842 18.8762V19.1487C82.9842 19.1487 80.014 18.6821 77.3132 18.2385C74.6647 17.8024 72.8111 17.5604 71.2948 16.2186C69.9366 15.0174 65.0915 10.6571 65.0915 10.6571V9.23017ZM65.0813 6.8718C65.0813 6.8718 70.3059 12.7942 71.3101 13.8504C72.8743 15.4953 73.6323 16.0622 77.3285 16.7501C78.8069 17.0259 82.984 17.7377 82.984 17.7377V17.9949C82.984 17.9949 79.5251 17.3878 77.3285 17.0084C75.1331 16.6291 73.275 16.4874 71.2946 14.6244C69.7861 13.2063 65.0913 8.40011 65.0913 8.40011L65.0813 6.8718ZM65.0915 4.60451C65.0915 4.60451 70.2516 11.1329 71.2948 12.4389C72.3368 13.7437 73.7739 14.8217 77.3287 15.4899C79.3782 15.8758 82.9842 16.5222 82.9842 16.5222V16.7653C82.9842 16.7653 79.8248 16.1887 77.3287 15.7483C74.8328 15.3079 72.7721 14.8817 71.2948 13.2586C69.9989 11.8338 65.0815 6.23411 65.0815 6.23411L65.0915 4.60451ZM65.0915 2.29679C65.0915 2.29679 70.5677 9.97848 71.2948 10.9203C72.0217 11.8622 73.0003 13.3796 77.3287 14.2756C78.4464 14.5067 82.9998 15.3842 82.9998 15.3842V15.6273C82.9998 15.6273 79.5396 14.9743 77.3287 14.5187C75.1166 14.063 72.7932 13.6477 71.3103 11.8164C69.9632 10.1529 65.0815 4.01801 65.0815 4.01801L65.0915 2.29679ZM65.0915 -0.000915527C65.0915 -0.000915527 70.3907 8.07977 71.3605 9.56562C72.329 11.0503 73.4367 12.2254 77.3576 13.0233C81.2786 13.8213 82.9852 14.1984 82.9852 14.1984V14.4862C82.9852 14.4862 80.4937 13.9761 77.2874 13.2893C74.0823 12.6026 72.7719 12.3704 71.3101 10.4191C70.0933 8.79491 65.0913 1.89148 65.0913 1.89148L65.0915 -0.000915527Z" fill="white"/>
<path d="M61.4751 11.6948H36.0599V28.3424H61.4751V11.6948Z" fill="white"/>
<path d="M36.0584 40H61.4776V38.5796H36.0584V40Z" fill="white"/>
<path d="M46.1683 24.4368H47.0522L46.3397 24.96L46.6147 25.7895L45.9066 25.2783L45.1964 25.7895L45.4769 24.96L44.7577 24.4368H45.6394L45.9066 23.6268L46.1683 24.4368ZM44.1141 22.4256H45.0003L44.2867 22.9499L44.5628 23.7806L43.8536 23.2682L43.1444 23.7806L43.4228 22.9499L42.7036 22.4256H43.5864L43.8536 21.6179L44.1141 22.4256ZM43.3626 19.5949H44.2477L43.5352 20.1181L43.8113 20.9487L43.1021 20.4375L42.3918 20.9487L42.6713 20.1181L41.9532 19.5949H42.8349L43.1021 18.786L43.3626 19.5949ZM44.1141 16.849H45.0003L44.2867 17.3723L44.5628 18.2029L43.8536 17.6906L43.1444 18.2029L43.4228 17.3723L42.7036 16.849H43.5864L43.8536 16.0402L44.1141 16.849ZM46.1388 14.8103H47.0227L46.3102 15.3347L46.5874 16.1642L45.8771 15.6519L45.1668 16.1642L45.4474 15.3347L44.7282 14.8103H45.6099L45.8771 14.0015L46.1388 14.8103ZM54.6967 19.5879H55.5829L54.8693 20.1112L55.1465 20.9418L54.4362 20.4295L53.727 20.9418L54.0065 20.1112L53.2862 19.5879H54.1679L54.4362 18.7791L54.6967 19.5879ZM53.9165 22.4187H54.8005L54.0879 22.943L54.3652 23.7736L53.6549 23.2613L52.9468 23.7736L53.2263 22.943L52.506 22.4187H53.3877L53.6549 21.6087L53.9165 22.4187ZM53.9165 16.8421H54.8005L54.0879 17.3643L54.3652 18.1949L53.6549 17.6837L52.9468 18.1949L53.2263 17.3643L52.506 16.8421H53.3877L53.6549 16.0322L53.9165 16.8421ZM51.8342 14.8034H52.7204L52.0068 15.3267L52.284 16.1562L51.5737 15.6449L50.8645 16.1562L51.144 15.3267L50.4237 14.8034H51.3065L51.5737 13.9946L51.8342 14.8034ZM51.8342 24.4298H52.7204L52.0068 24.9531L52.284 25.7826L51.5737 25.2703L50.8645 25.7826L51.144 24.9531L50.4237 24.4298H51.3065L51.5737 23.6199L51.8342 24.4298ZM49.0295 25.165H49.9157L49.2021 25.6893L49.4793 26.5178L48.769 26.0076L48.0599 26.5178L48.3393 25.6893L47.619 25.165H48.5019L48.769 24.3561L49.0295 25.165ZM48.9984 14.0629H49.8823L49.1698 14.6069L49.447 15.4691L48.7367 14.9382L48.0264 15.4691L48.307 14.6069L47.5878 14.0629H48.4695L48.7367 13.2214L48.9984 14.0629Z" fill="#555555"/>
<path d="M52.2217 32.511H51.9334C51.881 32.511 51.8565 32.4871 51.8565 32.4369L51.861 31.3338C51.861 31.1016 51.8053 30.949 51.5726 30.949C51.4123 30.949 51.1318 31.0743 51.0227 31.1256V32.4369C51.0227 32.4838 51.0026 32.5111 50.947 32.5111H50.662C50.6063 32.5111 50.5863 32.4871 50.5863 32.4369V30.6656C50.5863 30.6154 50.6063 30.5881 50.662 30.5881H50.947C51.0026 30.5881 51.0227 30.6153 51.0227 30.6656V30.7844C51.0271 30.7844 51.0316 30.7879 51.035 30.7879C51.183 30.6865 51.4636 30.5524 51.7085 30.5524C52.2496 30.5524 52.2985 30.9023 52.2985 31.298V32.4372C52.2985 32.4841 52.2818 32.5113 52.2217 32.5113M49.8129 31.6355H49.3242C49.1238 31.6355 48.9946 31.7064 48.9946 31.9658C48.9946 32.1381 49.0548 32.1936 49.244 32.1936C49.4166 32.1936 49.6604 32.0945 49.8129 32.0083L49.8129 31.6355ZM49.8374 32.2874C49.637 32.4367 49.3676 32.5425 49.0993 32.5425C48.674 32.5425 48.5504 32.3146 48.5504 31.9854C48.546 31.5254 48.7987 31.3292 49.3041 31.3292H49.8173V31.2278C49.8173 30.9924 49.7283 30.9095 49.3999 30.9095C49.2674 30.9095 49.0147 30.9292 48.8543 30.9444C48.7742 30.9565 48.7542 30.9523 48.743 30.8976L48.7063 30.7526C48.6983 30.7013 48.7108 30.6698 48.7987 30.6349C48.9713 30.576 49.2875 30.5488 49.4767 30.5488C50.1703 30.5488 50.2538 30.8268 50.2538 31.2672V32.0248C50.2538 32.185 50.2738 32.1894 50.3985 32.2046C50.4586 32.209 50.4742 32.2209 50.4742 32.2635V32.4292C50.4742 32.4717 50.4464 32.4989 50.3785 32.5109C50.3139 32.5229 50.2504 32.5305 50.1903 32.5305C50.0011 32.5305 49.8853 32.476 49.8452 32.2918L49.8372 32.2874L49.8374 32.2874ZM47.1395 31.3727H47.9333C47.9333 31.1329 47.8687 30.9018 47.537 30.9018C47.2397 30.9018 47.1596 31.0784 47.1395 31.3727ZM47.1351 31.667C47.1474 32.0638 47.2921 32.1739 47.6205 32.1739C47.7652 32.1739 47.989 32.1455 48.1415 32.1303C48.2139 32.1224 48.2383 32.1224 48.2506 32.1968L48.274 32.3265C48.2863 32.3854 48.2785 32.417 48.2062 32.4486C48.0492 32.5075 47.7575 32.5467 47.5605 32.5467C46.7945 32.5467 46.6821 32.0682 46.6821 31.5569C46.6821 31.1765 46.7545 30.5486 47.5371 30.5486C48.254 30.5486 48.3821 31.0043 48.3943 31.4272C48.3988 31.5689 48.3587 31.6671 48.1984 31.6671L47.1351 31.667ZM45.6808 30.9488C45.516 30.9488 45.2633 31.0622 45.1431 31.1254V32.1064C45.3234 32.1577 45.4681 32.173 45.6051 32.173C45.8934 32.173 45.9936 32.028 45.9936 31.5342C45.9936 31.0349 45.8934 30.9488 45.6808 30.9488ZM45.6485 32.5469C45.5161 32.5469 45.3324 32.5229 45.1476 32.4597L45.1431 32.464V33.1551C45.1431 33.1976 45.132 33.2336 45.0674 33.2336H44.7824C44.719 33.2336 44.7067 33.2064 44.7067 33.1551V30.6664C44.7067 30.6152 44.7267 30.5879 44.7824 30.5879H45.0674C45.1242 30.5879 45.1398 30.6184 45.1398 30.6664V30.7841L45.1521 30.792C45.2957 30.6939 45.5529 30.5565 45.7856 30.5565C46.3099 30.5565 46.4469 30.9446 46.4469 31.5376C46.4469 32.1775 46.282 32.5469 45.6485 32.5469ZM43.6008 30.925C43.2601 30.925 43.1833 31.1376 43.1833 31.5453C43.1833 31.9617 43.26 32.1655 43.5963 32.1655C43.9614 32.1655 44.0338 31.965 44.0338 31.5453C44.0338 31.1289 43.9659 30.925 43.6008 30.925ZM43.5963 32.5427C42.7914 32.5427 42.7391 31.965 42.7391 31.518C42.7391 31.1485 42.8225 30.5479 43.5963 30.5479C44.3745 30.5479 44.4825 31.0547 44.4825 31.518C44.4825 31.965 44.4268 32.5427 43.5963 32.5427ZM41.9132 32.4364C41.9132 32.4833 41.8932 32.5106 41.8375 32.5106H41.5481C41.4924 32.5106 41.4724 32.4876 41.4724 32.4364V30.6661C41.4724 30.6149 41.4924 30.5877 41.5481 30.5877H41.8331C41.8932 30.5877 41.9133 30.6192 41.9133 30.6661V30.8384L41.9213 30.8462C42.0415 30.7372 42.3265 30.6031 42.5147 30.5683C42.567 30.5562 42.6026 30.5683 42.6115 30.6347L42.6393 30.8974C42.6429 30.9531 42.6473 30.9759 42.5625 30.9923C42.3388 31.0348 42.0537 31.1132 41.9135 31.1721V32.4366L41.9132 32.4364ZM41.056 32.511H40.771C40.7109 32.511 40.6953 32.4838 40.6953 32.4369V32.3148L40.6873 32.3104C40.5303 32.4173 40.2576 32.5459 40.0137 32.5459C39.4727 32.5459 39.4204 32.2319 39.4204 31.8199V30.6655C39.4204 30.6187 39.4404 30.5881 39.4961 30.5881H39.7889C39.8412 30.5881 39.8613 30.6153 39.8613 30.6655V31.7687C39.8613 32.0052 39.9091 32.1534 40.1541 32.1534C40.3266 32.1534 40.5905 32.0281 40.6951 31.9769V30.6655C40.6951 30.6187 40.7107 30.5881 40.7708 30.5881H41.0558C41.1115 30.5881 41.1315 30.6153 41.1315 30.6655V32.4369C41.1315 32.487 41.1117 32.511 41.056 32.511ZM37.5447 29.983C37.5447 29.9317 37.5692 29.9045 37.6249 29.9045H39.1C39.1479 29.9045 39.1769 29.9317 39.1769 29.9786V30.2228C39.1769 30.2697 39.1568 30.2937 39.0967 30.2937H38.0023V30.9684H38.972C39.0243 30.9684 39.0522 30.9924 39.0522 31.0392V31.2823C39.0522 31.3293 39.0321 31.3532 38.972 31.3532H38.0023V32.126H39.1245C39.1724 32.126 39.1969 32.15 39.1969 32.2013V32.44C39.1969 32.4913 39.1769 32.5108 39.1201 32.5108H37.6249C37.5693 32.5108 37.5448 32.4868 37.5448 32.44L37.5447 29.983Z" fill="#5A5758"/>
<path d="M56.2809 36.6532H55.9926C55.9402 36.6532 55.9157 36.6292 55.9157 36.579L55.9201 35.4759C55.9201 35.2437 55.8645 35.0911 55.6318 35.0911C55.4715 35.0911 55.1909 35.2164 55.0818 35.2677V36.579C55.0818 36.626 55.0618 36.6532 55.0061 36.6532H54.7211C54.6655 36.6532 54.6454 36.6292 54.6454 36.579V34.8077C54.6454 34.7575 54.6655 34.7302 54.7211 34.7302H55.0061C55.0618 34.7302 55.0818 34.7575 55.0818 34.8077V34.9265C55.0863 34.9265 55.0899 34.93 55.0941 34.93C55.2422 34.8286 55.5239 34.6945 55.7677 34.6945C56.3087 34.6945 56.3577 35.0444 56.3577 35.4402V36.5793C56.3577 36.6262 56.3411 36.6534 56.2809 36.6534M53.5472 35.0672C53.2065 35.0672 53.1308 35.2798 53.1308 35.6875C53.1308 36.1039 53.2065 36.3077 53.5427 36.3077C53.9079 36.3077 53.9803 36.1072 53.9803 35.6875C53.9803 35.2711 53.9123 35.0672 53.5472 35.0672ZM53.5428 36.6849C52.7379 36.6849 52.6855 36.1072 52.6855 35.6602C52.6855 35.2907 52.769 34.6901 53.5428 34.6901C54.321 34.6901 54.4289 35.1969 54.4289 35.6602C54.4289 36.1072 54.3733 36.6849 53.5428 36.6849ZM52.389 36.5786C52.389 36.6212 52.3734 36.6528 52.3166 36.6528H52.0315C51.9759 36.6528 51.9514 36.6298 51.9514 36.5786V34.804C51.9514 34.7495 51.9759 34.7299 52.0315 34.7299H52.3166C52.3734 34.7299 52.389 34.7614 52.389 34.804V36.5786ZM52.1763 34.4475C51.9681 34.4475 51.9403 34.333 51.9403 34.2197C51.9403 34.0943 51.9838 33.9951 52.1763 33.9951C52.3734 33.9951 52.4135 34.0856 52.4135 34.2197C52.4135 34.3407 52.3768 34.4475 52.1763 34.4475ZM50.8739 36.6847C50.6735 36.6847 50.4052 36.6575 50.2527 36.5987C50.1725 36.5671 50.1558 36.5311 50.1681 36.4689L50.1959 36.3392C50.2082 36.276 50.2359 36.2728 50.3005 36.2804C50.4764 36.3076 50.7336 36.3273 50.8694 36.3273C51.1266 36.3273 51.2312 36.2607 51.2312 36.1038C51.2312 35.9229 51.1622 35.8836 50.9095 35.8487C50.5165 35.7931 50.1725 35.7114 50.1725 35.283C50.1725 34.8949 50.4764 34.6911 50.9262 34.6911C51.0898 34.6911 51.367 34.714 51.5351 34.7771C51.6031 34.8044 51.632 34.836 51.6197 34.8949L51.5875 35.0355C51.5753 35.0911 51.5519 35.0987 51.4795 35.0911C51.3069 35.0715 51.0821 35.0475 50.934 35.0475C50.6779 35.0475 50.6178 35.1183 50.6178 35.2677C50.6178 35.4203 50.7136 35.44 50.9585 35.4792C51.3392 35.5348 51.6832 35.6089 51.6832 36.0766C51.6832 36.5355 51.2869 36.6847 50.8739 36.6847ZM49.1946 36.6847C48.9942 36.6847 48.7259 36.6575 48.5734 36.5987C48.4932 36.5671 48.4765 36.5311 48.4888 36.469L48.5165 36.3392C48.5288 36.276 48.5566 36.2728 48.6212 36.2804C48.7971 36.3076 49.0543 36.3273 49.1901 36.3273C49.4472 36.3273 49.5519 36.2607 49.5519 36.1038C49.5519 35.9229 49.4829 35.8836 49.2302 35.8487C48.8372 35.7931 48.4932 35.7114 48.4932 35.283C48.4932 34.8949 48.7971 34.6911 49.2469 34.6911C49.4105 34.6911 49.6877 34.714 49.8558 34.7772C49.9238 34.8044 49.9527 34.836 49.9404 34.8949L49.9082 35.0355C49.8959 35.0911 49.8726 35.0987 49.8002 35.0911C49.6276 35.0715 49.4027 35.0475 49.2547 35.0475C48.9986 35.0475 48.9385 35.1184 48.9385 35.2677C48.9385 35.4203 49.0343 35.44 49.2792 35.4792C49.6599 35.5348 50.0039 35.6089 50.0039 36.0766C50.0039 36.5355 49.6076 36.6847 49.1946 36.6847ZM48.2006 36.5787C48.2006 36.6212 48.185 36.6528 48.1282 36.6528H47.8432C47.7875 36.6528 47.763 36.6299 47.763 36.5787V34.8041C47.763 34.7495 47.7875 34.7299 47.8432 34.7299H48.1282C48.185 34.7299 48.2006 34.7615 48.2006 34.8041V36.5787ZM47.988 34.4476C47.7798 34.4476 47.752 34.3331 47.752 34.2197C47.752 34.0944 47.7954 33.9952 47.988 33.9952C48.185 33.9952 48.2251 34.0857 48.2251 34.2197C48.2251 34.3407 48.1884 34.4476 47.988 34.4476ZM47.3637 36.6532H47.0753C47.0186 36.6532 46.9985 36.6292 46.9985 36.5791V35.4639C46.9985 35.1729 46.9272 35.0911 46.7257 35.0911C46.5776 35.0911 46.3372 35.2045 46.2136 35.2677C46.2136 35.307 46.2171 35.3778 46.2171 35.4672V36.5791C46.2171 36.626 46.2015 36.6532 46.1414 36.6532H45.8486C45.7964 36.6532 45.7807 36.6292 45.7807 36.5791V35.4443C45.7807 35.2045 45.7161 35.0911 45.5157 35.0911C45.3754 35.0911 45.1506 35.1892 44.998 35.2677V36.5791C44.998 36.626 44.978 36.6532 44.9223 36.6532H44.634C44.5816 36.6532 44.5616 36.6292 44.5616 36.5791V34.8077C44.5616 34.7576 44.5816 34.7303 44.634 34.7303H44.9179C44.978 34.7303 44.9981 34.7608 44.9981 34.8077V34.9222L45.0025 34.9265C45.1584 34.8197 45.3788 34.702 45.6003 34.6944C45.8319 34.6944 46.0245 34.7413 46.1492 34.969C46.3496 34.8241 46.5978 34.6944 46.855 34.6944C47.3838 34.6944 47.4361 35.0323 47.4361 35.4247V36.5791C47.4361 36.626 47.4193 36.6532 47.3637 36.6532ZM44.2216 36.6532H43.9332C43.8765 36.6532 43.8564 36.6292 43.8564 36.5791V35.4639C43.8564 35.1729 43.7851 35.0911 43.5836 35.0911C43.4356 35.0911 43.1951 35.2045 43.0715 35.2677C43.0715 35.307 43.0751 35.3778 43.0751 35.4672V36.5791C43.0751 36.626 43.0595 36.6532 42.9994 36.6532H42.7066C42.6543 36.6532 42.6386 36.6292 42.6386 36.5791V35.4443C42.6386 35.2045 42.5741 35.0911 42.3737 35.0911C42.2334 35.0911 42.0085 35.1892 41.856 35.2677V36.5791C41.856 36.626 41.836 36.6532 41.7803 36.6532H41.492C41.4396 36.6532 41.4196 36.6292 41.4196 36.5791V34.8077C41.4196 34.7576 41.4396 34.7303 41.492 34.7303H41.7759C41.836 34.7303 41.856 34.7608 41.856 34.8077V34.9222L41.8605 34.9265C42.0163 34.8197 42.2367 34.702 42.4583 34.6944C42.6898 34.6944 42.8824 34.7413 43.0071 34.9691C43.2075 34.8241 43.4558 34.6944 43.713 34.6944C44.2418 34.6944 44.2941 35.0323 44.2941 35.4247V36.5791C44.2941 36.626 44.2773 36.6532 44.2216 36.6532ZM40.3094 35.0673C39.9687 35.0673 39.8919 35.2798 39.8919 35.6875C39.8919 36.1039 39.9688 36.3078 40.3049 36.3078C40.6701 36.3078 40.7425 36.1072 40.7425 35.6875C40.7425 35.2711 40.6745 35.0673 40.3094 35.0673ZM40.3049 36.6849C39.5 36.6849 39.4477 36.1072 39.4477 35.6603C39.4477 35.2907 39.5312 34.6901 40.3049 34.6901C41.0831 34.6901 41.1911 35.197 41.1911 35.6603C41.1911 36.1072 41.1355 36.6849 40.3049 36.6849ZM38.5901 34.0192C38.786 34.0192 39.1111 34.0464 39.3237 34.1326C39.3883 34.1609 39.4116 34.1926 39.3994 34.2547L39.3638 34.416C39.3515 34.4629 39.3315 34.4826 39.2591 34.4749C39.0632 34.4509 38.8227 34.4237 38.6145 34.4237C38.069 34.4237 37.9889 34.8554 37.9889 35.3655C37.9889 35.88 38.0891 36.2845 38.6145 36.2845C38.8461 36.2845 39.0431 36.2605 39.2591 36.2332C39.336 36.2253 39.3515 36.2452 39.3682 36.2964L39.3994 36.4457C39.4161 36.5079 39.3958 36.5439 39.3314 36.5711C39.1355 36.6528 38.7859 36.6888 38.59 36.6888C37.696 36.6888 37.5079 36.0413 37.5079 35.3731C37.5079 34.7027 37.676 34.0192 38.5901 34.0192Z" fill="#5A5758"/>
</g>
</g>
<defs>
<clipPath id="clip0_422_6554">
<rect width="108.957" height="39.9509" fill="white"/>
</clipPath>
<clipPath id="clip1_422_6554">
<rect width="59" height="40" fill="white" transform="translate(24)"/>
</clipPath>
</defs>
</svg>
