<svg width="100%" viewBox="0 0 109 40" fill="none" xmlns="http://www.w3.org/2000/svg">
<g clip-path="url(#clip0_422_6528)">
<path d="M9 15.8366C9.09915 15.4469 9.59492 15.439 10.0034 15.4469C11.2736 15.4717 12.5457 15.4529 13.8168 15.4568C14.6051 15.4588 15.0444 15.8921 15.0453 16.6774C15.0493 19.0868 15.0453 21.4962 15.0473 23.9047C15.0473 24.8555 15.4449 25.2492 16.4018 25.2492C18.6307 25.2492 20.8587 25.2492 23.0876 25.2492C24.1129 25.2492 24.4797 25.621 24.4797 26.6532C24.4797 27.7756 24.4797 28.897 24.4797 30.0194C24.4797 30.7531 24.2894 30.9485 23.5388 30.9505C21.7887 30.9554 20.0397 30.9524 18.2896 30.9524C15.5332 30.9524 12.7757 30.9485 10.0193 30.9564C9.59789 30.9574 9.23797 30.8811 9.00198 30.4993V15.8366H9Z" fill="white"/>
<path d="M22.8863 9.38074C25.1649 9.38074 27.4434 9.38074 29.7209 9.38074C30.4051 9.38074 30.5905 9.56913 30.5915 10.2652C30.5925 14.8203 30.5915 19.3753 30.5915 23.9304C30.5915 24.6324 30.3783 24.8496 29.6813 24.8515C28.7076 24.8555 27.7329 24.8575 26.7592 24.8515C25.9214 24.8456 25.4802 24.4054 25.4702 23.5675C25.4623 22.8744 25.4772 22.1814 25.4663 21.4883C25.4534 20.7199 25.026 20.3004 24.2596 20.2965C23.1699 20.2915 22.0802 20.2985 20.9905 20.2945C20.1467 20.2905 19.7095 19.8552 19.7055 19.0144C19.7005 17.7601 19.7065 16.5059 19.7035 15.2516C19.7015 14.4742 19.3139 14.0469 18.5365 14.0191C17.8107 13.9923 17.0839 14.0161 16.3571 14.0102C15.5252 14.0022 15.1078 13.6007 15.0919 12.7638C15.0761 11.922 15.081 11.0802 15.0899 10.2384C15.0969 9.57012 15.2922 9.38272 15.9516 9.38173C18.2628 9.37975 20.5741 9.38173 22.8853 9.38173L22.8863 9.38074Z" fill="white"/>
<path d="M66.4065 17.3784C66.4065 16.4712 66.4015 15.5629 66.4095 14.6557C66.4114 14.4267 66.3886 14.2868 66.0981 14.2938C65.3882 14.3126 64.6782 14.3097 63.9683 14.2958C63.7046 14.2908 63.6312 14.4019 63.6153 14.6438C63.5905 15.0156 63.532 15.3845 63.4805 15.8247C62.9738 15.2942 62.5048 14.8094 61.8752 14.5407C59.7047 13.6146 57.6513 13.9011 55.8308 15.3369C53.9886 16.7895 53.4313 18.8161 53.6931 21.0858C53.9549 23.3534 55.0188 25.1203 57.2239 25.9175C59.4231 26.7137 61.5579 26.5749 63.4468 24.8714C63.4537 25.0063 63.4636 25.1044 63.4636 25.2026C63.4646 26.9853 63.4735 28.7671 63.4567 30.5489C63.4537 30.8959 63.5519 31.002 63.8989 30.9881C64.5583 30.9614 65.2216 30.9485 65.879 30.9911C66.3272 31.0209 66.4184 30.8771 66.4164 30.4478C66.3995 26.092 66.4065 21.7352 66.4065 17.3784ZM59.8941 23.514C57.9894 23.518 56.5497 22.0674 56.5636 20.1607C56.5775 18.2113 57.9577 16.8678 59.9318 16.8787C61.8564 16.8896 63.2237 18.2698 63.2177 20.1954C63.2118 22.0743 61.7731 23.511 59.8941 23.514Z" fill="white"/>
<path d="M98.891 9.40949C98.3952 9.40453 97.8994 9.38668 97.4046 9.40056C96.9485 9.41345 96.3407 9.19829 96.08 9.49278C95.8559 9.74562 96.0115 10.3405 96.0106 10.7837C96.0076 12.4118 96.0096 14.0389 96.0096 15.7106C95.9233 15.6591 95.8767 15.6442 95.8499 15.6135C93.8332 13.2626 89.4357 13.6225 87.5429 15.907C86.6277 17.0105 86.2787 18.2995 86.1706 19.6966C85.893 23.2681 88.0159 25.9006 91.5685 26.2942C92.9933 26.4519 94.3359 26.1961 95.4325 25.1718C95.6298 24.9874 95.8004 24.7752 96.0165 24.5402C96.0661 24.9795 96.1147 25.3552 96.1494 25.733C96.1712 25.968 96.2555 26.0741 96.5202 26.0662C97.3124 26.0404 98.1047 26.0453 98.8979 26.0394C98.8949 20.4958 98.8929 14.9521 98.891 9.40949ZM92.4262 23.6131C90.5254 23.6181 89.0758 22.11 89.0877 20.1398C89.1006 18.1617 90.5006 16.7408 92.4311 16.7458C94.3408 16.7508 95.8281 18.2569 95.8242 20.1834C95.8202 22.1288 94.3557 23.6072 92.4262 23.6131Z" fill="white"/>
<path d="M77.0049 24.5115C75.8587 25.6646 74.5906 26.2704 73.0487 26.2585C70.7038 26.2417 68.9329 24.7911 68.3836 22.4045C68.2428 21.7927 68.1694 21.173 68.1724 20.5424C68.1803 18.6119 68.1873 16.6804 68.1645 14.7499C68.1595 14.3671 68.2666 14.2749 68.6305 14.2908C69.2899 14.3205 69.9522 14.3205 70.6106 14.2908C70.9933 14.2729 71.1143 14.3761 71.1093 14.7776C71.0865 16.609 71.0954 18.4413 71.1034 20.2727C71.1053 20.6177 71.1202 20.9687 71.1886 21.3049C71.4653 22.6573 72.3705 23.4813 73.6367 23.5675C75.0605 23.6637 76.2206 22.9022 76.6995 21.5617C76.8622 21.1056 76.9167 20.6356 76.9147 20.1527C76.9097 18.3541 76.9246 16.5554 76.9028 14.7568C76.8978 14.38 77.002 14.2759 77.3708 14.2908C78.0629 14.3195 78.757 14.3086 79.45 14.2938C79.7168 14.2878 79.8278 14.3503 79.8268 14.6467C79.8179 18.3432 79.8179 22.0396 79.8268 25.736C79.8268 26.0225 79.7346 26.1039 79.457 26.0969C78.8135 26.0801 78.169 26.081 77.5255 26.0969C77.2766 26.1029 77.1804 26.0335 77.1646 25.7727C77.1408 25.381 77.0674 24.9923 77.003 24.5105L77.0049 24.5115Z" fill="white"/>
<path d="M37.2972 16.1816C37.2972 14.0687 37.3051 11.9557 37.2893 9.8428C37.2863 9.48387 37.3597 9.35299 37.7474 9.36984C38.5059 9.40356 39.2674 9.40455 40.0259 9.36984C40.4185 9.352 40.481 9.49279 40.48 9.84578C40.4681 13.6919 40.4721 17.539 40.4731 21.3852C40.4731 22.6811 40.9381 23.1511 42.2231 23.1521C43.99 23.1521 45.7569 23.162 47.5238 23.1441C47.8619 23.1412 47.9789 23.2145 47.9641 23.5715C47.9343 24.2804 47.9442 24.9914 47.9611 25.7003C47.967 25.969 47.9046 26.0672 47.6131 26.0652C45.285 26.0533 42.9559 26.083 40.6277 26.0503C38.6913 26.0235 37.3131 24.4966 37.3022 22.4213C37.2913 20.3411 37.3002 18.2609 37.3002 16.1816H37.2972Z" fill="white"/>
<path d="M52.1999 20.1785C52.1999 21.992 52.192 23.8055 52.2078 25.619C52.2108 25.9521 52.1424 26.082 51.7795 26.0672C51.0715 26.0384 50.3606 26.0473 49.6527 26.0642C49.3681 26.0711 49.2511 26.0166 49.2521 25.6914C49.264 21.9979 49.262 18.3055 49.2541 14.612C49.2541 14.3404 49.3136 14.2372 49.6061 14.2452C50.3477 14.265 51.0914 14.269 51.832 14.2442C52.1533 14.2333 52.2088 14.3483 52.2068 14.6398C52.1939 16.486 52.2009 18.3332 52.2009 20.1795L52.1999 20.1785Z" fill="white"/>
<path d="M84.7111 20.1874C84.7111 22.0009 84.7022 23.8144 84.719 25.6279C84.722 25.974 84.6288 26.0791 84.2818 26.0662C83.557 26.0394 82.8302 26.0493 82.1054 26.0632C81.8525 26.0682 81.7653 25.9968 81.7653 25.731C81.7732 22.0049 81.7722 18.2787 81.7653 14.5526C81.7653 14.3126 81.8416 14.2422 82.0756 14.2462C82.8341 14.2581 83.5936 14.269 84.3512 14.2422C84.6873 14.2303 84.717 14.3711 84.716 14.6468C84.7061 16.493 84.7111 18.3402 84.7111 20.1864V20.1874Z" fill="white"/>
<path d="M52.1334 10.6083C52.1334 11.9875 52.066 12.0549 50.6947 12.0549C49.3234 12.0549 49.258 11.9567 49.258 10.6321C49.258 9.30738 49.3205 9.18146 50.6957 9.18146C52.1255 9.18146 52.1324 9.1884 52.1324 10.6083H52.1334Z" fill="white"/>
<path d="M82.2441 9.09619C82.9085 9.09619 83.5728 9.09619 84.2371 9.09619C84.8519 9.14875 84.7031 11.6276 84.4027 11.7327C84.2688 11.8348 84.1132 11.8784 83.9397 11.8754C83.4786 11.8695 83.0165 11.8774 82.5545 11.8725C82.1014 11.8675 81.8386 11.6216 81.8118 11.1814C81.7821 10.7054 81.795 10.2255 81.8079 9.74862C81.8158 9.45017 81.9417 9.20923 82.2432 9.09619H82.2441Z" fill="white"/>
</g>
<defs>
<clipPath id="clip0_422_6528">
<rect width="90" height="21.9941" fill="white" transform="translate(9 9)"/>
</clipPath>
</defs>
</svg>
